Haelene-Italic.glyphspackage
{
glyphname = exclam;
kernLeft = h;
kernRight = H;
layers = (
{
background = {
shapes = (
{
closed = 1;
nodes = (
(234,253,l),
(267,521,l),
(267,715,l),
(63,715,l),
(63,521,l),
(95,253,l)
);
},
{
closed = 1;
nodes = (
(229,-10,o),
(271,31,o),
(271,90,cs),
(271,149,o),
(229,190,o),
(165,190,cs),
(100,190,o),
(58,149,o),
(58,90,cs),
(58,31,o),
(100,-10,o),
(165,-10,cs)
);
}
);
};
layerId = "42F8977D-8264-44FF-8A66-A72BD7D3E619";
shapes = (
{
closed = 1;
nodes = (
(215,253,l),
(296,521,l),
(330,716,l),
(126,716,l),
(92,521,l),
(76,253,l)
);
},
{
closed = 1;
nodes = (
(189,-10,o),
(225,50,o),
(225,101,cs),
(225,151,o),
(186,190,o),
(129,190,cs),
(43,190,o),
(10,128,o),
(10,79,cs),
(10,28,o),
(48,-10,o),
(106,-10,cs)
);
}
);
width = 330;
},
{
background = {
shapes = (
{
closed = 1;
nodes = (
(124,188,l),
(130,521,l),
(130,715,l),
(96,715,l),
(96,521,l),
(103,188,l)
);
},
{
closed = 1;
nodes = (
(130,-4,o),
(141,6,o),
(141,23,cs),
(141,39,o),
(130,49,o),
(113,49,cs),
(96,49,o),
(85,39,o),
(85,23,cs),
(85,6,o),
(96,-4,o),
(113,-4,cs)
);
}
);
};
layerId = "1750929F-40DF-47FF-8B11-7621AD6711F1";
shapes = (
{
closed = 1;
nodes = (
(84,188,l),
(149,521,l),
(183,716,l),
(149,716,l),
(115,521,l),
(62,188,l)
);
},
{
closed = 1;
nodes = (
(59,-4,o),
(72,7,o),
(72,27,cs),
(72,40,o),
(62,49,o),
(47,49,cs),
(28,49,o),
(15,38,o),
(15,18,cs),
(15,5,o),
(25,-4,o),
(40,-4,cs)
);
}
);
width = 213;
},
{
layerId = "502A2428-35F6-4863-AD44-5AC44627310C";
shapes = (
{
closed = 1;
nodes = (
(127,207,l),
(197,521,l),
(231,716,l),
(149,716,l),
(115,521,l),
(73,207,l)
);
},
{
closed = 1;
nodes = (
(97,-6,o),
(122,15,o),
(122,47,cs),
(122,71,o),
(103,89,o),
(77,89,cs),
(46,89,o),
(26,72,o),
(21,44,cs),
(16,17,o),
(34,-6,o),
(65,-6,cs)
);
}
);
width = 256;
}
);
unicode = 33;
}
{
glyphname = quotedbl;
kernLeft = quotedbl;
kernRight = quotedbl;
layers = (
{
background = {
shapes = (
{
closed = 1;
nodes = (
(472,366,l),
(499,715,l),
(308,715,l),
(335,366,l)
);
},
{
closed = 1;
nodes = (
(225,366,l),
(252,715,l),
(62,715,l),
(88,366,l)
);
}
);
};
layerId = "42F8977D-8264-44FF-8A66-A72BD7D3E619";
shapes = (
{
closed = 1;
nodes = (
(474,367,l),
(562,716,l),
(371,716,l),
(337,367,l)
);
},
{
closed = 1;
nodes = (
(227,367,l),
(315,716,l),
(125,716,l),
(90,367,l)
);
}
);
width = 562;
},
{
background = {
shapes = (
{
closed = 1;
nodes = (
(257,452,l),
(265,715,l),
(230,715,l),
(236,452,l)
);
},
{
closed = 1;
nodes = (
(110,452,l),
(116,715,l),
(82,715,l),
(89,452,l)
);
}
);
};
layerId = "1750929F-40DF-47FF-8B11-7621AD6711F1";
shapes = (
{
closed = 1;
nodes = (
(264,453,l),
(317,716,l),
(283,716,l),
(243,453,l)
);
},
{
closed = 1;
nodes = (
(117,453,l),
(169,716,l),
(135,716,l),
(95,453,l)
);
}
);
width = 347;
},
{
layerId = "502A2428-35F6-4863-AD44-5AC44627310C";
shapes = (
{
closed = 1;
nodes = (
(329,430,l),
(392,716,l),
(314,716,l),
(275,430,l)
);
},
{
closed = 1;
nodes = (
(154,430,l),
(216,716,l),
(137,716,l),
(100,430,l)
);
}
);
width = 412;
}
);
unicode = 34;
}
{
glyphname = numbersign;
kernLeft = numbersign;
kernRight = numbersign;
layers = (
{
background = {
shapes = (
{
closed = 1;
nodes = (
(252,0,l),
(283,167,l),
(379,167,l),
(350,0,l),
(510,0,l),
(540,167,l),
(636,167,l),
(659,294,l),
(562,294,l),
(584,423,l),
(681,423,l),
(704,549,l),
(607,549,l),
(636,715,l),
(476,715,l),
(446,549,l),
(350,549,l),
(379,715,l),
(219,715,l),
(188,549,l),
(92,549,l),
(69,423,l),
(167,423,l),
(145,294,l),
(47,294,l),
(24,167,l),
(122,167,l),
(92,0,l)
);
},
{
closed = 1;
nodes = (
(328,423,l),
(423,423,l),
(401,294,l),
(306,294,l)
);
}
);
};
layerId = "42F8977D-8264-44FF-8A66-A72BD7D3E619";
shapes = (
{
closed = 1;
nodes = (
(189,0,l),
(249,167,l),
(345,167,l),
(287,0,l),
(447,0,l),
(506,167,l),
(602,167,l),
(648,294,l),
(551,294,l),
(595,423,l),
(692,423,l),
(738,549,l),
(641,549,l),
(699,716,l),
(539,716,l),
(480,549,l),
(384,549,l),
(442,716,l),
(282,716,l),
(222,549,l),
(126,549,l),
(80,423,l),
(178,423,l),
(134,294,l),
(36,294,l),
(-10,167,l),
(88,167,l),
(29,0,l)
);
},
{
closed = 1;
nodes = (
(339,423,l),
(434,423,l),
(390,294,l),
(295,294,l)
);
}
);
width = 728;
},
{
background = {
shapes = (
{
closed = 1;
nodes = (
(162,0,l),
(199,205,l),
(422,205,l),
(387,0,l),
(419,0,l),
(454,205,l),
(573,205,l),
(578,234,l),
(460,234,l),
(504,481,l),
(622,481,l),
(628,511,l),
(509,511,l),
(546,715,l),
(513,715,l),
(477,511,l),
(253,511,l),
(289,715,l),
(256,715,l),
(221,511,l),
(101,511,l),
(96,481,l),
(215,481,l),
(171,234,l),
(52,234,l),
(47,205,l),
(166,205,l),
(130,0,l)
);
},
{
closed = 1;
nodes = (
(248,481,l),
(472,481,l),
(428,234,l),
(204,234,l)
);
}
);
};
layerId = "1750929F-40DF-47FF-8B11-7621AD6711F1";
shapes = (
{
closed = 1;
nodes = (
(88,0,l),
(161,205,l),
(384,205,l),
(314,0,l),
(345,0,l),
(417,205,l),
(536,205,l),
(546,234,l),
(427,234,l),
(514,481,l),
(634,481,l),
(645,511,l),
(525,511,l),
(598,716,l),
(566,716,l),
(494,511,l),
(270,511,l),
(341,716,l),
(309,716,l),
(238,511,l),
(118,511,l),
(108,481,l),
(226,481,l),
(139,234,l),
(20,234,l),
(10,205,l),
(129,205,l),
(57,0,l)
);
},
{
closed = 1;
nodes = (
(258,480,l),
(483,480,l),
(396,234,l),
(171,234,l)
);
}
);
width = 655;
},
{
background = {
shapes = (
{
closed = 1;
nodes = (
(170,0,l),
(205,193,l),
(392,193,l),
(358,0,l),
(427,0,l),
(461,193,l),
(573,193,l),
(583,252,l),
(470,252,l),
(509,464,l),
(622,464,l),
(632,523,l),
(519,523,l),
(554,716,l),
(485,716,l),
(450,523,l),
(262,523,l),
(297,716,l),
(227,716,l),
(194,523,l),
(81,523,l),
(71,464,l),
(184,464,l),
(145,252,l),
(33,252,l),
(23,193,l),
(135,193,l),
(101,0,l)
);
},
{
closed = 1;
nodes = (
(253,464,l),
(441,464,l),
(402,252,l),
(214,252,l)
);
}
);
};
layerId = "502A2428-35F6-4863-AD44-5AC44627310C";
shapes = (
{
closed = 1;
nodes = (
(113,0,l),
(182,193,l),
(367,193,l),
(299,0,l),
(370,0,l),
(438,193,l),
(550,193,l),
(570,252,l),
(457,252,l),
(534,464,l),
(647,464,l),
(667,523,l),
(554,523,l),
(623,716,l),
(552,716,l),
(483,523,l),
(297,523,l),
(366,716,l),
(294,716,l),
(227,523,l),
(116,523,l),
(96,464,l),
(207,464,l),
(130,252,l),
(20,252,l),
(0,193,l),
(110,193,l),
(42,0,l)
);
},
{
closed = 1;
nodes = (
(278,464,l),
(464,464,l),
(387,252,l),
(201,252,l)
);
}
);
width = 667;
}
);
unicode = 35;
}
{
glyphname = dollar;
kernLeft = S;
kernRight = S;
layers = (
{
layerId = "1750929F-40DF-47FF-8B11-7621AD6711F1";
shapes = (
{
pos = (1,14);
ref = S;
scale = (0.96,0.96);
},
{
closed = 1;
nodes = (
(240,-107,l),
(404,823,l),
(370,823,l),
(206,-107,l)
);
}
);
width = 607;
},
{
layerId = "42F8977D-8264-44FF-8A66-A72BD7D3E619";
shapes = (
{
pos = (-1,13);
ref = S;
scale = (0.96,0.96);
},
{
closed = 1;
nodes = (
(305,-107,l),
(467,823,l),
(327,823,l),
(162,-107,l)
);
}
);
width = 606;
},
{
associatedMasterId = "1750929F-40DF-47FF-8B11-7621AD6711F1";
attr = {
axisRules = (
{
min = 700;
}
);
};
layerId = "84D56100-B407-44BC-8398-F7B86C08C4B5";
name = "Dec 3, 23 at 00:41";
shapes = (
{
closed = 1;
nodes = (
(383,698,l),
(405,823,l),
(370,823,l),
(348,698,l)
);
},
{
closed = 1;
nodes = (
(241,-107,l),
(262,14,l),
(227,14,l),
(206,-107,l)
);
},
{
pos = (1,14);
ref = S;
scale = (0.96,0.96);
}
);
width = 607;
},
{
associatedMasterId = "42F8977D-8264-44FF-8A66-A72BD7D3E619";
attr = {
axisRules = (
{
min = 700;
}
);
};
layerId = "8D54F143-7F06-469F-BEB2-8CB27DD37629";
name = "Dec 3, 23 at 00:43";
shapes = (
{
closed = 1;
nodes = (
(438,624,l),
(473,823,l),
(318,823,l),
(283,624,l)
);
},
{
closed = 1;
nodes = (
(309,-107,l),
(345,99,l),
(190,99,l),
(154,-107,l)
);
},
{
pos = (-1,14);
ref = S;
scale = (0.96,0.96);
}
);
width = 606;
},
{
layerId = "502A2428-35F6-4863-AD44-5AC44627310C";
shapes = (
{
alignment = -1;
pos = (1,13);
ref = S;
scale = (0.96,0.96);
},
{
closed = 1;
nodes = (
(264,-107,l),
(428,823,l),
(373,823,l),
(209,-107,l)
);
}
);
width = 615;
},
{
associatedMasterId = "502A2428-35F6-4863-AD44-5AC44627310C";
attr = {
axisRules = (
{
min = 700;
}
);
};
layerId = "F39C7633-809F-4CE6-B1A1-7E83F6F44525";
name = "Dec 9, 23 at 02:21";
shapes = (
{
closed = 1;
nodes = (
(397,675,l),
(423,823,l),
(355,823,l),
(329,675,l)
);
},
{
closed = 1;
nodes = (
(259,-107,l),
(283,30,l),
(215,30,l),
(191,-107,l)
);
},
{
pos = (1,14);
ref = S;
scale = (0.96,0.96);
}
);
width = 615;
}
);
metricLeft = S;
metricRight = S;
unicode = 36;
}
{
glyphname = percent;
kernLeft = percent;
kernRight = percent;
layers = (
{
layerId = "42F8977D-8264-44FF-8A66-A72BD7D3E619";
shapes = (
{
closed = 1;
nodes = (
(304,0,l),
(814,716,l),
(683,716,l),
(173,0,l)
);
},
{
closed = 1;
nodes = (
(349,331,o),
(416,405,o),
(436,519,cs),
(439,536,o),
(441,552,o),
(441,567,cs),
(441,657,o),
(387,723,o),
(278,723,cs),
(152,723,o),
(84,647,o),
(64,533,cs),
(61,517,o),
(60,502,o),
(60,487,cs),
(60,396,o),
(113,331,o),
(221,331,cs)
);
},
{
closed = 1;
nodes = (
(211,445,o),
(201,451,o),
(201,478,cs),
(201,489,o),
(202,502,o),
(205,519,cs),
(217,583,o),
(245,608,o),
(270,608,cs),
(289,608,o),
(299,602,o),
(299,574,cs),
(299,564,o),
(298,550,o),
(295,533,cs),
(284,470,o),
(255,445,o),
(229,445,cs)
);
},
{
closed = 1;
nodes = (
(834,-6,o),
(902,69,o),
(922,182,cs),
(925,198,o),
(926,213,o),
(926,228,cs),
(926,319,o),
(873,386,o),
(763,386,cs),
(638,386,o),
(569,310,o),
(548,196,cs),
(545,181,o),
(544,165,o),
(544,151,cs),
(544,60,o),
(598,-6,o),
(706,-6,cs)
);
},
{
closed = 1;
nodes = (
(696,108,o),
(686,114,o),
(686,143,cs),
(686,153,o),
(687,166,o),
(690,182,cs),
(701,246,o),
(731,271,o),
(755,271,cs),
(773,271,o),
(784,265,o),
(784,238,cs),
(784,227,o),
(782,214,o),
(779,196,cs),
(768,134,o),
(739,108,o),
(714,108,cs)
);
}
);
width = 991;
},
{
layerId = "1750929F-40DF-47FF-8B11-7621AD6711F1";
shapes = (
{
closed = 1;
nodes = (
(238,0,l),
(747,716,l),
(709,716,l),
(199,0,l)
);
},
{
closed = 1;
nodes = (
(318,331,o),
(391,411,o),
(411,525,cs),
(414,543,o),
(416,560,o),
(416,576,cs),
(416,663,o),
(369,723,o),
(284,723,cs),
(184,723,o),
(110,641,o),
(90,527,cs),
(87,510,o),
(85,493,o),
(85,478,cs),
(85,390,o),
(132,331,o),
(217,331,cs)
);
},
{
closed = 1;
nodes = (
(161,361,o),
(121,399,o),
(121,476,cs),
(121,491,o),
(123,507,o),
(126,525,cs),
(146,636,o),
(211,692,o),
(281,692,cs),
(340,692,o),
(380,654,o),
(380,576,cs),
(380,561,o),
(378,545,o),
(375,527,cs),
(355,417,o),
(290,361,o),
(220,361,cs)
);
},
{
closed = 1;
nodes = (
(767,-6,o),
(840,75,o),
(860,188,cs),
(863,206,o),
(865,222,o),
(865,238,cs),
(865,326,o),
(819,386,o),
(734,386,cs),
(632,386,o),
(559,304,o),
(538,190,cs),
(535,173,o),
(533,156,o),
(533,141,cs),
(533,54,o),
(580,-6,o),
(667,-6,cs)
);
},
{
closed = 1;
nodes = (
(610,25,o),
(571,62,o),
(571,139,cs),
(571,154,o),
(572,170,o),
(575,188,cs),
(595,299,o),
(660,355,o),
(731,355,cs),
(789,355,o),
(829,317,o),
(829,240,cs),
(829,225,o),
(827,208,o),
(824,190,cs),
(805,80,o),
(739,25,o),
(670,25,cs)
);
}
);
width = 955;
},
{
layerId = "502A2428-35F6-4863-AD44-5AC44627310C";
shapes = (
{
closed = 1;
nodes = (
(247,0,l),
(753,716,l),
(682,716,l),
(177,0,l)
);
},
{
closed = 1;
nodes = (
(318,331,o),
(390,409,o),
(410,523,cs),
(413,540,o),
(414,556,o),
(414,572,cs),
(414,661,o),
(366,723,o),
(275,723,cs),
(166,723,o),
(94,643,o),
(74,529,cs),
(71,512,o),
(70,496,o),
(70,480,cs),
(70,392,o),
(118,331,o),
(211,331,cs)
);
},
{
closed = 1;
nodes = (
(167,385,o),
(136,413,o),
(136,476,cs),
(136,490,o),
(138,506,o),
(141,523,cs),
(158,619,o),
(211,668,o),
(270,668,cs),
(317,668,o),
(347,639,o),
(347,575,cs),
(347,562,o),
(346,546,o),
(343,529,cs),
(326,433,o),
(272,385,o),
(215,385,cs)
);
},
{
closed = 1;
nodes = (
(764,-6,o),
(836,73,o),
(856,186,cs),
(859,203,o),
(860,219,o),
(860,235,cs),
(860,324,o),
(812,386,o),
(720,386,cs),
(612,386,o),
(541,306,o),
(521,192,cs),
(518,175,o),
(517,159,o),
(517,143,cs),
(517,55,o),
(564,-6,o),
(656,-6,cs)
);
},
{
closed = 1;
nodes = (
(613,48,o),
(582,76,o),
(582,139,cs),
(582,153,o),
(584,169,o),
(587,186,cs),
(604,283,o),
(657,332,o),
(716,332,cs),
(764,332,o),
(795,303,o),
(795,239,cs),
(795,225,o),
(793,210,o),
(790,192,cs),
(773,96,o),
(720,48,o),
(661,48,cs)
);
}
);
width = 935;
}
);
unicode = 37;
}
{
glyphname = ampersand;
kernLeft = ampersand;
kernRight = ampersand;
layers = (
{
associatedMasterId = "1750929F-40DF-47FF-8B11-7621AD6711F1";
background = {
shapes = (
{
closed = 1;
nodes = (
(356,-10,o),
(421,26,o),
(496,129,c),
(632,0,l),
(679,0,l),
(513,157,l),
(644,347,l),
(608,347,l),
(492,177,l),
(298,361,l),
(364,385,ls),
(461,420,o),
(503,471,o),
(503,549,cs),
(503,647,o),
(438,727,o),
(324,727,cs),
(209,727,o),
(145,647,o),
(145,549,cs),
(145,492,o),
(167,441,o),
(241,371,c),
(190,353,ls),
(100,319,o),
(53,251,o),
(53,173,cs),
(53,79,o),
(127,-10,o),
(266,-10,cs)
);
},
{
closed = 1;
nodes = (
(161,19,o),
(87,83,o),
(87,173,cs),
(87,245,o),
(125,297,o),
(202,325,c),
(264,348,l),
(473,150,l),
(400,51,o),
(338,19,o),
(266,19,cs)
);
},
{
closed = 1;
nodes = (
(201,455,o),
(180,497,o),
(180,549,cs),
(180,632,o),
(235,697,o),
(324,697,cs),
(413,697,o),
(468,632,o),
(468,549,cs),
(468,484,o),
(435,442,o),
(354,412,cs),
(275,384,l)
);
}
);
};
layerId = "987B2692-3FD2-4A88-97D7-817FA11CFF95";
name = "May 27, 24 at 10:27";
shapes = (
{
closed = 1;
nodes = (
(617,0,l),
(277,401,ls),
(224,464,o),
(204,503,o),
(204,549,cs),
(204,628,o),
(263,697,o),
(357,697,cs),
(446,697,o),
(494,639,o),
(508,593,c),
(538,605,l),
(519,662,o),
(462,727,o),
(357,727,cs),
(252,727,o),
(169,657,o),
(169,544,cs),
(169,487,o),
(196,445,o),
(241,393,cs),
(576,-1,l)
);
},
{
closed = 1;
nodes = (
(430,-10,o),
(530,132,o),
(653,317,c),
(617,317,l),
(499,141,o),
(399,19,o),
(251,19,cs),
(165,19,o),
(87,82,o),
(87,160,cs),
(87,279,o),
(168,330,o),
(268,375,c),
(247,400,l),
(142,352,o),
(50,294,o),
(50,160,cs),
(50,60,o),
(137,-10,o),
(249,-10,cs)
);
}
);
visible = 1;
width = 713;
},
{
background = {
shapes = (
{
closed = 1;
nodes = (
(369,-10,o),
(434,26,o),
(509,129,c),
(645,0,l),
(692,0,l),
(526,157,l),
(657,347,l),
(621,347,l),
(505,177,l),
(311,361,l),
(377,385,ls),
(474,420,o),
(516,471,o),
(516,549,cs),
(516,647,o),
(451,727,o),
(337,727,cs),
(222,727,o),
(158,647,o),
(158,549,cs),
(158,492,o),
(180,441,o),
(254,371,c),
(203,353,ls),
(113,319,o),
(66,251,o),
(66,173,cs),
(66,79,o),
(140,-10,o),
(279,-10,cs)
);
},
{
closed = 1;
nodes = (
(174,19,o),
(100,83,o),
(100,173,cs),
(100,245,o),
(138,297,o),
(215,325,c),
(277,348,l),
(486,150,l),
(413,51,o),
(351,19,o),
(279,19,cs)
);
},
{
closed = 1;
nodes = (
(214,455,o),
(193,497,o),
(193,549,cs),
(193,632,o),
(248,697,o),
(337,697,cs),
(426,697,o),
(481,632,o),
(481,549,cs),
(481,484,o),
(448,442,o),
(367,412,cs),
(288,384,l)
);
}
);
};
layerId = "1750929F-40DF-47FF-8B11-7621AD6711F1";
name = "Thin Italic";
shapes = (
{
closed = 1;
nodes = (
(294,-10,o),
(366,25,o),
(459,128,c),
(572,0,l),
(619,0,l),
(481,157,l),
(645,347,l),
(609,347,l),
(462,177,l),
(302,361,l),
(373,385,ls),
(478,421,o),
(542,478,o),
(542,585,cs),
(542,665,o),
(490,726,o),
(391,726,cs),
(256,726,o),
(179,617,o),
(179,518,cs),
(179,473,o),
(198,429,o),
(247,372,c),
(191,353,ls),
(88,320,o),
(20,237,o),
(20,143,cs),
(20,61,o),
(81,-10,o),
(204,-10,cs)
);
},
{
closed = 1;
nodes = (
(114,21,o),
(54,70,o),
(54,145,cs),
(54,225,o),
(112,294,o),
(200,325,cs),
(265,348,l),
(439,151,l),
(347,52,o),
(280,21,o),
(207,21,cs)
);
},
{
closed = 1;
nodes = (
(231,441,o),
(213,480,o),
(213,521,cs),
(213,613,o),
(288,695,o),
(388,695,cs),
(465,695,o),
(508,648,o),
(508,581,cs),
(508,494,o),
(451,441,o),
(365,412,cs),
(281,383,l)
);
}
);
width = 695;
},
{
associatedMasterId = "502A2428-35F6-4863-AD44-5AC44627310C";
layerId = "C914A6F8-0CEA-4C77-A256-0B302B2AD48D";
name = "May 27, 24 at 10:27";
shapes = (
{
closed = 1;
nodes = (
(642,0,l),
(302,401,ls),
(239,476,o),
(239,503,o),
(239,534,cs),
(239,611,o),
(287,655,o),
(358,655,cs),
(416,655,o),
(468,611,o),
(494,565,c),
(553,605,l),
(523,662,o),
(457,727,o),
(351,727,cs),
(247,727,o),
(154,657,o),
(154,544,cs),
(154,487,o),
(171,445,o),
(216,393,cs),
(551,-1,l)
);
},
{
closed = 1;
nodes = (
(430,-10,o),
(560,152,o),
(683,337,c),
(598,337,l),
(480,161,o),
(359,63,o),
(251,63,cs),
(195,63,o),
(118,96,o),
(118,170,cs),
(118,259,o),
(168,296,o),
(268,349,c),
(247,417,l),
(142,369,o),
(30,299,o),
(30,160,cs),
(30,60,o),
(108,-10,o),
(249,-10,cs)
);
}
);
width = 700;
},
{
layerId = "502A2428-35F6-4863-AD44-5AC44627310C";
name = Italic;
shapes = (
{
closed = 1;
nodes = (
(296,-10,o),
(367,18,o),
(447,99,c),
(529,0,l),
(633,0,l),
(500,163,l),
(660,347,l),
(577,347,l),
(461,212,l),
(339,362,l),
(386,378,ls),
(489,417,o),
(557,476,o),
(557,577,cs),
(557,660,o),
(499,726,o),
(391,726,cs),
(254,726,o),
(168,624,o),
(168,519,cs),
(168,476,o),
(185,433,o),
(227,381,c),
(181,364,ls),
(76,324,o),
(10,244,o),
(10,149,cs),
(10,63,o),
(76,-10,o),
(202,-10,cs)
);
},
{
closed = 1;
nodes = (
(136,63,o),
(91,101,o),
(91,158,cs),
(91,221,o),
(138,274,o),
(212,307,cs),
(263,330,l),
(406,155,l),
(334,85,o),
(272,63,o),
(209,63,cs)
);
},
{
closed = 1;
nodes = (
(263,454,o),
(247,486,o),
(247,520,cs),
(247,582,o),
(295,658,o),
(384,658,cs),
(445,658,o),
(476,626,o),
(476,574,cs),
(476,504,o),
(438,462,o),
(361,432,cs),
(301,405,l)
);
}
);
width = 700;
},
{
associatedMasterId = "42F8977D-8264-44FF-8A66-A72BD7D3E619";
background = {
shapes = (
{
closed = 1;
nodes = (
(360,-10,o),
(427,7,o),
(482,49,c),
(526,0,l),
(744,0,l),
(588,169,l),
(709,347,l),
(528,347,l),
(485,282,l),
(420,354,l),
(427,357,l),
(532,405,o),
(568,473,o),
(568,538,cs),
(568,637,o),
(491,727,o),
(346,727,cs),
(201,727,o),
(124,637,o),
(124,538,cs),
(124,496,o),
(136,445,o),
(182,389,c),
(169,385,l),
(78,351,o),
(32,284,o),
(32,186,cs),
(32,78,o),
(117,-10,o),
(267,-10,cs)
);
},
{
closed = 1;
nodes = (
(256,137,o),
(227,169,o),
(227,208,cs),
(227,242,o),
(244,268,o),
(268,279,c),
(275,282,l),
(384,161,l),
(359,144,o),
(333,137,o),
(306,137,cs)
);
},
{
closed = 1;
nodes = (
(313,476,o),
(300,504,o),
(300,530,cs),
(300,560,o),
(321,578,o),
(346,578,cs),
(370,578,o),
(392,560,o),
(392,530,cs),
(392,496,o),
(376,461,o),
(346,449,cs),
(338,446,l)
);
}
);
};
layerId = "FEA9DC0D-F9D8-4BAA-AA45-67AB0EBD0480";
name = "May 27, 24 at 10:27";
shapes = (
{
closed = 1;
nodes = (
(719,0,l),
(364,419,ls),
(328,461,o),
(320,482,o),
(320,513,cs),
(320,560,o),
(351,580,o),
(387,580,cs),
(433,580,o),
(483,529,o),
(496,505,c),
(629,595,l),
(597,633,o),
(522,727,o),
(377,727,cs),
(239,727,o),
(145,636,o),
(146,524,cs),
(147,469,o),
(171,405,o),
(227,338,cs),
(516,-1,l)
);
},
{
closed = 1;
nodes = (
(450,-10,o),
(587,162,o),
(710,347,c),
(528,347,l),
(398,171,o),
(337,140,o),
(292,140,cs),
(255,140,o),
(227,169,o),
(227,200,cs),
(227,247,o),
(258,281,o),
(320,303,c),
(237,440,l),
(132,392,o),
(30,322,o),
(30,170,cs),
(30,69,o),
(118,-10,o),
(259,-10,cs)
);
}
);
width = 737;
},
{
background = {
shapes = (
{
closed = 1;
nodes = (
(360,-10,o),
(427,7,o),
(482,49,c),
(526,0,l),
(744,0,l),
(588,169,l),
(709,347,l),
(528,347,l),
(485,282,l),
(420,354,l),
(427,357,l),
(532,405,o),
(568,473,o),
(568,538,cs),
(568,637,o),
(491,727,o),
(346,727,cs),
(201,727,o),
(124,637,o),
(124,538,cs),
(124,496,o),
(136,445,o),
(182,389,c),
(169,385,l),
(78,351,o),
(32,284,o),
(32,186,cs),
(32,78,o),
(117,-10,o),
(267,-10,cs)
);
},
{
closed = 1;
nodes = (
(256,137,o),
(227,169,o),
(227,208,cs),
(227,242,o),
(244,268,o),
(268,279,c),
(275,282,l),
(384,161,l),
(359,144,o),
(333,137,o),
(306,137,cs)
);
},
{
closed = 1;
nodes = (
(313,476,o),
(300,504,o),
(300,530,cs),
(300,560,o),
(321,578,o),
(346,578,cs),
(370,578,o),
(392,560,o),
(392,530,cs),
(392,496,o),
(376,461,o),
(346,449,cs),
(338,446,l)
);
}
);
};
layerId = "42F8977D-8264-44FF-8A66-A72BD7D3E619";
name = "Black Italic";
shapes = (
{
closed = 1;
nodes = (
(301,-10,o),
(369,3,o),
(432,45,c),
(463,0,l),
(681,0,l),
(555,169,l),
(707,347,l),
(526,347,l),
(472,282,l),
(423,351,l),
(432,354,ls),
(534,388,o),
(602,468,o),
(602,561,cs),
(602,649,o),
(535,726,o),
(405,726,cs),
(263,726,o),
(154,639,o),
(154,514,cs),
(154,478,o),
(164,437,o),
(192,394,c),
(168,387,l),
(49,345,o),
(0,249,o),
(0,160,cs),
(0,66,o),
(73,-10,o),
(208,-10,cs)
);
},
{
closed = 1;
nodes = (
(218,137,o),
(198,156,o),
(198,186,cs),
(198,226,o),
(231,259,o),
(259,276,cs),
(264,279,l),
(345,165,l),
(317,148,o),
(288,137,o),
(261,137,cs)
);
},
{
closed = 1;
nodes = (
(324,477,o),
(327,511,o),
(329,523,cs),
(334,553,o),
(366,577,o),
(391,577,cs),
(412,577,o),
(425,570,o),
(425,548,cs),
(425,513,o),
(393,463,o),
(357,451,cs),
(346,446,l)
);
}
);
width = 737;
}
);
unicode = 38;
}
{
glyphname = quotesingle;
kernLeft = quotedbl;
kernRight = quotedbl;
layers = (
{
background = {
shapes = (
{
closed = 1;
nodes = (
(230,366,l),
(257,715,l),
(67,715,l),
(93,366,l)
);
}
);
};
layerId = "42F8977D-8264-44FF-8A66-A72BD7D3E619";
shapes = (
{
closed = 1;
nodes = (
(232,367,l),
(320,716,l),
(130,716,l),
(95,367,l)
);
}
);
width = 320;
},
{
background = {
shapes = (
{
closed = 1;
nodes = (
(115,452,l),
(121,715,l),
(87,715,l),
(94,452,l)
);
}
);
};
layerId = "1750929F-40DF-47FF-8B11-7621AD6711F1";
shapes = (
{
closed = 1;
nodes = (
(122,453,l),
(174,716,l),
(140,716,l),
(100,453,l)
);
}
);
width = 204;
},
{
layerId = "502A2428-35F6-4863-AD44-5AC44627310C";
shapes = (
{
closed = 1;
nodes = (
(154,430,l),
(216,716,l),
(137,716,l),
(100,430,l)
);
}
);
width = 236;
}
);
metricLeft = quotedbl;
metricRight = quotedbl;
unicode = 39;
}
{
glyphname = parenleft;
kernLeft = parenleft;
kernRight = parenleft;
layers = (
{
background = {
shapes = (
{
closed = 1;
nodes = (
(373,-270,l),
(286,-164,o),
(218,46,o),
(218,260,cs),
(218,476,o),
(287,682,o),
(373,791,c),
(231,791,l),
(124,706,o),
(34,475,o),
(34,260,cs),
(34,46,o),
(124,-185,o),
(231,-270,c)
);
}
);
};
layerId = "42F8977D-8264-44FF-8A66-A72BD7D3E619";
shapes = (
{
closed = 1;
nodes = (
(270,-201,l),
(235,-127,o),
(215,-22,o),
(215,94,cs),
(215,157,o),
(221,224,o),
(233,291,cs),
(267,484,o),
(359,671,o),
(454,786,c),
(294,797,l),
(186,694,o),
(85,494,o),
(52,305,cs),
(44,257,o),
(40,208,o),
(40,160,cs),
(40,20,o),
(73,-113,o),
(125,-190,c)
);
}
);
width = 389;
},
{
background = {
shapes = (
{
closed = 1;
nodes = (
(304,-270,l),
(201,-184,o),
(109,46,o),
(109,260,cs),
(109,475,o),
(201,705,o),
(304,791,c),
(272,791,l),
(165,706,o),
(75,475,o),
(75,260,cs),
(75,46,o),
(165,-185,o),
(272,-270,c)
);
}
);
};
layerId = "1750929F-40DF-47FF-8B11-7621AD6711F1";
shapes = (
{
closed = 1;
nodes = (
(195,-196,l),
(145,-120,o),
(113,6,o),
(113,140,cs),
(113,184,o),
(116,230,o),
(124,275,cs),
(156,455,o),
(259,645,o),
(362,747,c),
(327,749,l),
(222,648,o),
(123,456,o),
(92,277,cs),
(84,230,o),
(80,183,o),
(80,136,cs),
(80,4,o),
(111,-119,o),
(162,-194,c)
);
}
);
width = 332;
},
{
background = {
shapes = (
{
closed = 1;
nodes = (
(309,-270,l),
(206,-184,o),
(114,46,o),
(114,260,cs),
(114,475,o),
(206,705,o),
(309,791,c),
(277,791,l),
(170,706,o),
(80,475,o),
(80,260,cs),
(80,46,o),
(170,-185,o),
(277,-270,c)
);
}
);
};
layerId = "502A2428-35F6-4863-AD44-5AC44627310C";
shapes = (
{
closed = 1;
nodes = (
(213,-197,l),
(168,-120,o),
(140,1,o),
(140,132,cs),
(140,184,o),
(145,238,o),
(154,292,cs),
(187,478,o),
(287,672,o),
(388,780,c),
(319,784,l),
(212,679,o),
(111,482,o),
(78,298,cs),
(69,249,o),
(65,200,o),
(65,152,cs),
(65,14,o),
(98,-115,o),
(149,-193,c)
);
}
);
width = 338;
},
{
associatedMasterId = "1750929F-40DF-47FF-8B11-7621AD6711F1";
background = {
shapes = (
{
closed = 1;
nodes = (
(311,-270,l),
(208,-184,o),
(116,46,o),
(116,260,cs),
(116,475,o),
(208,705,o),
(311,791,c),
(279,791,l),
(172,706,o),
(82,475,o),
(82,260,cs),
(82,46,o),
(172,-185,o),
(279,-270,c)
);
}
);
};
layerId = "C0B57ACC-C2B8-49D2-83FB-154AB48A1EE5";
name = "Dec 22, 23 at 14:41";
shapes = (
{
closed = 1;
nodes = (
(301,-195,l),
(198,-119,o),
(105,86,o),
(105,276,cs),
(105,468,o),
(198,673,o),
(301,749,c),
(269,749,l),
(162,675,o),
(72,468,o),
(72,276,cs),
(72,86,o),
(162,-120,o),
(269,-195,c)
);
}
);
width = 338;
},
{
associatedMasterId = "502A2428-35F6-4863-AD44-5AC44627310C";
background = {
shapes = (
{
closed = 1;
nodes = (
(311,-270,l),
(208,-184,o),
(116,46,o),
(116,260,cs),
(116,475,o),
(208,705,o),
(311,791,c),
(279,791,l),
(172,706,o),
(82,475,o),
(82,260,cs),
(82,46,o),
(172,-185,o),
(279,-270,c)
);
}
);
};
layerId = "06AF999B-52D6-4929-8B87-CA1211C066D2";
name = "Dec 22, 23 at 14:49";
shapes = (
{
closed = 1;
nodes = (
(316,-195,l),
(218,-110,o),
(133,95,o),
(133,294,cs),
(133,491,o),
(218,697,o),
(316,783,c),
(254,783,l),
(146,704,o),
(56,490,o),
(56,294,cs),
(56,96,o),
(146,-117,o),
(254,-195,c)
);
}
);
width = 339;
},
{
associatedMasterId = "42F8977D-8264-44FF-8A66-A72BD7D3E619";
background = {
shapes = (
{
closed = 1;
nodes = (
(378,-270,l),
(291,-164,o),
(223,46,o),
(223,260,cs),
(223,476,o),
(292,682,o),
(378,791,c),
(236,791,l),
(129,706,o),
(39,475,o),
(39,260,cs),
(39,46,o),
(129,-185,o),
(236,-270,c)
);
}
);
};
layerId = "6FBD5FFE-6DE0-4DA3-86EE-4F67CC4F6CE3";
name = "Dec 22, 23 at 14:54";
shapes = (
{
closed = 1;
nodes = (
(378,-195,l),
(291,-96,o),
(223,98,o),
(223,298,cs),
(223,498,o),
(292,690,o),
(378,792,c),
(236,792,l),
(129,713,o),
(39,497,o),
(39,298,cs),
(39,98,o),
(129,-117,o),
(236,-195,c)
);
}
);
width = 384;
}
);
unicode = 40;
}
{
glyphname = parenright;
kernLeft = parenright;
kernRight = parenright;
layers = (
{
background = {
shapes = (
{
closed = 1;
nodes = (
(104,-270,l),
(212,-183,o),
(303,45,o),
(303,260,cs),
(303,476,o),
(212,704,o),
(104,791,c),
(-36,791,l),
(49,684,o),
(119,475,o),
(119,260,cs),
(119,48,o),
(49,-165,o),
(-36,-270,c)
);
}
);
};
layerId = "42F8977D-8264-44FF-8A66-A72BD7D3E619";
shapes = (
{
angle = 180;
pos = (384,596);
ref = parenleft;
}
);
width = 394;
},
{
background = {
shapes = (
{
closed = 1;
nodes = (
(42,-270,l),
(149,-183,o),
(240,45,o),
(240,260,cs),
(240,476,o),
(149,704,o),
(42,791,c),
(11,791,l),
(114,705,o),
(207,475,o),
(207,260,cs),
(207,46,o),
(114,-184,o),
(11,-270,c)
);
}
);
};
layerId = "1750929F-40DF-47FF-8B11-7621AD6711F1";
shapes = (
{
angle = 180;
pos = (337,554);
ref = parenleft;
}
);
width = 357;
},
{
layerId = "502A2428-35F6-4863-AD44-5AC44627310C";
shapes = (
{
angle = 180;
pos = (318,588);
ref = parenleft;
}
);
width = 343;
}
);
unicode = 41;
}
{
glyphname = asterisk;
kernLeft = asterisk;
kernRight = asterisk;
layers = (
{
background = {
shapes = (
{
closed = 1;
nodes = (
(259,396,l),
(331,279,l),
(444,362,l),
(355,468,l),
(488,499,l),
(446,632,l),
(318,578,l),
(329,715,l),
(189,715,l),
(201,578,l),
(73,632,l),
(30,499,l),
(164,468,l),
(74,362,l),
(187,279,l)
);
}
);
};
layerId = "42F8977D-8264-44FF-8A66-A72BD7D3E619";
shapes = (
{
closed = 1;
nodes = (
(272,397,l),
(322,280,l),
(447,360,l),
(375,469,l),
(513,501,l),
(492,633,l),
(355,579,l),
(390,716,l),
(245,716,l),
(238,579,l),
(118,633,l),
(55,501,l),
(185,469,l),
(77,364,l),
(177,280,l)
);
}
);
width = 523;
},
{
background = {
shapes = (
{
closed = 1;
nodes = (
(263,502,l),
(364,345,l),
(393,364,l),
(275,513,l),
(455,562,l),
(446,595,l),
(271,529,l),
(279,715,l),
(246,715,l),
(254,529,l),
(80,595,l),
(70,562,l),
(250,513,l),
(132,364,l),
(161,345,l)
);
}
);
};
layerId = "1750929F-40DF-47FF-8B11-7621AD6711F1";
shapes = (
{
closed = 1;
nodes = (
(279,500,l),
(352,346,l),
(384,365,l),
(294,511,l),
(481,563,l),
(476,596,l),
(291,531,l),
(332,716,l),
(298,716,l),
(274,531,l),
(110,596,l),
(95,563,l),
(267,514,l),
(123,365,l),
(148,346,l)
);
}
);
width = 521;
},
{
layerId = "502A2428-35F6-4863-AD44-5AC44627310C";
shapes = (
{
closed = 1;
nodes = (
(274,473,l),
(340,328,l),
(397,363,l),
(313,502,l),
(487,546,l),
(477,607,l),
(305,545,l),
(345,716,l),
(278,716,l),
(258,545,l),
(109,607,l),
(80,546,l),
(240,503,l),
(105,364,l),
(153,328,l)
);
}
);
width = 507;
}
);
unicode = 42;
}
{
glyphname = plus;
kernLeft = plus;
kernRight = plus;
layers = (
{
background = {
shapes = (
{
closed = 1;
nodes = (
(411,95,l),
(411,278,l),
(589,278,l),
(589,437,l),
(411,437,l),
(411,620,l),
(242,620,l),
(242,437,l),
(64,437,l),
(64,278,l),
(242,278,l),
(242,95,l)
);
}
);
};
layerId = "42F8977D-8264-44FF-8A66-A72BD7D3E619";
shapes = (
{
closed = 1;
nodes = (
(365,95,l),
(397,278,l),
(575,278,l),
(603,437,l),
(425,437,l),
(457,620,l),
(288,620,l),
(256,437,l),
(78,437,l),
(50,278,l),
(228,278,l),
(196,95,l)
);
}
);
width = 658;
},
{
background = {
shapes = (
{
closed = 1;
nodes = (
(319,149,l),
(319,343,l),
(511,343,l),
(511,373,l),
(319,373,l),
(319,567,l),
(285,567,l),
(285,373,l),
(93,373,l),
(93,343,l),
(285,343,l),
(285,149,l)
);
}
);
};
layerId = "1750929F-40DF-47FF-8B11-7621AD6711F1";
shapes = (
{
closed = 1;
nodes = (
(271,149,l),
(305,343,l),
(498,343,l),
(504,373,l),
(311,373,l),
(345,567,l),
(312,567,l),
(278,373,l),
(86,373,l),
(80,343,l),
(272,343,l),
(238,149,l)
);
}
);
width = 594;
},
{
layerId = "502A2428-35F6-4863-AD44-5AC44627310C";
shapes = (
{
closed = 1;
nodes = (
(296,134,l),
(329,325,l),
(518,325,l),
(530,391,l),
(341,391,l),
(374,582,l),
(303,582,l),
(270,391,l),
(82,391,l),
(70,325,l),
(258,325,l),
(225,134,l)
);
}
);
width = 605;
}
);
unicode = 43;
}
{
glyphname = comma;
kernLeft = comma;
kernRight = comma;
layers = (
{
background = {
shapes = (
{
closed = 1;
nodes = (
(206,-120,o),
(246,-50,o),
(246,64,cs),
(246,169,l),
(76,169,l),
(76,64,ls),
(76,10,o),
(52,-72,o),
(18,-132,c),
(117,-180,l)
);
}
);
};
layerId = "42F8977D-8264-44FF-8A66-A72BD7D3E619";
shapes = (
{
closed = 1;
nodes = (
(126,-124,o),
(173,-57,o),
(193,57,cs),
(213,169,l),
(43,169,l),
(25,71,ls),
(16,17,o),
(-26,-66,o),
(-70,-126,c),
(27,-184,l)
);
}
);
width = 318;
},
{
background = {
shapes = (
{
closed = 1;
nodes = (
(125,-124,o),
(136,-85,o),
(136,-24,cs),
(136,49,l),
(102,49,l),
(102,-24,ls),
(102,-79,o),
(94,-107,o),
(70,-144,c),
(90,-155,l)
);
}
);
};
layerId = "1750929F-40DF-47FF-8B11-7621AD6711F1";
shapes = (
{
closed = 1;
nodes = (
(31,-125,o),
(48,-86,o),
(58,-25,cs),
(72,49,l),
(38,49,l),
(25,-23,ls),
(15,-78,o),
(2,-106,o),
(-30,-143,c),
(-10,-156,l)
);
}
);
width = 212;
},
{
layerId = "502A2428-35F6-4863-AD44-5AC44627310C";
shapes = (
{
closed = 1;
nodes = (
(48,-125,o),
(75,-80,o),
(88,-3,cs),
(104,83,l),
(31,83,l),
(16,3,ls),
(7,-52,o),
(-15,-94,o),
(-50,-139,c),
(-9,-164,l)
);
}
);
width = 229;
}
);
unicode = 44;
}
{
glyphname = hyphen;
kernLeft = hyphen;
kernRight = hyphen;
layers = (
{
background = {
shapes = (
{
closed = 1;
nodes = (
(370,232,l),
(370,381,l),
(32,381,l),
(32,232,l)
);
}
);
};
layerId = "42F8977D-8264-44FF-8A66-A72BD7D3E619";
shapes = (
{
closed = 1;
nodes = (
(348,232,l),
(374,381,l),
(36,381,l),
(10,232,l)
);
}
);
width = 399;
},
{
background = {
shapes = (
{
closed = 1;
nodes = (
(365,292,l),
(365,321,l),
(113,321,l),
(113,292,l)
);
}
);
};
layerId = "1750929F-40DF-47FF-8B11-7621AD6711F1";
shapes = (
{
closed = 1;
nodes = (
(343,291,l),
(348,321,l),
(95,321,l),
(90,291,l)
);
}
);
width = 458;
},
{
layerId = "502A2428-35F6-4863-AD44-5AC44627310C";
shapes = (
{
closed = 1;
nodes = (
(333,274,l),
(345,339,l),
(67,339,l),
(55,274,l)
);
}
);
width = 430;
}
);
unicode = 45;
}
{
glyphname = slash;
kernLeft = slash;
kernRight = slash;
layers = (
{
background = {
shapes = (
{
closed = 1;
nodes = (
(185,0,l),
(418,715,l),
(248,715,l),
(13,0,l)
);
}
);
};
layerId = "42F8977D-8264-44FF-8A66-A72BD7D3E619";
shapes = (
{
closed = 1;
nodes = (
(122,0,l),
(481,716,l),
(311,716,l),
(-50,0,l)
);
}
);
width = 431;
},
{
background = {
shapes = (
{
closed = 1;
nodes = (
(78,0,l),
(312,715,l),
(277,715,l),
(44,0,l)
);
}
);
};
layerId = "1750929F-40DF-47FF-8B11-7621AD6711F1";
shapes = (
{
closed = 1;
nodes = (
(5,0,l),
(365,716,l),
(330,716,l),
(-30,0,l)
);
}
);
width = 330;
},
{
layerId = "502A2428-35F6-4863-AD44-5AC44627310C";
shapes = (
{
closed = 1;
nodes = (
(35,0,l),
(395,716,l),
(320,716,l),
(-40,0,l)
);
}
);
width = 355;
}
);
unicode = 47;
}
{
glyphname = zero;
kernLeft = zero;
kernRight = zero;
layers = (
{
background = {
shapes = (
{
closed = 1;
nodes = (
(569,-10,o),
(670,143,o),
(670,358,cs),
(670,572,o),
(569,727,o),
(354,727,cs),
(140,727,o),
(38,572,o),
(38,358,cs),
(38,143,o),
(140,-10,o),
(354,-10,cs)
);
},
{
closed = 1;
nodes = (
(284,155,o),
(243,211,o),
(243,358,cs),
(243,505,o),
(284,562,o),
(354,562,cs),
(424,562,o),
(464,505,o),
(464,358,cs),
(464,211,o),
(424,155,o),
(354,155,cs)
);
}
);
};
layerId = "42F8977D-8264-44FF-8A66-A72BD7D3E619";
shapes = (
{
closed = 1;
nodes = (
(500,-10,o),
(621,136,o),
(659,351,cs),
(665,385,o),
(668,418,o),
(668,449,cs),
(668,612,o),
(584,726,o),
(403,726,cs),
(189,726,o),
(67,579,o),
(29,365,cs),
(23,331,o),
(20,298,o),
(20,267,cs),
(20,103,o),
(105,-10,o),
(285,-10,cs)
);
},
{
closed = 1;
nodes = (
(253,156,o),
(223,183,o),
(223,257,cs),
(223,283,o),
(226,314,o),
(233,351,cs),
(259,497,o),
(315,560,o),
(384,560,cs),
(436,560,o),
(465,533,o),
(465,460,cs),
(465,434,o),
(462,403,o),
(455,365,cs),
(429,219,o),
(374,156,o),
(304,156,cs)
);
}
);
width = 683;
},
{
background = {
shapes = (
{
closed = 1;
nodes = (
(525,-10,o),
(626,143,o),
(626,358,cs),
(626,572,o),
(525,727,o),
(353,727,cs),
(182,727,o),
(80,572,o),
(80,358,cs),
(80,143,o),
(182,-10,o),
(353,-10,cs)
);
},
{
closed = 1;
nodes = (
(219,19,o),
(116,136,o),
(116,358,cs),
(116,579,o),
(219,697,o),
(353,697,cs),
(487,697,o),
(590,579,o),
(590,358,cs),
(590,136,o),
(487,19,o),
(353,19,cs)
);
}
);
};
layerId = "1750929F-40DF-47FF-8B11-7621AD6711F1";
shapes = (
{
closed = 1;
nodes = (
(461,-10,o),
(588,142,o),
(626,357,cs),
(632,393,o),
(636,428,o),
(636,461,cs),
(636,620,o),
(560,727,o),
(417,727,cs),
(246,727,o),
(118,573,o),
(80,359,cs),
(74,323,o),
(70,288,o),
(70,256,cs),
(70,96,o),
(147,-10,o),
(289,-10,cs)
);
},
{
closed = 1;
nodes = (
(182,21,o),
(107,100,o),
(107,253,cs),
(107,285,o),
(110,319,o),
(117,357,cs),
(156,578,o),
(280,696,o),
(414,696,cs),
(524,696,o),
(599,616,o),
(599,463,cs),
(599,431,o),
(596,397,o),
(589,359,cs),
(550,138,o),
(425,21,o),
(292,21,cs)
);
}
);
width = 706;
},
{
layerId = "502A2428-35F6-4863-AD44-5AC44627310C";
shapes = (
{
closed = 1;
nodes = (
(467,-10,o),
(594,140,o),
(632,355,cs),
(638,390,o),
(641,423,o),
(641,454,cs),
(641,616,o),
(561,726,o),
(407,726,cs),
(224,726,o),
(97,575,o),
(59,361,cs),
(53,326,o),
(50,293,o),
(50,262,cs),
(50,100,o),
(130,-10,o),
(283,-10,cs)
);
},
{
closed = 1;
nodes = (
(195,58,o),
(134,122,o),
(134,254,cs),
(134,284,o),
(137,318,o),
(144,355,cs),
(179,555,o),
(284,658,o),
(400,658,cs),
(495,658,o),
(557,594,o),
(557,461,cs),
(557,431,o),
(554,398,o),
(547,361,cs),
(512,161,o),
(407,58,o),
(290,58,cs)
);
}
);
width = 691;
}
);
unicode = 48;
}
{
glyphname = one;
kernLeft = one;
kernRight = one;
layers = (
{
background = {
shapes = (
{
closed = 1;
nodes = (
(371,0,l),
(371,715,l),
(231,715,l),
(6,605,l),
(70,463,l),
(167,511,l),
(167,0,l)
);
}
);
};
layerId = "42F8977D-8264-44FF-8A66-A72BD7D3E619";
shapes = (
{
closed = 1;
nodes = (
(298,0,l),
(424,716,l),
(284,716,l),
(40,606,l),
(101,464,l),
(181,496,l),
(94,0,l)
);
}
);
width = 434;
},
{
background = {
shapes = (
{
closed = 1;
nodes = (
(275,0,l),
(275,715,l),
(241,715,l),
(18,594,l),
(38,569,l),
(241,683,l),
(241,0,l)
);
}
);
};
layerId = "1750929F-40DF-47FF-8B11-7621AD6711F1";
shapes = (
{
closed = 1;
nodes = (
(212,0,l),
(338,716,l),
(304,716,l),
(70,591,l),
(85,565,l),
(298,682,l),
(178,0,l)
);
}
);
width = 398;
},
{
layerId = "502A2428-35F6-4863-AD44-5AC44627310C";
shapes = (
{
closed = 1;
nodes = (
(252,0,l),
(378,716,l),
(310,716,l),
(70,589,l),
(105,529,l),
(279,620,l),
(170,0,l)
);
}
);
width = 438;
}
);
unicode = 49;
}
{
glyphname = two;
kernLeft = two;
kernRight = two;
layers = (
{
background = {
shapes = (
{
closed = 1;
nodes = (
(591,0,l),
(591,165,l),
(307,165,l),
(435,270,ls),
(538,355,o),
(580,420,o),
(580,498,cs),
(580,645,o),
(470,727,o),
(306,727,cs),
(212,727,o),
(139,697,o),
(53,637,c),
(116,495,l),
(197,538,o),
(244,562,o),
(296,562,cs),
(343,562,o),
(374,538,o),
(374,498,cs),
(374,470,o),
(357,435,o),
(318,401,cs),
(53,165,l),
(53,0,l)
);
}
);
};
layerId = "42F8977D-8264-44FF-8A66-A72BD7D3E619";
shapes = (
{
closed = 1;
nodes = (
(516,0,l),
(545,165,l),
(284,165,l),
(413,265,ls),
(529,355,o),
(581,413,o),
(594,491,cs),
(597,507,o),
(598,521,o),
(598,536,cs),
(598,656,o),
(502,726,o),
(355,726,cs),
(261,726,o),
(184,701,o),
(88,641,c),
(155,491,l),
(223,534,o),
(276,560,o),
(328,560,cs),
(369,560,o),
(391,547,o),
(391,522,cs),
(391,513,o),
(391,510,o),
(390,505,cs),
(385,477,o),
(357,439,o),
(312,405,cs),
(9,165,l),
(-20,0,l)
);
}
);
width = 618;
},
{
background = {
shapes = (
{
closed = 1;
nodes = (
(535,0,l),
(535,30,l),
(129,30,l),
(444,335,ls),
(509,399,o),
(525,452,o),
(525,498,cs),
(525,635,o),
(424,727,o),
(293,727,cs),
(221,727,o),
(147,698,o),
(83,626,c),
(103,602,l),
(172,672,o),
(225,697,o),
(293,697,cs),
(407,697,o),
(488,615,o),
(488,498,cs),
(488,448,o),
(467,402,o),
(419,356,cs),
(83,30,l),
(83,0,l)
);
}
);
};
layerId = "1750929F-40DF-47FF-8B11-7621AD6711F1";
shapes = (
{
closed = 1;
nodes = (
(470,0,l),
(475,30,l),
(70,30,l),
(437,333,ls),
(501,386,o),
(543,459,o),
(551,505,cs),
(554,522,o),
(556,539,o),
(556,554,cs),
(556,664,o),
(480,726,o),
(365,726,cs),
(293,726,o),
(206,699,o),
(130,627,c),
(147,601,l),
(228,671,o),
(294,695,o),
(362,695,cs),
(461,695,o),
(518,644,o),
(518,552,cs),
(518,538,o),
(517,523,o),
(514,507,cs),
(505,456,o),
(474,403,o),
(418,357,cs),
(25,30,l),
(20,0,l)
);
}
);
width = 606;
},
{
layerId = "502A2428-35F6-4863-AD44-5AC44627310C";
shapes = (
{
closed = 1;
nodes = (
(488,0,l),
(500,68,l),
(131,68,l),
(437,315,ls),
(524,385,o),
(556,450,o),
(566,506,cs),
(569,522,o),
(570,537,o),
(570,552,cs),
(570,663,o),
(488,726,o),
(363,726,cs),
(284,726,o),
(203,700,o),
(119,631,c),
(158,568,l),
(240,631,o),
(293,658,o),
(354,658,cs),
(437,658,o),
(485,619,o),
(485,547,cs),
(485,536,o),
(484,524,o),
(482,512,cs),
(475,469,o),
(444,414,o),
(390,370,cs),
(22,69,l),
(10,0,l)
);
}
);
width = 620;
}
);
unicode = 50;
}
{
glyphname = three;
kernLeft = three;
kernRight = three;
layers = (
{
background = {
shapes = (
{
closed = 1;
nodes = (
(478,-10,o),
(594,83,o),
(594,207,cs),
(594,279,o),
(553,336,o),
(476,368,c),
(544,399,o),
(582,450,o),
(582,520,cs),
(582,645,o),
(466,727,o),
(304,727,cs),
(219,727,o),
(130,697,o),
(45,637,c),
(107,495,l),
(193,541,o),
(261,562,o),
(304,562,cs),
(346,562,o),
(377,544,o),
(377,504,cs),
(377,464,o),
(346,446,o),
(304,446,cs),
(191,446,l),
(191,292,l),
(304,292,ls),
(351,292,o),
(388,269,o),
(388,223,cs),
(388,177,o),
(351,155,o),
(304,155,cs),
(250,155,o),
(181,177,o),
(97,221,c),
(34,79,l),
(120,19,o),
(210,-10,o),
(304,-10,cs)
);
}
);
};
layerId = "42F8977D-8264-44FF-8A66-A72BD7D3E619";
shapes = (
{
closed = 1;
nodes = (
(403,-10,o),
(559,75,o),
(559,229,cs),
(559,288,o),
(523,337,o),
(462,365,c),
(554,399,o),
(602,460,o),
(602,545,cs),
(602,653,o),
(491,726,o),
(343,726,cs),
(258,726,o),
(185,699,o),
(90,639,c),
(176,510,l),
(231,548,o),
(273,560,o),
(316,560,cs),
(353,560,o),
(395,543,o),
(395,512,cs),
(395,466,o),
(349,446,o),
(303,446,cs),
(197,446,l),
(169,292,l),
(288,292,ls),
(329,292,o),
(357,280,o),
(357,246,cs),
(357,190,o),
(304,156,o),
(252,156,cs),
(198,156,o),
(155,167,o),
(99,205,c),
(-10,82,l),
(65,22,o),
(141,-10,o),
(245,-10,cs)
);
}
);
width = 632;
},
{
background = {
shapes = (
{
closed = 1;
nodes = (
(444,-10,o),
(540,71,o),
(540,186,cs),
(540,277,o),
(477,346,o),
(372,368,c),
(469,393,o),
(528,459,o),
(528,540,cs),
(528,645,o),
(434,727,o),
(293,727,cs),
(199,727,o),
(137,698,o),
(77,626,c),
(96,602,l),
(156,673,o),
(210,697,o),
(293,697,cs),
(409,697,o),
(492,640,o),
(492,540,cs),
(492,440,o),
(409,384,o),
(293,384,cs),
(223,384,l),
(223,354,l),
(293,354,ls),
(420,354,o),
(503,286,o),
(503,186,cs),
(503,88,o),
(420,19,o),
(293,19,cs),
(216,19,o),
(148,42,o),
(86,114,c),
(66,90,l),
(127,18,o),
(195,-10,o),
(293,-10,cs)
);
}
);
};
layerId = "1750929F-40DF-47FF-8B11-7621AD6711F1";
shapes = (
{
closed = 1;
nodes = (
(402,-10,o),
(512,89,o),
(512,217,cs),
(512,292,o),
(466,348,o),
(382,370,c),
(485,398,o),
(562,468,o),
(562,571,cs),
(562,660,o),
(490,726,o),
(364,726,cs),
(270,726,o),
(196,698,o),
(124,626,c),
(143,602,l),
(216,673,o),
(278,695,o),
(361,695,cs),
(464,695,o),
(526,653,o),
(526,574,cs),
(526,455,o),
(425,384,o),
(296,384,cs),
(228,384,l),
(222,354,l),
(293,354,ls),
(407,354,o),
(476,300,o),
(476,217,cs),
(476,101,o),
(374,21,o),
(242,21,cs),
(165,21,o),
(97,46,o),
(42,113,c),
(20,91,l),
(74,24,o),
(141,-10,o),
(239,-10,cs)
);
}
);
width = 622;
},
{
layerId = "502A2428-35F6-4863-AD44-5AC44627310C";
shapes = (
{
closed = 1;
nodes = (
(407,-10,o),
(527,83,o),
(527,219,cs),
(527,291,o),
(490,346,o),
(409,367,c),
(511,394,o),
(578,465,o),
(578,561,cs),
(578,657,o),
(494,726,o),
(360,726,cs),
(269,726,o),
(193,699,o),
(114,630,c),
(158,576,l),
(236,640,o),
(285,658,o),
(353,658,cs),
(438,658,o),
(492,624,o),
(492,556,cs),
(492,461,o),
(403,402,o),
(300,402,cs),
(221,402,l),
(209,337,l),
(294,337,ls),
(387,337,o),
(443,295,o),
(443,226,cs),
(443,127,o),
(363,58,o),
(263,58,cs),
(186,58,o),
(126,71,o),
(70,135,c),
(20,86,l),
(77,16,o),
(148,-10,o),
(256,-10,cs)
);
}
);
width = 638;
}
);
unicode = 51;
}
{
glyphname = four;
kernLeft = four;
kernRight = four;
layers = (
{
background = {
shapes = (
{
closed = 1;
nodes = (
(561,0,l),
(561,135,l),
(655,135,l),
(655,290,l),
(561,290,l),
(561,715,l),
(357,715,l),
(44,321,l),
(44,135,l),
(367,135,l),
(367,0,l)
);
},
{
closed = 1;
nodes = (
(367,497,l),
(367,290,l),
(210,290,l)
);
}
);
};
layerId = "42F8977D-8264-44FF-8A66-A72BD7D3E619";
shapes = (
{
closed = 1;
nodes = (
(488,0,l),
(512,135,l),
(606,135,l),
(633,290,l),
(539,290,l),
(614,716,l),
(410,716,l),
(27,321,l),
(-5,135,l),
(318,135,l),
(294,0,l)
);
},
{
closed = 1;
nodes = (
(374,457,l),
(345,290,l),
(218,290,l)
);
}
);
width = 673;
},
{
background = {
shapes = (
{
closed = 1;
nodes = (
(479,0,l),
(479,198,l),
(573,198,l),
(573,227,l),
(479,227,l),
(479,715,l),
(433,715,l),
(48,237,l),
(48,198,l),
(445,198,l),
(445,0,l)
);
},
{
closed = 1;
nodes = (
(445,680,l),
(445,227,l),
(81,227,l)
);
}
);
};
layerId = "1750929F-40DF-47FF-8B11-7621AD6711F1";
shapes = (
{
closed = 1;
nodes = (
(416,0,l),
(451,198,l),
(545,198,l),
(550,227,l),
(456,227,l),
(542,716,l),
(496,716,l),
(27,237,l),
(20,198,l),
(417,198,l),
(382,0,l)
);
},
{
closed = 1;
nodes = (
(502,681,l),
(422,227,l),
(58,227,l)
);
}
);
width = 620;
},
{
layerId = "502A2428-35F6-4863-AD44-5AC44627310C";
shapes = (
{
closed = 1;
nodes = (
(447,0,l),
(478,178,l),
(571,178,l),
(583,246,l),
(490,246,l),
(573,716,l),
(480,716,l),
(35,262,l),
(20,178,l),
(396,178,l),
(365,0,l)
);
},
{
closed = 1;
nodes = (
(474,615,l),
(408,246,l),
(115,246,l)
);
}
);
width = 648;
}
);
unicode = 52;
}
{
glyphname = five;
kernLeft = five;
kernRight = five;
layers = (
{
background = {
shapes = (
{
closed = 1;
nodes = (
(503,-10,o),
(611,100,o),
(611,241,cs),
(611,378,o),
(516,470,o),
(364,470,cs),
(323,470,o),
(286,459,o),
(257,442,c),
(281,562,l),
(557,562,l),
(557,727,l),
(129,727,l),
(54,302,l),
(224,273,l),
(238,300,o),
(265,321,o),
(311,321,cs),
(370,321,o),
(405,286,o),
(405,237,cs),
(405,190,o),
(370,155,o),
(311,155,cs),
(246,155,o),
(192,175,o),
(107,221,c),
(43,79,l),
(130,18,o),
(195,-10,o),
(321,-10,cs)
);
}
);
};
layerId = "42F8977D-8264-44FF-8A66-A72BD7D3E619";
shapes = (
{
closed = 1;
nodes = (
(434,-10,o),
(554,93,o),
(579,234,cs),
(582,250,o),
(583,265,o),
(583,280,cs),
(583,393,o),
(503,471,o),
(368,471,cs),
(327,471,o),
(289,462,o),
(257,445,c),
(307,561,l),
(583,561,l),
(610,716,l),
(182,716,l),
(34,302,l),
(201,267,l),
(220,294,o),
(255,321,o),
(301,321,cs),
(352,321,o),
(377,294,o),
(377,260,cs),
(377,254,o),
(376,248,o),
(375,241,cs),
(367,194,o),
(318,156,o),
(259,156,cs),
(194,156,o),
(155,174,o),
(98,216,c),
(0,83,l),
(60,30,o),
(126,-10,o),
(262,-10,cs)
);
}
);
width = 630;
},
{
background = {
shapes = (
{
closed = 1;
nodes = (
(450,-10,o),
(548,87,o),
(548,224,cs),
(548,361,o),
(450,459,o),
(301,459,cs),
(245,459,o),
(172,447,o),
(126,387,c),
(180,697,l),
(494,697,l),
(494,727,l),
(152,727,l),
(81,325,l),
(113,318,l),
(127,395,o),
(202,429,o),
(291,429,cs),
(429,429,o),
(512,354,o),
(512,224,cs),
(512,94,o),
(429,19,o),
(291,19,cs),
(210,19,o),
(150,42,o),
(88,114,c),
(66,90,l),
(126,19,o),
(194,-10,o),
(301,-10,cs)
);
}
);
};
layerId = "1750929F-40DF-47FF-8B11-7621AD6711F1";
shapes = (
{
closed = 1;
nodes = (
(396,-10,o),
(500,86,o),
(524,223,cs),
(527,239,o),
(528,254,o),
(528,269,cs),
(528,382,o),
(450,460,o),
(318,460,cs),
(262,460,o),
(187,448,o),
(131,388,c),
(238,686,l),
(563,686,l),
(568,716,l),
(215,716,l),
(81,342,l),
(115,335,l),
(169,394,o),
(213,429,o),
(312,429,cs),
(424,429,o),
(492,372,o),
(492,271,cs),
(492,257,o),
(491,241,o),
(488,225,cs),
(465,95,o),
(378,21,o),
(250,21,cs),
(169,21,o),
(95,44,o),
(44,113,c),
(20,91,l),
(69,23,o),
(143,-10,o),
(257,-10,cs)
);
}
);
width = 618;
},
{
layerId = "502A2428-35F6-4863-AD44-5AC44627310C";
shapes = (
{
closed = 1;
nodes = (
(410,-10,o),
(523,88,o),
(548,225,cs),
(551,241,o),
(552,257,o),
(552,272,cs),
(552,385,o),
(474,464,o),
(332,464,cs),
(276,464,o),
(222,451,o),
(179,417,c),
(265,648,l),
(580,648,l),
(592,716,l),
(213,716,l),
(76,330,l),
(147,315,l),
(185,365,o),
(234,396,o),
(321,396,cs),
(412,396,o),
(467,345,o),
(467,269,cs),
(467,257,o),
(465,244,o),
(463,230,cs),
(445,124,o),
(362,58,o),
(247,58,cs),
(176,58,o),
(114,85,o),
(74,139,c),
(20,90,l),
(74,21,o),
(137,-10,o),
(250,-10,cs)
);
}
);
width = 632;
}
);
unicode = 53;
}
{
glyphname = six;
kernLeft = zero;
kernRight = six;
layers = (
{
background = {
shapes = (
{
closed = 1;
nodes = (
(546,-10,o),
(653,100,o),
(653,241,cs),
(653,378,o),
(557,470,o),
(407,470,cs),
(345,470,o),
(290,446,o),
(258,412,c),
(265,529,o),
(348,562,o),
(417,562,cs),
(460,562,o),
(509,549,o),
(574,506,c),
(634,637,l),
(578,697,o),
(490,727,o),
(396,727,cs),
(170,727,o),
(53,562,o),
(53,315,cs),
(53,100,o),
(182,-10,o),
(364,-10,cs)
);
},
{
closed = 1;
nodes = (
(298,155,o),
(268,190,o),
(258,237,c),
(258,286,o),
(294,321,o),
(353,321,cs),
(412,321,o),
(448,286,o),
(448,237,cs),
(448,190,o),
(412,155,o),
(353,155,cs)
);
}
);
};
layerId = "42F8977D-8264-44FF-8A66-A72BD7D3E619";
shapes = (
{
closed = 1;
nodes = (
(499,-10,o),
(625,116,o),
(625,279,cs),
(625,392,o),
(544,471,o),
(411,471,cs),
(311,471,o),
(230,441,o),
(217,366,c),
(217,202,l),
(224,267,o),
(271,321,o),
(343,321,cs),
(394,321,o),
(419,300,o),
(419,263,cs),
(419,207,o),
(372,156,o),
(314,156,cs),
(273,156,o),
(227,170,o),
(227,247,cs),
(227,267,o),
(230,291,o),
(235,321,cs),
(269,516,o),
(355,560,o),
(449,560,cs),
(492,560,o),
(525,547,o),
(565,514,c),
(668,632,l),
(623,692,o),
(539,726,o),
(445,726,cs),
(146,726,o),
(30,439,o),
(30,243,cs),
(30,79,o),
(147,-10,o),
(305,-10,cs)
);
}
);
width = 678;
},
{
background = {
shapes = (
{
closed = 1;
nodes = (
(502,-10,o),
(600,87,o),
(600,224,cs),
(600,361,o),
(502,459,o),
(354,459,cs),
(235,459,o),
(156,410,o),
(122,325,c),
(122,579,o),
(217,697,o),
(371,697,cs),
(444,697,o),
(508,662,o),
(559,602,c),
(581,626,l),
(530,689,o),
(461,727,o),
(371,727,cs),
(172,727,o),
(86,562,o),
(86,315,cs),
(86,89,o),
(181,-10,o),
(354,-10,cs)
);
},
{
closed = 1;
nodes = (
(205,19,o),
(143,99,o),
(122,224,c),
(122,354,o),
(204,429,o),
(343,429,cs),
(481,429,o),
(564,354,o),
(564,224,cs),
(564,94,o),
(481,19,o),
(343,19,cs)
);
}
);
};
layerId = "1750929F-40DF-47FF-8B11-7621AD6711F1";
shapes = (
{
closed = 1;
nodes = (
(464,-10,o),
(580,124,o),
(580,268,cs),
(580,380,o),
(499,460,o),
(369,460,cs),
(239,460,o),
(118,375,o),
(100,275,c),
(96,200,l),
(121,344,o),
(249,429,o),
(359,429,cs),
(476,429,o),
(544,368,o),
(544,267,cs),
(544,132,o),
(437,21,o),
(294,21,cs),
(187,21,o),
(108,77,o),
(108,225,cs),
(108,254,o),
(111,286,o),
(117,322,cs),
(160,569,o),
(278,695,o),
(432,695,cs),
(505,695,o),
(561,664,o),
(602,604,c),
(626,626,l),
(586,689,o),
(525,726,o),
(426,726,cs),
(179,726,o),
(70,420,o),
(70,224,cs),
(70,67,o),
(155,-10,o),
(298,-10,cs)
);
}
);
width = 671;
},
{
background = {
shapes = (
{
closed = 1;
nodes = (
(503,-10,o),
(604,91,o),
(604,228,cs),
(604,365,o),
(509,465,o),
(348,465,cs),
(254,465,o),
(186,429,o),
(149,369,c),
(156,573,o),
(246,658,o),
(372,658,cs),
(437,658,o),
(495,629,o),
(550,574,c),
(585,629,l),
(530,692,o),
(457,727,o),
(366,727,cs),
(160,727,o),
(64,562,o),
(64,315,cs),
(64,92,o),
(170,-10,o),
(345,-10,cs)
);
},
{
closed = 1;
nodes = (
(226,58,o),
(166,126,o),
(149,227,c),
(149,336,o),
(224,396,o),
(334,396,cs),
(443,396,o),
(519,335,o),
(519,227,cs),
(519,121,o),
(443,58,o),
(334,58,cs)
);
}
);
};
layerId = "502A2428-35F6-4863-AD44-5AC44627310C";
shapes = (
{
closed = 1;
nodes = (
(467,-10,o),
(585,124,o),
(585,272,cs),
(585,385,o),
(506,465,o),
(364,465,cs),
(250,465,o),
(128,394,o),
(109,287,c),
(118,190,l),
(140,314,o),
(241,396,o),
(343,396,cs),
(439,396,o),
(499,351,o),
(499,266,cs),
(499,153,o),
(413,58,o),
(294,58,cs),
(192,58,o),
(130,108,o),
(130,219,cs),
(130,244,o),
(132,273,o),
(138,305,cs),
(175,514,o),
(265,658,o),
(414,658,cs),
(486,658,o),
(530,635,o),
(575,580,c),
(628,628,l),
(584,691,o),
(523,726,o),
(416,726,cs),
(177,726,o),
(50,453,o),
(50,232,cs),
(50,73,o),
(135,-10,o),
(294,-10,cs)
);
}
);
width = 668;
}
);
unicode = 54;
}
{
glyphname = seven;
kernLeft = seven;
kernRight = seven;
layers = (
{
anchors = (
{
name = center;
pos = (332,309);
}
);
background = {
shapes = (
{
closed = 1;
nodes = (
(305,0,l),
(574,574,l),
(574,715,l),
(35,715,l),
(35,551,l),
(376,551,l),
(111,0,l)
);
}
);
};
layerId = "42F8977D-8264-44FF-8A66-A72BD7D3E619";
shapes = (
{
closed = 1;
nodes = (
(241,0,l),
(599,559,l),
(627,716,l),
(88,716,l),
(59,551,l),
(382,551,l),
(20,0,l)
);
}
);
width = 597;
},
{
anchors = (
{
name = center;
pos = (283,345);
}
);
background = {
shapes = (
{
closed = 1;
nodes = (
(190,0,l),
(495,686,l),
(495,715,l),
(42,715,l),
(42,686,l),
(461,686,l),
(155,0,l)
);
}
);
};
layerId = "1750929F-40DF-47FF-8B11-7621AD6711F1";
shapes = (
{
closed = 1;
nodes = (
(127,0,l),
(553,686,l),
(558,716,l),
(105,716,l),
(100,686,l),
(518,686,l),
(90,0,l)
);
}
);
width = 548;
},
{
anchors = (
{
name = center;
pos = (318,336);
}
);
layerId = "502A2428-35F6-4863-AD44-5AC44627310C";
shapes = (
{
closed = 1;
nodes = (
(162,0,l),
(573,655,l),
(584,716,l),
(106,716,l),
(94,648,l),
(484,648,l),
(75,0,l)
);
}
);
width = 574;
}
);
unicode = 55;
}
{
glyphname = eight;
kernLeft = eight;
kernRight = B;
layers = (
{
background = {
shapes = (
{
closed = 1;
nodes = (
(543,-10,o),
(658,83,o),
(658,207,cs),
(658,279,o),
(619,336,o),
(538,368,c),
(609,399,o),
(647,450,o),
(647,520,cs),
(647,645,o),
(532,727,o),
(358,727,cs),
(185,727,o),
(69,645,o),
(69,520,cs),
(69,450,o),
(105,400,o),
(176,368,c),
(99,336,o),
(58,279,o),
(58,207,cs),
(58,83,o),
(173,-10,o),
(358,-10,cs)
);
},
{
closed = 1;
nodes = (
(299,143,o),
(263,176,o),
(263,222,cs),
(263,268,o),
(299,300,o),
(358,300,cs),
(417,300,o),
(453,268,o),
(453,222,cs),
(453,176,o),
(417,143,o),
(358,143,cs)
);
},
{
closed = 1;
nodes = (
(306,437,o),
(275,465,o),
(275,505,cs),
(275,545,o),
(306,572,o),
(358,572,cs),
(410,572,o),
(441,545,o),
(441,505,cs),
(441,465,o),
(410,437,o),
(358,437,cs)
);
}
);
};
layerId = "42F8977D-8264-44FF-8A66-A72BD7D3E619";
shapes = (
{
closed = 1;
nodes = (
(468,-10,o),
(623,81,o),
(623,229,cs),
(623,288,o),
(589,337,o),
(524,365,c),
(612,400,o),
(656,463,o),
(656,546,cs),
(656,653,o),
(559,726,o),
(407,726,cs),
(241,726,o),
(96,642,o),
(96,497,cs),
(96,441,o),
(126,398,o),
(174,371,c),
(77,338,o),
(20,273,o),
(20,181,cs),
(20,73,o),
(128,-10,o),
(296,-10,cs)
);
},
{
closed = 1;
nodes = (
(262,145,o),
(227,171,o),
(227,209,cs),
(227,259,o),
(273,300,o),
(339,300,cs),
(391,300,o),
(421,274,o),
(421,235,cs),
(421,185,o),
(380,145,o),
(314,145,cs)
);
},
{
closed = 1;
nodes = (
(314,437,o),
(289,458,o),
(289,489,cs),
(289,535,o),
(330,571,o),
(388,571,cs),
(434,571,o),
(458,551,o),
(458,521,cs),
(458,476,o),
(418,437,o),
(360,437,cs)
);
}
);
width = 686;
},
{
background = {
shapes = (
{
closed = 1;
nodes = (
(510,-10,o),
(597,71,o),
(597,186,cs),
(597,277,o),
(542,346,o),
(419,368,c),
(534,393,o),
(586,459,o),
(586,540,cs),
(586,645,o),
(498,727,o),
(340,727,cs),
(181,727,o),
(94,645,o),
(94,540,cs),
(94,459,o),
(146,393,o),
(261,368,c),
(138,346,o),
(83,277,o),
(83,186,cs),
(83,71,o),
(170,-10,o),
(340,-10,cs)
);
},
{
closed = 1;
nodes = (
(195,19,o),
(119,87,o),
(119,186,cs),
(119,287,o),
(195,354,o),
(340,354,cs),
(485,354,o),
(561,287,o),
(561,186,cs),
(561,87,o),
(485,19,o),
(340,19,cs)
);
},
{
closed = 1;
nodes = (
(206,384,o),
(130,440,o),
(130,540,cs),
(130,640,o),
(206,697,o),
(340,697,cs),
(474,697,o),
(550,640,o),
(550,540,cs),
(550,440,o),
(474,384,o),
(340,384,cs)
);
}
);
};
layerId = "1750929F-40DF-47FF-8B11-7621AD6711F1";
shapes = (
{
closed = 1;
nodes = (
(447,-10,o),
(569,76,o),
(569,220,cs),
(569,291,o),
(526,349,o),
(429,371,c),
(537,397,o),
(610,469,o),
(610,571,cs),
(610,660,o),
(537,726,o),
(399,726,cs),
(248,726,o),
(133,637,o),
(133,510,cs),
(133,446,o),
(170,395,o),
(253,371,c),
(129,346,o),
(50,266,o),
(50,155,cs),
(50,55,o),
(126,-10,o),
(278,-10,cs)
);
},
{
closed = 1;
nodes = (
(152,21,o),
(86,73,o),
(86,158,cs),
(86,280,o),
(197,354,o),
(340,354,cs),
(469,354,o),
(533,302,o),
(533,219,cs),
(533,92,o),
(422,21,o),
(281,21,cs)
);
},
{
closed = 1;
nodes = (
(230,384,o),
(169,427,o),
(169,506,cs),
(169,624,o),
(259,695,o),
(396,695,cs),
(511,695,o),
(574,653,o),
(574,574,cs),
(574,449,o),
(472,384,o),
(343,384,cs)
);
}
);
width = 680;
},
{
layerId = "502A2428-35F6-4863-AD44-5AC44627310C";
shapes = (
{
closed = 1;
nodes = (
(453,-10,o),
(585,77,o),
(585,223,cs),
(585,291,o),
(546,346,o),
(459,367,c),
(559,396,o),
(624,470,o),
(624,563,cs),
(624,658,o),
(542,726,o),
(401,726,cs),
(242,726,o),
(123,639,o),
(123,504,cs),
(123,443,o),
(157,393,o),
(229,369,c),
(89,339,o),
(40,244,o),
(40,162,cs),
(40,60,o),
(126,-10,o),
(282,-10,cs)
);
},
{
closed = 1;
nodes = (
(181,58,o),
(126,101,o),
(126,171,cs),
(126,270,o),
(219,336,o),
(341,336,cs),
(448,336,o),
(502,293,o),
(502,226,cs),
(502,131,o),
(422,58,o),
(289,58,cs)
);
},
{
closed = 1;
nodes = (
(254,402,o),
(203,437,o),
(203,502,cs),
(203,604,o),
(289,658,o),
(394,658,cs),
(487,658,o),
(542,624,o),
(542,558,cs),
(542,462,o),
(461,402,o),
(347,402,cs)
);
}
);
width = 679;
}
);
unicode = 56;
}
{
glyphname = nine;
kernLeft = nine;
kernRight = zero;
layers = (
{
background = {
shapes = (
{
closed = 1;
nodes = (
(510,-10,o),
(628,155,o),
(628,401,cs),
(628,615,o),
(499,727,o),
(317,727,cs),
(135,727,o),
(28,615,o),
(28,476,cs),
(28,339,o),
(123,247,o),
(274,247,cs),
(336,247,o),
(391,270,o),
(423,303,c),
(417,186,o),
(333,155,o),
(264,155,cs),
(221,155,o),
(172,167,o),
(107,210,c),
(47,79,l),
(103,19,o),
(190,-10,o),
(286,-10,cs)
);
},
{
closed = 1;
nodes = (
(269,394,o),
(233,431,o),
(233,478,cs),
(233,525,o),
(269,562,o),
(328,562,cs),
(383,562,o),
(414,525,o),
(423,478,c),
(423,431,o),
(387,394,o),
(328,394,cs)
);
}
);
};
layerId = "42F8977D-8264-44FF-8A66-A72BD7D3E619";
shapes = (
{
angle = 180;
pos = (663,716);
ref = six;
}
);
width = 663;
},
{
background = {
shapes = (
{
closed = 1;
nodes = (
(489,-10,o),
(575,155,o),
(575,401,cs),
(575,627,o),
(480,727,o),
(307,727,cs),
(156,727,o),
(61,629,o),
(61,492,cs),
(61,355,o),
(156,257,o),
(307,257,cs),
(426,257,o),
(505,305,o),
(539,390,c),
(539,135,o),
(444,19,o),
(290,19,cs),
(217,19,o),
(153,53,o),
(103,114,c),
(80,90,l),
(131,27,o),
(200,-10,o),
(290,-10,cs)
);
},
{
closed = 1;
nodes = (
(179,288,o),
(97,362,o),
(97,492,cs),
(97,621,o),
(179,697,o),
(318,697,cs),
(455,697,o),
(518,616,o),
(539,492,c),
(539,362,o),
(456,288,o),
(318,288,cs)
);
}
);
};
layerId = "1750929F-40DF-47FF-8B11-7621AD6711F1";
shapes = (
{
alignment = -1;
angle = 180;
pos = (666,716);
ref = six;
}
);
width = 661;
},
{
layerId = "502A2428-35F6-4863-AD44-5AC44627310C";
shapes = (
{
angle = 180;
pos = (658,716);
ref = six;
}
);
width = 658;
}
);
unicode = 57;
}
{
glyphname = colon;
kernLeft = colon;
kernRight = colon;
layers = (
{
background = {
shapes = (
{
closed = 1;
nodes = (
(219,331,o),
(261,372,o),
(261,431,cs),
(261,490,o),
(219,531,o),
(155,531,cs),
(90,531,o),
(48,490,o),
(48,431,cs),
(48,372,o),
(90,331,o),
(155,331,cs)
);
},
{
closed = 1;
nodes = (
(219,-10,o),
(261,31,o),
(261,90,cs),
(261,149,o),
(219,190,o),
(155,190,cs),
(90,190,o),
(48,149,o),
(48,90,cs),
(48,31,o),
(90,-10,o),
(155,-10,cs)
);
}
);
};
layerId = "42F8977D-8264-44FF-8A66-A72BD7D3E619";
shapes = (
{
closed = 1;
nodes = (
(225,313,o),
(272,361,o),
(272,425,cs),
(272,475,o),
(233,514,o),
(176,514,cs),
(94,514,o),
(57,458,o),
(57,402,cs),
(57,351,o),
(95,313,o),
(153,313,cs)
);
},
{
closed = 1;
nodes = (
(179,-10,o),
(215,50,o),
(215,101,cs),
(215,151,o),
(176,190,o),
(119,190,cs),
(33,190,o),
(0,128,o),
(0,79,cs),
(0,28,o),
(38,-10,o),
(96,-10,cs)
);
}
);
width = 307;
},
{
background = {
shapes = (
{
closed = 1;
nodes = (
(130,472,o),
(141,482,o),
(141,498,cs),
(141,515,o),
(130,525,o),
(113,525,cs),
(96,525,o),
(85,515,o),
(85,498,cs),
(85,482,o),
(96,472,o),
(113,472,cs)
);
},
{
closed = 1;
nodes = (
(130,-4,o),
(141,6,o),
(141,23,cs),
(141,39,o),
(130,49,o),
(113,49,cs),
(96,49,o),
(85,39,o),
(85,23,cs),
(85,6,o),
(96,-4,o),
(113,-4,cs)
);
}
);
};
layerId = "1750929F-40DF-47FF-8B11-7621AD6711F1";
shapes = (
{
closed = 1;
nodes = (
(140,456,o),
(154,468,o),
(154,488,cs),
(154,501,o),
(144,510,o),
(129,510,cs),
(110,510,o),
(96,498,o),
(96,478,cs),
(96,465,o),
(106,456,o),
(121,456,cs)
);
},
{
closed = 1;
nodes = (
(59,-4,o),
(72,7,o),
(72,27,cs),
(72,40,o),
(62,49,o),
(47,49,cs),
(28,49,o),
(15,38,o),
(15,18,cs),
(15,5,o),
(25,-4,o),
(40,-4,cs)
);
}
);
width = 204;
},
{
layerId = "502A2428-35F6-4863-AD44-5AC44627310C";
shapes = (
{
closed = 1;
nodes = (
(164,415,o),
(185,432,o),
(190,460,cs),
(195,486,o),
(175,510,o),
(146,510,cs),
(112,510,o),
(89,488,o),
(89,457,cs),
(89,433,o),
(107,415,o),
(135,415,cs)
);
},
{
closed = 1;
nodes = (
(92,-6,o),
(117,15,o),
(117,47,cs),
(117,71,o),
(98,89,o),
(72,89,cs),
(41,89,o),
(21,72,o),
(16,44,cs),
(11,17,o),
(29,-6,o),
(60,-6,cs)
);
}
);
width = 246;
}
);
unicode = 58;
}
{
glyphname = semicolon;
kernLeft = colon;
kernRight = colon;
layers = (
{
background = {
shapes = (
{
closed = 1;
nodes = (
(206,-120,o),
(246,-50,o),
(246,64,cs),
(246,169,l),
(76,169,l),
(76,64,ls),
(76,10,o),
(52,-72,o),
(18,-132,c),
(117,-180,l)
);
},
{
closed = 1;
nodes = (
(225,331,o),
(267,372,o),
(267,431,cs),
(267,490,o),
(225,531,o),
(161,531,cs),
(96,531,o),
(54,490,o),
(54,431,cs),
(54,372,o),
(96,331,o),
(161,331,cs)
);
}
);
};
layerId = "42F8977D-8264-44FF-8A66-A72BD7D3E619";
shapes = (
{
closed = 1;
nodes = (
(126,-124,o),
(173,-57,o),
(193,57,cs),
(213,169,l),
(43,169,l),
(25,71,ls),
(16,17,o),
(-26,-66,o),
(-70,-126,c),
(27,-184,l)
);
},
{
closed = 1;
nodes = (
(231,313,o),
(278,361,o),
(278,425,cs),
(278,475,o),
(239,514,o),
(182,514,cs),
(100,514,o),
(63,458,o),
(63,402,cs),
(63,351,o),
(101,313,o),
(159,313,cs)
);
}
);
width = 313;
},
{
background = {
shapes = (
{
closed = 1;
nodes = (
(120,-124,o),
(131,-85,o),
(131,-24,cs),
(131,49,l),
(97,49,l),
(97,-24,ls),
(97,-79,o),
(89,-107,o),
(65,-144,c),
(85,-155,l)
);
},
{
closed = 1;
nodes = (
(131,472,o),
(142,482,o),
(142,498,cs),
(142,515,o),
(131,525,o),
(114,525,cs),
(97,525,o),
(86,515,o),
(86,498,cs),
(86,482,o),
(97,472,o),
(114,472,cs)
);
}
);
};
layerId = "1750929F-40DF-47FF-8B11-7621AD6711F1";
shapes = (
{
closed = 1;
nodes = (
(26,-125,o),
(43,-86,o),
(53,-25,cs),
(67,49,l),
(33,49,l),
(20,-23,ls),
(10,-78,o),
(-3,-106,o),
(-35,-143,c),
(-15,-156,l)
);
},
{
closed = 1;
nodes = (
(141,456,o),
(155,468,o),
(155,488,cs),
(155,501,o),
(145,510,o),
(130,510,cs),
(111,510,o),
(97,498,o),
(97,478,cs),
(97,465,o),
(107,456,o),
(122,456,cs)
);
}
);
width = 205;
},
{
layerId = "502A2428-35F6-4863-AD44-5AC44627310C";
shapes = (
{
closed = 1;
nodes = (
(43,-125,o),
(70,-80,o),
(83,-3,cs),
(99,83,l),
(26,83,l),
(11,3,ls),
(2,-52,o),
(-20,-94,o),
(-55,-139,c),
(-14,-164,l)
);
},
{
closed = 1;
nodes = (
(152,415,o),
(173,432,o),
(178,460,cs),
(183,486,o),
(163,510,o),
(134,510,cs),
(100,510,o),
(77,488,o),
(77,457,cs),
(77,433,o),
(95,415,o),
(123,415,cs)
);
}
);
width = 234;
}
);
metricLeft = comma;
metricRight = colon;
unicode = 59;
}
{
glyphname = less;
kernLeft = plus;
kernRight = less;
layers = (
{
background = {
shapes = (
{
closed = 1;
nodes = (
(605,267,l),
(279,358,l),
(605,449,l),
(605,618,l),
(80,442,l),
(80,273,l),
(605,97,l)
);
}
);
};
layerId = "42F8977D-8264-44FF-8A66-A72BD7D3E619";
shapes = (
{
closed = 1;
nodes = (
(589,260,l),
(277,349,l),
(621,445,l),
(651,618,l),
(95,442,l),
(65,273,l),
(559,97,l)
);
}
);
width = 691;
},
{
background = {
shapes = (
{
closed = 1;
nodes = (
(506,198,l),
(127,358,l),
(506,519,l),
(506,553,l),
(88,373,l),
(88,343,l),
(506,163,l)
);
}
);
};
layerId = "1750929F-40DF-47FF-8B11-7621AD6711F1";
shapes = (
{
closed = 1;
nodes = (
(468,198,l),
(115,355,l),
(524,519,l),
(530,553,l),
(81,373,l),
(75,343,l),
(462,163,l)
);
}
);
width = 590;
},
{
layerId = "502A2428-35F6-4863-AD44-5AC44627310C";
shapes = (
{
closed = 1;
nodes = (
(489,213,l),
(147,351,l),
(539,499,l),
(552,571,l),
(72,392,l),
(60,323,l),
(476,144,l)
);
}
);
width = 592;
}
);
unicode = 60;
}
{
glyphname = equal;
kernLeft = equal;
kernRight = equal;
layers = (
{
background = {
shapes = (
{
closed = 1;
nodes = (
(659,401,l),
(659,560,l),
(134,560,l),
(134,401,l)
);
},
{
closed = 1;
nodes = (
(659,157,l),
(659,315,l),
(134,315,l),
(134,157,l)
);
}
);
};
layerId = "42F8977D-8264-44FF-8A66-A72BD7D3E619";
shapes = (
{
pos = (0,-122);
ref = minus;
},
{
pos = (44,123);
ref = minus;
}
);
width = 697;
},
{
background = {
shapes = (
{
closed = 1;
nodes = (
(599,459,l),
(599,488,l),
(181,488,l),
(181,459,l)
);
},
{
closed = 1;
nodes = (
(599,227,l),
(599,257,l),
(181,257,l),
(181,227,l)
);
}
);
};
layerId = "1750929F-40DF-47FF-8B11-7621AD6711F1";
shapes = (
{
pos = (-5,-115);
ref = minus;
},
{
pos = (35,116);
ref = minus;
}
);
width = 624;
},
{
layerId = "502A2428-35F6-4863-AD44-5AC44627310C";
shapes = (
{
pos = (0,-118);
ref = minus;
},
{
pos = (42,117);
ref = minus;
}
);
width = 647;
}
);
unicode = 61;
}
{
glyphname = greater;
kernLeft = greater;
kernRight = plus;
layers = (
{
background = {
shapes = (
{
closed = 1;
nodes = (
(611,273,l),
(611,442,l),
(86,618,l),
(86,438,l),
(394,358,l),
(86,277,l),
(86,97,l)
);
}
);
};
layerId = "42F8977D-8264-44FF-8A66-A72BD7D3E619";
shapes = (
{
closed = 1;
nodes = (
(596,273,l),
(626,442,l),
(132,618,l),
(100,448,l),
(395,368,l),
(72,277,l),
(40,97,l)
);
}
);
width = 691;
},
{
background = {
shapes = (
{
closed = 1;
nodes = (
(527,343,l),
(527,373,l),
(109,553,l),
(109,519,l),
(487,358,l),
(109,198,l),
(109,163,l)
);
}
);
};
layerId = "1750929F-40DF-47FF-8B11-7621AD6711F1";
shapes = (
{
closed = 1;
nodes = (
(514,343,l),
(520,373,l),
(133,553,l),
(127,520,l),
(483,361,l),
(71,198,l),
(65,163,l)
);
}
);
width = 585;
},
{
layerId = "502A2428-35F6-4863-AD44-5AC44627310C";
shapes = (
{
closed = 1;
nodes = (
(540,323,l),
(552,392,l),
(136,571,l),
(123,501,l),
(471,364,l),
(73,217,l),
(60,144,l)
);
}
);
width = 617;
}
);
unicode = 62;
}
{
glyphname = question;
kernLeft = question;
kernRight = question;
layers = (
{
background = {
shapes = (
{
closed = 1;
nodes = (
(333,253,l),
(333,266,ls),
(333,348,o),
(500,392,o),
(500,520,cs),
(500,652,o),
(392,727,o),
(242,727,cs),
(153,727,o),
(81,697,o),
(5,637,c),
(64,506,l),
(148,549,o),
(184,562,o),
(222,562,cs),
(263,562,o),
(295,538,o),
(295,498,cs),
(295,433,o),
(172,393,o),
(172,288,cs),
(172,253,l)
);
},
{
closed = 1;
nodes = (
(317,-10,o),
(359,31,o),
(359,90,cs),
(359,149,o),
(317,190,o),
(253,190,cs),
(188,190,o),
(146,149,o),
(146,90,cs),
(146,31,o),
(188,-10,o),
(253,-10,cs)
);
}
);
};
layerId = "42F8977D-8264-44FF-8A66-A72BD7D3E619";
shapes = (
{
closed = 1;
nodes = (
(314,253,l),
(316,259,ls),
(330,341,o),
(505,385,o),
(527,513,cs),
(529,526,o),
(531,539,o),
(531,551,cs),
(531,660,o),
(436,726,o),
(301,726,cs),
(212,726,o),
(137,701,o),
(50,641,c),
(97,488,l),
(157,534,o),
(219,561,o),
(264,561,cs),
(300,561,o),
(322,549,o),
(322,518,cs),
(322,514,o),
(322,510,o),
(321,505,cs),
(309,440,o),
(179,400,o),
(161,295,cs),
(153,253,l)
);
},
{
closed = 1;
nodes = (
(277,-10,o),
(313,50,o),
(313,101,cs),
(313,151,o),
(274,190,o),
(217,190,cs),
(131,190,o),
(98,128,o),
(98,79,cs),
(98,28,o),
(136,-10,o),
(194,-10,cs)
);
}
);
width = 516;
},
{
background = {
shapes = (
{
closed = 1;
nodes = (
(261,188,l),
(261,217,ls),
(261,329,o),
(452,412,o),
(452,520,cs),
(452,645,o),
(358,727,o),
(237,727,cs),
(165,727,o),
(97,698,o),
(43,626,c),
(61,602,l),
(118,670,o),
(174,697,o),
(237,697,cs),
(341,697,o),
(416,626,o),
(416,520,cs),
(416,424,o),
(233,340,o),
(233,217,cs),
(233,188,l)
);
},
{
closed = 1;
nodes = (
(265,-4,o),
(275,6,o),
(275,23,cs),
(275,39,o),
(265,49,o),
(248,49,cs),
(230,49,o),
(220,39,o),
(220,23,cs),
(220,6,o),
(230,-4,o),
(248,-4,cs)
);
}
);
};
layerId = "1750929F-40DF-47FF-8B11-7621AD6711F1";
shapes = (
{
closed = 1;
nodes = (
(221,188,l),
(226,216,ls),
(251,361,o),
(449,397,o),
(475,548,cs),
(477,561,o),
(479,573,o),
(479,585,cs),
(479,676,o),
(407,726,o),
(291,726,cs),
(208,726,o),
(138,688,o),
(80,625,c),
(96,598,l),
(146,654,o),
(215,695,o),
(288,695,cs),
(389,695,o),
(444,656,o),
(444,581,cs),
(443.993,570.991,o),
(443,560,o),
(441,549,cs),
(418,421,o),
(226,372,o),
(200,227,cs),
(193,188,l)
);
},
{
closed = 1;
nodes = (
(194,-4,o),
(207,7,o),
(207,27,cs),
(207,40,o),
(197,49,o),
(181,49,cs),
(162,49,o),
(150,38,o),
(150,18,cs),
(150,4,o),
(159,-4,o),
(174,-4,cs)
);
}
);
width = 494;
},
{
layerId = "502A2428-35F6-4863-AD44-5AC44627310C";
shapes = (
{
closed = 1;
nodes = (
(241,207,l),
(245,227,ls),
(264,337,o),
(460,391,o),
(484,530,cs),
(487,544,o),
(488,558,o),
(488,570,cs),
(488,671,o),
(410,726,o),
(288,726,cs),
(211,726,o),
(138,700,o),
(65,631,c),
(92,568,l),
(157,627,o),
(221,658,o),
(275,658,cs),
(352,658,o),
(403,626,o),
(403,559,cs),
(403,551,o),
(402,542,o),
(400,532,cs),
(382,430,o),
(206,369,o),
(184,246,cs),
(177,207,l)
);
},
{
closed = 1;
nodes = (
(208,-6,o),
(232,15,o),
(232,47,cs),
(232,71,o),
(214,89,o),
(186,89,cs),
(156,89,o),
(136,72,o),
(131,44,cs),
(126,17,o),
(144,-6,o),
(174,-6,cs)
);
}
);
width = 498;
}
);
unicode = 63;
}
{
glyphname = at;
kernLeft = C;
kernRight = D;
layers = (
{
background = {
shapes = (
{
closed = 1;
nodes = (
(559,-118,o),
(634,-98,o),
(694,-56,c),
(651,41,l),
(601,15,o),
(539,0,o),
(472,0,cs),
(277,0,o),
(153,119,o),
(153,304,cs),
(153,490,o),
(277,609,o),
(472,609,cs),
(663,609,o),
(791,502,o),
(791,347,cs),
(791,258,o),
(768,225,o),
(729,225,cs),
(696,225,o),
(674,254,o),
(674,300,cs),
(674,499,l),
(528,499,l),
(528,464,l),
(502,493,o),
(471,508,o),
(421,508,cs),
(319,508,o),
(247,429,o),
(247,304,cs),
(247,180,o),
(319,100,o),
(421,100,cs),
(487,100,o),
(536,130,o),
(567,188,c),
(598,130,o),
(648,100,o),
(715,100,cs),
(824,100,o),
(919,180,o),
(919,347,cs),
(919,561,o),
(742,727,o),
(472,727,cs),
(202,727,o),
(25,549,o),
(25,304,cs),
(25,60,o),
(202,-118,o),
(472,-118,cs)
);
},
{
closed = 1;
nodes = (
(422,225,o),
(393,256,o),
(393,304,cs),
(393,353,o),
(422,384,o),
(465,384,cs),
(507,384,o),
(533,353,o),
(533,304,cs),
(533,256,o),
(507,225,o),
(465,225,cs)
);
}
);
};
layerId = "42F8977D-8264-44FF-8A66-A72BD7D3E619";
shapes = (
{
closed = 1;
nodes = (
(481,-118,o),
(558,-102,o),
(625,-60,c),
(590,44,l),
(536,18,o),
(470,0,o),
(403,0,cs),
(232,0,o),
(146,96,o),
(146,241,cs),
(146,440,o),
(288,608,o),
(522,608,cs),
(693,608,o),
(794,529,o),
(794,402,cs),
(794,353,o),
(773,227,o),
(700,227,cs),
(674,227,o),
(660,240,o),
(660,268,cs),
(660,275,o),
(661,284,o),
(663,293,cs),
(700,504,l),
(554,504,l),
(542,459,l),
(521,488,o),
(492,513,o),
(442,513,cs),
(308,513,o),
(235,382,o),
(235,263,cs),
(235,165,o),
(294,100,o),
(382,100,cs),
(448,100,o),
(498,124,o),
(539,182,c),
(562,136,o),
(609,100,o),
(676,100,cs),
(838,100,o),
(922,258,o),
(922,404,cs),
(922,587,o),
(774,726,o),
(531,726,cs),
(233,726,o),
(20,521,o),
(20,240,cs),
(20,37,o),
(155,-118,o),
(394,-118,cs)
);
},
{
closed = 1;
nodes = (
(399,227,o),
(380,244,o),
(380,278,cs),
(380,335,o),
(426,382,o),
(475,382,cs),
(510,382,o),
(527,366,o),
(527,333,cs),
(527,276,o),
(484,227,o),
(436,227,cs)
);
}
);
width = 947;
},
{
background = {
shapes = (
{
closed = 1;
nodes = (
(575,-118,o),
(652,-98,o),
(711,-56,c),
(700,-30,l),
(644,-69,o),
(571,-88,o),
(490,-88,cs),
(257,-88,o),
(102,72,o),
(102,304,cs),
(102,537,o),
(257,697,o),
(490,697,cs),
(723,697,o),
(878,549,o),
(878,347,cs),
(878,203,o),
(830,131,o),
(744,131,cs),
(698,131,o),
(658,167,o),
(658,235,cs),
(658,499,l),
(626,499,l),
(626,409,l),
(604,469,o),
(556,508,o),
(479,508,cs),
(363,508,o),
(298,434,o),
(298,304,cs),
(298,175,o),
(363,100,o),
(479,100,cs),
(565,100,o),
(610,154,o),
(633,210,c),
(642,141,o),
(683,100,o),
(744,100,cs),
(848,100,o),
(912,191,o),
(912,347,cs),
(912,561,o),
(742,727,o),
(490,727,cs),
(239,727,o),
(68,549,o),
(68,304,cs),
(68,60,o),
(239,-118,o),
(490,-118,cs)
);
},
{
closed = 1;
nodes = (
(389,131,o),
(333,187,o),
(333,304,cs),
(333,422,o),
(389,478,o),
(479,478,cs),
(569,478,o),
(626,422,o),
(626,304,cs),
(626,187,o),
(569,131,o),
(479,131,cs)
);
}
);
};
layerId = "1750929F-40DF-47FF-8B11-7621AD6711F1";
shapes = (
{
closed = 1;
nodes = (
(482,-118,o),
(562,-99,o),
(629,-57,c),
(621,-29,l),
(558,-68,o),
(481,-87,o),
(400,-87,cs),
(196,-87,o),
(74,34,o),
(74,219,cs),
(74,477,o),
(271,695,o),
(541,695,cs),
(747,695,o),
(871,581,o),
(871,414,cs),
(871,327,o),
(830,126,o),
(692,126,cs),
(653,126,o),
(623,155,o),
(623,207,cs),
(623,215,o),
(624,224,o),
(626,234,cs),
(674,504,l),
(642,504,l),
(624,408,l),
(613,468,o),
(572,513,o),
(495,513,cs),
(344,513,o),
(271,379,o),
(271,250,cs),
(271,154,o),
(325,95,o),
(424,95,cs),
(510,95,o),
(564,153,o),
(596,209,c),
(594,142,o),
(628,95,o),
(689,95,cs),
(831,95,o),
(906,276,o),
(906,413,cs),
(906,594,o),
(769,726,o),
(544,726,cs),
(255,726,o),
(40,489,o),
(40,220,cs),
(40,21,o),
(175,-118,o),
(397,-118,cs)
);
},
{
closed = 1;
nodes = (
(356,126,o),
(306,170,o),
(306,257,cs),
(306,372,o),
(378,482,o),
(492,482,cs),
(561,482,o),
(611,439,o),
(611,353,cs),
(611,239,o),
(540,126,o),
(427,126,cs)
);
}
);
width = 951;
},
{
layerId = "502A2428-35F6-4863-AD44-5AC44627310C";
shapes = (
{
closed = 1;
nodes = (
(482,-117,o),
(560,-100,o),
(627,-58,c),
(605,5,l),
(542,-32,o),
(482,-48,o),
(402,-48,cs),
(211,-48,o),
(105,51,o),
(105,219,cs),
(105,439,o),
(255,657,o),
(531,657,cs),
(727,657,o),
(834,561,o),
(834,411,cs),
(834,331,o),
(798,158,o),
(694,158,cs),
(658,158,o),
(637,179,o),
(637,222,cs),
(637,231,o),
(638,240,o),
(640,251,cs),
(685,504,l),
(616,504,l),
(601,428,l),
(585,478,o),
(548,514,o),
(478,514,cs),
(339,514,o),
(250,388,o),
(250,259,cs),
(250,158,o),
(314,95,o),
(409,95,cs),
(491,95,o),
(543,143,o),
(579,202,c),
(583,141,o),
(620,95,o),
(683,95,cs),
(832,95,o),
(910,272,o),
(910,409,cs),
(910,591,o),
(768,726,o),
(538,726,cs),
(241,726,o),
(30,487,o),
(30,224,cs),
(30,23,o),
(169,-117,o),
(395,-117,cs)
);
},
{
closed = 1;
nodes = (
(369,155,o),
(330,190,o),
(330,260,cs),
(330,356,o),
(390,454,o),
(486,454,cs),
(545,454,o),
(585,419,o),
(585,348,cs),
(585,252,o),
(524,155,o),
(429,155,cs)
);
}
);
width = 945;
}
);
unicode = 64;
}
{
glyphname = A;
kernLeft = A;
kernRight = A;
layers = (
{
anchors = (
{
name = bottom;
pos = (310,0);
},
{
name = ogonek;
pos = (667,0);
},
{
name = top;
pos = (436,716);
}
);
background = {
shapes = (
{
closed = 1;
nodes = (
(146,0,l),
(305,506,l),
(463,0,l),
(684,0,l),
(418,716,l),
(192,716,l),
(-75,0,l)
);
},
{
closed = 1;
nodes = (
(523,103,l),
(523,269,l),
(90,269,l),
(90,103,l)
);
}
);
};
layerId = "42F8977D-8264-44FF-8A66-A72BD7D3E619";
shapes = (
{
closed = 1;
nodes = (
(151,0,l),
(395,504,l),
(457,0,l),
(667,0,l),
(542,716,l),
(323,716,l),
(-70,0,l)
);
},
{
closed = 1;
nodes = (
(528,103,l),
(556,269,l),
(136,269,l),
(108,103,l)
);
}
);
width = 722;
},
{
anchors = (
{
name = bottom;
pos = (282,0);
},
{
name = ogonek;
pos = (597,0);
},
{
name = top;
pos = (406,716);
}
);
background = {
shapes = (
{
closed = 1;
nodes = (
(56,0,l),
(134,183,l),
(556,183,l),
(634,0,l),
(671,0,l),
(362,715,l),
(328,715,l),
(19,0,l)
);
},
{
closed = 1;
nodes = (
(345,677,l),
(542,215,l),
(148,215,l)
);
}
);
};
layerId = "1750929F-40DF-47FF-8B11-7621AD6711F1";
shapes = (
{
closed = 1;
nodes = (
(-6,0,l),
(400,674,l),
(561,0,l),
(597,0,l),
(423,716,l),
(389,716,l),
(-45,0,l)
);
},
{
closed = 1;
nodes = (
(528,183,l),
(528,215,l),
(95,215,l),
(95,183,l)
);
}
);
width = 677;
},
{
anchors = (
{
name = bottom;
pos = (293,0);
},
{
name = ogonek;
pos = (608,0);
},
{
name = top;
pos = (420,716);
}
);
background = {
shapes = (
{
closed = 1;
nodes = (
(36,0,l),
(288,629,l),
(539,0,l),
(628,0,l),
(333,716,l),
(243,716,l),
(-53,0,l)
);
},
{
closed = 1;
nodes = (
(504,160,l),
(504,232,l),
(71,232,l),
(71,160,l)
);
}
);
};
layerId = "502A2428-35F6-4863-AD44-5AC44627310C";
shapes = (
{
closed = 1;
nodes = (
(49,0,l),
(405,628,l),
(521,0,l),
(608,0,l),
(462,716,l),
(375,716,l),
(-45,0,l)
);
},
{
closed = 1;
nodes = (
(516,160,l),
(529,232,l),
(113,232,l),
(101,160,l)
);
}
);
width = 688;
},
{
anchors = (
{
name = bottom;
pos = (286,0);
},
{
name = ogonek;
pos = (612,0);
},
{
name = top;
pos = (412,716);
}
);
associatedMasterId = "1750929F-40DF-47FF-8B11-7621AD6711F1";
background = {
shapes = (
{
closed = 1;
nodes = (
(60,0,l),
(138,183,l),
(560,183,l),
(638,0,l),
(675,0,l),
(366,715,l),
(332,715,l),
(23,0,l)
);
},
{
closed = 1;
nodes = (
(349,677,l),
(546,215,l),
(152,215,l)
);
}
);
};
layerId = "D2232AA6-C0F3-4C26-93CC-69F9A7EDE508";
name = "May 22, 24 at 22:16";
shapes = (
{
closed = 1;
nodes = (
(-1,0,l),
(407,675,l),
(577,0,l),
(612,0,l),
(429,716,l),
(395,716,l),
(-40,0,l)
);
},
{
closed = 1;
nodes = (
(536,183,l),
(542,215,l),
(109,215,l),
(103,183,l)
);
}
);
width = 692;
},
{
anchors = (
{
name = bottom;
pos = (301,0);
},
{
name = ogonek;
pos = (641,0);
},
{
name = top;
pos = (427,716);
}
);
associatedMasterId = "502A2428-35F6-4863-AD44-5AC44627310C";
layerId = "E08B5836-EA80-4272-AD4F-1F7C755BE42F";
name = "May 22, 24 at 22:24";
shapes = (
{
closed = 1;
nodes = (
(54,0,l),
(415,623,l),
(553,0,l),
(641,0,l),
(472,716,l),
(382,716,l),
(-40,0,l)
);
},
{
closed = 1;
nodes = (
(545,160,l),
(558,234,l),
(125,234,l),
(112,160,l)
);
}
);
width = 721;
},
{
anchors = (
{
name = bottom;
pos = (305,0);
},
{
name = ogonek;
pos = (683,0);
},
{
name = top;
pos = (431,716);
}
);
associatedMasterId = "42F8977D-8264-44FF-8A66-A72BD7D3E619";
layerId = "42E075AB-848D-471B-881C-371FCD534D37";
name = "May 22, 24 at 22:29";
shapes = (
{
closed = 1;
nodes = (
(153,0,l),
(397,471,l),
(468,0,l),
(684,0,l),
(544,716,l),
(318,716,l),
(-75,0,l)
);
},
{
closed = 1;
nodes = (
(541,103,l),
(570,279,l),
(137,279,l),
(108,103,l)
);
}
);
width = 734;
}
);
unicode = 65;
}
{
glyphname = B;
kernLeft = B;
kernRight = B;
layers = (
{
anchors = (
{
name = bottom;
pos = (278,0);
},
{
name = center;
pos = (341,358);
},
{
name = top;
pos = (404,716);
}
);
background = {
shapes = (
{
closed = 1;
nodes = (
(391,0,ls),
(563,0,o),
(653,48,o),
(653,188,cs),
(653,301,o),
(595,350,o),
(498,368,c),
(578,389,o),
(632,429,o),
(632,538,cs),
(632,679,o),
(542,715,o),
(391,715,cs),
(83,715,l),
(83,0,l)
);
},
{
closed = 1;
nodes = (
(117,354,l),
(381,354,ls),
(557,354,o),
(617,305,o),
(617,192,cs),
(617,81,o),
(557,32,o),
(381,32,cs),
(117,32,l)
);
},
{
closed = 1;
nodes = (
(117,684,l),
(381,684,ls),
(535,684,o),
(595,646,o),
(595,533,cs),
(595,422,o),
(535,384,o),
(381,384,cs),
(117,384,l)
);
}
);
};
layerId = "1750929F-40DF-47FF-8B11-7621AD6711F1";
name = "Thin Italic";
shapes = (
{
closed = 1;
nodes = (
(320,0,ls),
(502,0,o),
(614,66,o),
(614,234,cs),
(614,314,o),
(565,354,o),
(486,369,c),
(625,408,o),
(655,509,o),
(655,579,cs),
(655,670,o),
(584,716,o),
(450,716,cs),
(161,716,l),
(35,0,l)
);
},
{
closed = 1;
nodes = (
(131,354,l),
(373,354,ls),
(524,354,o),
(577,312,o),
(577,233,cs),
(577,86,o),
(483,32,o),
(313,32,cs),
(75,32,l)
);
},
{
closed = 1;
nodes = (
(190,684,l),
(427,684,ls),
(561,684,o),
(618,653,o),
(618,575,cs),
(618,446,o),
(523,384,o),
(372,384,cs),
(137,384,l)
);
}
);
visible = 1;
width = 710;
},
{
anchors = (
{
name = bottom;
pos = (284,0);
},
{
name = center;
pos = (347,358);
},
{
name = top;
pos = (410,716);
}
);
associatedMasterId = "502A2428-35F6-4863-AD44-5AC44627310C";
layerId = "949EB9DC-A684-43E7-AE0E-747A10E2F820";
name = "May 22, 24 at 22:39";
shapes = (
{
closed = 1;
nodes = (
(316,0,ls),
(494,0,o),
(612,75,o),
(612,243,cs),
(612,311,o),
(577,351,o),
(501,370,c),
(616,399,o),
(647,482,o),
(647,567,cs),
(647,667,o),
(572,716,o),
(433,716,cs),
(136,716,l),
(15,0,l)
);
},
{
closed = 1;
nodes = (
(151,333,l),
(364,333,ls),
(487,333,o),
(531,306,o),
(531,226,cs),
(531,114,o),
(446,74,o),
(311,74,cs),
(107,74,l)
);
},
{
closed = 1;
nodes = (
(203,642,l),
(413,642,ls),
(521,642,o),
(564,616,o),
(564,546,cs),
(564,441,o),
(493,405,o),
(372,405,cs),
(162,405,l)
);
}
);
width = 699;
},
{
anchors = (
{
name = bottom;
pos = (277,0);
},
{
name = center;
pos = (340,358);
},
{
name = top;
pos = (403,716);
}
);
layerId = "502A2428-35F6-4863-AD44-5AC44627310C";
name = Italic;
shapes = (
{
closed = 1;
nodes = (
(307,0,ls),
(493,0,o),
(615,75,o),
(615,243,cs),
(615,311,o),
(579,351,o),
(500,370,c),
(620,399,o),
(652,482,o),
(652,567,cs),
(652,667,o),
(574,716,o),
(429,716,cs),
(141,716,l),
(15,0,l)
);
},
{
closed = 1;
nodes = (
(156,333,l),
(357,333,ls),
(485,333,o),
(531,306,o),
(531,226,cs),
(531,114,o),
(443,74,o),
(302,74,cs),
(110,74,l)
);
},
{
closed = 1;
nodes = (
(210,642,l),
(408,642,ls),
(521,642,o),
(566,616,o),
(566,546,cs),
(566,441,o),
(492,405,o),
(365,405,cs),
(168,405,l)
);
}
);
width = 697;
},
{
anchors = (
{
name = bottom;
pos = (291,0);
},
{
name = center;
pos = (354,358);
},
{
name = top;
pos = (417,716);
}
);
associatedMasterId = "42F8977D-8264-44FF-8A66-A72BD7D3E619";
background = {
shapes = (
{
closed = 1;
nodes = (
(436,0,ls),
(640,0,o),
(728,64,o),
(728,194,cs),
(728,284,o),
(686,340,o),
(591,368,c),
(676,399,o),
(708,459,o),
(708,532,cs),
(708,662,o),
(614,715,o),
(436,715,cs),
(73,715,l),
(73,0,l)
);
},
{
closed = 1;
nodes = (
(277,296,l),
(414,296,ls),
(495,296,o),
(523,275,o),
(523,227,cs),
(523,179,o),
(495,159,o),
(414,159,cs),
(277,159,l)
);
},
{
closed = 1;
nodes = (
(277,558,l),
(414,558,ls),
(484,558,o),
(501,537,o),
(501,499,cs),
(501,462,o),
(484,441,o),
(414,441,cs),
(277,441,l)
);
}
);
};
layerId = "AA346333-70EE-423B-95D2-07F8C54004B2";
name = "May 22, 24 at 22:43";
shapes = (
{
closed = 1;
nodes = (
(328,0,ls),
(502,0,o),
(642,58,o),
(642,226,cs),
(642,295,o),
(604,342,o),
(531,367,c),
(629,397,o),
(681,469,o),
(681,564,cs),
(681,668,o),
(594,716,o),
(438,716,cs),
(122,716,l),
(0,0,l)
);
},
{
closed = 1;
nodes = (
(248,295,l),
(358,295,ls),
(426,295,o),
(448,277,o),
(448,243,cs),
(448,195,o),
(411,159,o),
(323,159,cs),
(225,159,l)
);
},
{
closed = 1;
nodes = (
(293,558,l),
(403,558,ls),
(459,558,o),
(474,539,o),
(474,513,cs),
(474,473,o),
(447,441,o),
(372,441,cs),
(274,441,l)
);
}
);
width = 700;
},
{
anchors = (
{
name = bottom;
pos = (281,0);
},
{
name = center;
pos = (344,358);
},
{
name = top;
pos = (407,716);
}
);
background = {
shapes = (
{
closed = 1;
nodes = (
(426,0,ls),
(630,0,o),
(718,64,o),
(718,194,cs),
(718,284,o),
(676,340,o),
(581,368,c),
(666,399,o),
(698,459,o),
(698,532,cs),
(698,662,o),
(604,715,o),
(426,715,cs),
(63,715,l),
(63,0,l)
);
},
{
closed = 1;
nodes = (
(267,296,l),
(404,296,ls),
(485,296,o),
(513,275,o),
(513,227,cs),
(513,179,o),
(485,159,o),
(404,159,cs),
(267,159,l)
);
},
{
closed = 1;
nodes = (
(267,558,l),
(404,558,ls),
(474,558,o),
(491,537,o),
(491,499,cs),
(491,462,o),
(474,441,o),
(404,441,cs),
(267,441,l)
);
}
);
};
layerId = "42F8977D-8264-44FF-8A66-A72BD7D3E619";
name = "Black Italic";
shapes = (
{
closed = 1;
nodes = (
(318,0,ls),
(498,0,o),
(642,58,o),
(642,226,cs),
(642,295,o),
(603,342,o),
(527,367,c),
(628,397,o),
(682,469,o),
(682,564,cs),
(682,668,o),
(592,716,o),
(432,716,cs),
(126,716,l),
(0,0,l)
);
},
{
closed = 1;
nodes = (
(256,295,l),
(349,295,ls),
(419,295,o),
(442,277,o),
(442,243,cs),
(442,195,o),
(404,159,o),
(313,159,cs),
(232,159,l)
);
},
{
closed = 1;
nodes = (
(302,558,l),
(395,558,ls),
(453,558,o),
(469,539,o),
(469,513,cs),
(469,473,o),
(441,441,o),
(363,441,cs),
(282,441,l)
);
}
);
width = 702;
}
);
unicode = 66;
}
{
glyphname = C;
kernLeft = C;
kernRight = C;
layers = (
{
anchors = (
{
name = bottom;
pos = (321,0);
},
{
name = top;
pos = (460,716);
}
);
background = {
shapes = (
{
closed = 1;
nodes = (
(504,-10,o),
(580,20,o),
(640,75,c),
(619,101,l),
(563,50,o),
(492,21,o),
(402,21,cs),
(207,21,o),
(91,158,o),
(91,358,cs),
(91,559,o),
(207,695,o),
(402,695,cs),
(492,695,o),
(563,665,o),
(619,614,c),
(640,641,l),
(580,696,o),
(504,727,o),
(402,727,cs),
(184,727,o),
(55,572,o),
(55,358,cs),
(55,143,o),
(184,-10,o),
(402,-10,cs)
);
}
);
};
layerId = "1750929F-40DF-47FF-8B11-7621AD6711F1";
name = "Thin Italic";
shapes = (
{
closed = 1;
nodes = (
(440,-10,o),
(516,19,o),
(586,74,c),
(568,102,l),
(503,51,o),
(432,22,o),
(342,22,cs),
(175,22,o),
(88,121,o),
(88,276,cs),
(88,494,o),
(227,694,o),
(462,694,cs),
(552,694,o),
(613,666,o),
(660,615,c),
(684,640,l),
(634,695,o),
(568,726,o),
(466,726,cs),
(206,726,o),
(50,503,o),
(50,275,cs),
(50,105,o),
(150,-10,o),
(338,-10,cs)
);
}
);
width = 704;
},
{
anchors = (
{
name = bottom;
pos = (325,0);
},
{
name = top;
pos = (474,716);
}
);
associatedMasterId = "1750929F-40DF-47FF-8B11-7621AD6711F1";
background = {
shapes = (
{
closed = 1;
nodes = (
(512,-10,o),
(588,20,o),
(648,75,c),
(627,101,l),
(571,50,o),
(500,21,o),
(410,21,cs),
(215,21,o),
(99,158,o),
(99,358,cs),
(99,559,o),
(215,695,o),
(410,695,cs),
(500,695,o),
(571,665,o),
(627,614,c),
(648,641,l),
(588,696,o),
(512,727,o),
(410,727,cs),
(192,727,o),
(63,572,o),
(63,358,cs),
(63,143,o),
(192,-10,o),
(410,-10,cs)
);
}
);
};
layerId = "13CAFDCD-7F58-4158-B2FA-6AA036C993EC";
name = "May 22, 24 at 23:07";
shapes = (
{
closed = 1;
nodes = (
(448,-10,o),
(529,19,o),
(599,74,c),
(581,102,l),
(516,51,o),
(440,22,o),
(350,22,cs),
(183,22,o),
(93,121,o),
(93,276,cs),
(93,494,o),
(235,694,o),
(470,694,cs),
(560,694,o),
(626,666,o),
(673,615,c),
(697,640,l),
(647,695,o),
(576,726,o),
(474,726,cs),
(214,726,o),
(55,503,o),
(55,275,cs),
(55,105,o),
(158,-10,o),
(346,-10,cs)
);
}
);
width = 717;
},
{
anchors = (
{
name = bottom;
pos = (316,0);
},
{
name = top;
pos = (448,716);
}
);
layerId = "502A2428-35F6-4863-AD44-5AC44627310C";
name = Italic;
shapes = (
{
closed = 1;
nodes = (
(438,-10,o),
(509,16,o),
(585,71,c),
(543,135,l),
(478,84,o),
(427,63,o),
(345,63,cs),
(202,63,o),
(130,148,o),
(130,283,cs),
(130,477,o),
(255,654,o),
(455,654,cs),
(531,654,o),
(575,635,o),
(625,587,c),
(680,642,l),
(625,697,o),
(563,727,o),
(463,727,cs),
(204,727,o),
(45,514,o),
(45,283,cs),
(45,109,o),
(146,-10,o),
(338,-10,cs)
);
}
);
width = 690;
},
{
anchors = (
{
name = bottom;
pos = (330,0);
},
{
name = top;
pos = (465,716);
}
);
associatedMasterId = "502A2428-35F6-4863-AD44-5AC44627310C";
layerId = "145600C3-6A3D-4D2B-BB51-D17693D24013";
name = "May 22, 24 at 23:09";
shapes = (
{
closed = 1;
nodes = (
(455,-10,o),
(536,16,o),
(612,71,c),
(570,135,l),
(505,84,o),
(444,63,o),
(362,63,cs),
(216,63,o),
(135,148,o),
(135,283,cs),
(135,477,o),
(269,654,o),
(472,654,cs),
(554,654,o),
(604,635,o),
(654,587,c),
(709,642,l),
(654,697,o),
(580,727,o),
(480,727,cs),
(218,727,o),
(50,514,o),
(50,283,cs),
(50,109,o),
(160,-10,o),
(355,-10,cs)
);
}
);
width = 719;
},
{
anchors = (
{
name = bottom;
pos = (317,0);
},
{
name = top;
pos = (453,716);
}
);
background = {
shapes = (
{
closed = 1;
nodes = (
(502,-10,o),
(583,10,o),
(669,66,c),
(601,218,l),
(527,180,o),
(469,165,o),
(409,165,cs),
(301,165,o),
(224,243,o),
(224,358,cs),
(224,474,o),
(301,551,o),
(409,551,cs),
(469,551,o),
(527,536,o),
(601,498,c),
(669,651,l),
(583,705,o),
(502,727,o),
(409,727,cs),
(174,727,o),
(19,572,o),
(19,358,cs),
(19,143,o),
(173,-10,o),
(409,-10,cs)
);
}
);
};
layerId = "42F8977D-8264-44FF-8A66-A72BD7D3E619";
name = "Black Italic";
shapes = (
{
closed = 1;
nodes = (
(433,-10,o),
(507,6,o),
(603,62,c),
(532,217,l),
(454,169,o),
(417,165,o),
(377,165,cs),
(283,165,o),
(221,218,o),
(221,308,cs),
(221,436,o),
(306,551,o),
(438,551,cs),
(489,551,o),
(537,538,o),
(591,501,c),
(696,643,l),
(632,694,o),
(551,726,o),
(458,726,cs),
(197,726,o),
(15,538,o),
(15,294,cs),
(15,116,o),
(131,-10,o),
(340,-10,cs)
);
}
);
width = 671;
},
{
anchors = (
{
name = bottom;
pos = (314,0);
},
{
name = top;
pos = (469,716);
}
);
associatedMasterId = "42F8977D-8264-44FF-8A66-A72BD7D3E619";
background = {
shapes = (
{
closed = 1;
nodes = (
(513,-10,o),
(594,10,o),
(680,66,c),
(612,218,l),
(538,180,o),
(480,165,o),
(420,165,cs),
(312,165,o),
(235,243,o),
(235,358,cs),
(235,474,o),
(312,551,o),
(420,551,cs),
(480,551,o),
(538,536,o),
(612,498,c),
(680,651,l),
(594,705,o),
(513,727,o),
(420,727,cs),
(185,727,o),
(30,572,o),
(30,358,cs),
(30,143,o),
(184,-10,o),
(420,-10,cs)
);
}
);
};
layerId = "90EDAD22-3002-4891-A760-3B48781A4679";
name = "May 22, 24 at 23:11";
shapes = (
{
closed = 1;
nodes = (
(444,-10,o),
(527,6,o),
(623,62,c),
(552,217,l),
(474,169,o),
(430,165,o),
(390,165,cs),
(296,165,o),
(221,218,o),
(221,308,cs),
(221,436,o),
(318,551,o),
(450,551,cs),
(510,551,o),
(557,538,o),
(611,501,c),
(716,643,l),
(652,694,o),
(562,726,o),
(469,726,cs),
(208,726,o),
(15,538,o),
(15,294,cs),
(15,116,o),
(142,-10,o),
(351,-10,cs)
);
}
);
width = 686;
}
);
unicode = 67;
}
{
glyphname = D;
kernLeft = B;
kernRight = D;
layers = (
{
anchors = (
{
name = bottom;
pos = (302,0);
},
{
name = center;
pos = (366,358);
},
{
name = top;
pos = (394,716);
}
);
background = {
shapes = (
{
closed = 1;
nodes = (
(318,0,ls),
(553,0,o),
(675,121,o),
(675,358,cs),
(675,595,o),
(553,715,o),
(318,715,cs),
(88,715,l),
(88,0,l)
);
},
{
closed = 1;
nodes = (
(122,684,l),
(306,684,ls),
(535,684,o),
(639,576,o),
(639,358,cs),
(639,139,o),
(535,32,o),
(306,32,cs),
(122,32,l)
);
}
);
};
layerId = "1750929F-40DF-47FF-8B11-7621AD6711F1";
name = "Thin Italic";
shapes = (
{
closed = 1;
nodes = (
(252,0,ls),
(583,0,o),
(680,249,o),
(680,444,cs),
(680,628,o),
(577,716,o),
(376,716,cs),
(156,716,l),
(30,0,l)
);
},
{
closed = 1;
nodes = (
(185,684,l),
(361,684,ls),
(554,684,o),
(643,608,o),
(643,444,cs),
(643,263,o),
(562,32,o),
(243,32,cs),
(70,32,l)
);
}
);
width = 740;
},
{
anchors = (
{
name = bottom;
pos = (318,0);
},
{
name = center;
pos = (381,358);
},
{
name = top;
pos = (411,716);
}
);
associatedMasterId = "1750929F-40DF-47FF-8B11-7621AD6711F1";
background = {
shapes = (
{
closed = 1;
nodes = (
(333,0,ls),
(568,0,o),
(690,121,o),
(690,358,cs),
(690,595,o),
(568,715,o),
(333,715,cs),
(103,715,l),
(103,0,l)
);
},
{
closed = 1;
nodes = (
(137,684,l),
(321,684,ls),
(550,684,o),
(654,576,o),
(654,358,cs),
(654,139,o),
(550,32,o),
(321,32,cs),
(137,32,l)
);
}
);
};
layerId = "1F06502E-BBF5-4DDC-A60A-A4A521EB2515";
name = "May 22, 24 at 22:57";
shapes = (
{
closed = 1;
nodes = (
(271,0,ls),
(602,0,o),
(699,249,o),
(699,444,cs),
(699,628,o),
(596,716,o),
(395,716,cs),
(166,716,l),
(40,0,l)
);
},
{
closed = 1;
nodes = (
(195,684,l),
(380,684,ls),
(573,684,o),
(662,608,o),
(662,444,cs),
(662,263,o),
(581,32,o),
(262,32,cs),
(80,32,l)
);
}
);
width = 759;
},
{
anchors = (
{
name = bottom;
pos = (285,0);
},
{
name = center;
pos = (348,358);
},
{
name = top;
pos = (396,716);
}
);
layerId = "502A2428-35F6-4863-AD44-5AC44627310C";
name = Italic;
shapes = (
{
closed = 1;
nodes = (
(227,0,ls),
(565,0,o),
(666,244,o),
(666,447,cs),
(666,625,o),
(557,716,o),
(349,716,cs),
(136,716,l),
(10,0,l)
);
},
{
closed = 1;
nodes = (
(205,642,l),
(332,642,ls),
(506,642,o),
(582,578,o),
(582,444,cs),
(582,284,o),
(515,74,o),
(226,74,cs),
(105,74,l)
);
}
);
width = 721;
},
{
anchors = (
{
name = bottom;
pos = (305,0);
},
{
name = center;
pos = (368,358);
},
{
name = top;
pos = (426,716);
}
);
associatedMasterId = "502A2428-35F6-4863-AD44-5AC44627310C";
layerId = "6BD16576-A8CB-4379-BCF3-4F64F2A048D1";
name = "May 22, 24 at 22:58";
shapes = (
{
closed = 1;
nodes = (
(259,0,ls),
(597,0,o),
(698,244,o),
(698,447,cs),
(698,625,o),
(589,716,o),
(381,716,cs),
(141,716,l),
(15,0,l)
);
},
{
closed = 1;
nodes = (
(210,642,l),
(364,642,ls),
(538,642,o),
(614,578,o),
(614,444,cs),
(614,284,o),
(547,74,o),
(258,74,cs),
(110,74,l)
);
}
);
width = 753;
},
{
anchors = (
{
name = bottom;
pos = (310,0);
},
{
name = center;
pos = (373,358);
},
{
name = top;
pos = (414,716);
}
);
background = {
shapes = (
{
closed = 1;
nodes = (
(335,0,ls),
(593,0,o),
(735,121,o),
(735,358,cs),
(735,595,o),
(593,715,o),
(335,715,cs),
(62,715,l),
(62,0,l)
);
},
{
closed = 1;
nodes = (
(266,547,l),
(335,547,ls),
(479,547,o),
(529,483,o),
(529,358,cs),
(529,232,o),
(479,169,o),
(335,169,cs),
(266,169,l)
);
}
);
};
layerId = "42F8977D-8264-44FF-8A66-A72BD7D3E619";
name = "Black Italic";
shapes = (
{
closed = 1;
nodes = (
(258,0,ls),
(636,0,o),
(722,260,o),
(722,433,cs),
(722,619,o),
(597,716,o),
(372,716,cs),
(126,716,l),
(0,0,l)
);
},
{
closed = 1;
nodes = (
(300,547,l),
(354,547,ls),
(472,547,o),
(516,508,o),
(516,423,cs),
(516,305,o),
(465,169,o),
(276,169,cs),
(234,169,l)
);
}
);
width = 742;
},
{
anchors = (
{
name = bottom;
pos = (321,0);
},
{
name = center;
pos = (384,358);
},
{
name = top;
pos = (447,716);
}
);
associatedMasterId = "42F8977D-8264-44FF-8A66-A72BD7D3E619";
background = {
shapes = (
{
closed = 1;
nodes = (
(346,0,ls),
(604,0,o),
(746,121,o),
(746,358,cs),
(746,595,o),
(604,715,o),
(346,715,cs),
(73,715,l),
(73,0,l)
);
},
{
closed = 1;
nodes = (
(277,547,l),
(346,547,ls),
(490,547,o),
(540,483,o),
(540,358,cs),
(540,232,o),
(490,169,o),
(346,169,cs),
(277,169,l)
);
}
);
};
layerId = "7AE36191-66F5-4687-A6B3-F7A333799A23";
name = "May 22, 24 at 22:59";
shapes = (
{
closed = 1;
nodes = (
(279,0,ls),
(657,0,o),
(743,260,o),
(743,433,cs),
(743,619,o),
(618,716,o),
(393,716,cs),
(126,716,l),
(0,0,l)
);
},
{
closed = 1;
nodes = (
(300,547,l),
(375,547,ls),
(493,547,o),
(537,508,o),
(537,423,cs),
(537,305,o),
(486,169,o),
(297,169,cs),
(234,169,l)
);
}
);
width = 763;
}
);
metricLeft = B;
metricRight = B;
unicode = 68;
}
{
glyphname = E;
kernLeft = B;
kernRight = E;
layers = (
{
anchors = (
{
name = bottom;
pos = (251,0);
},
{
name = ogonek;
pos = (483,0);
},
{
name = top;
pos = (386,716);
},
{
name = topleft;
pos = (156,716);
}
);
background = {
shapes = (
{
closed = 1;
nodes = (
(549,0,l),
(549,32,l),
(124,32,l),
(124,353,l),
(516,353,l),
(516,385,l),
(124,385,l),
(124,684,l),
(549,684,l),
(549,715,l),
(90,715,l),
(90,0,l)
);
}
);
};
layerId = "1750929F-40DF-47FF-8B11-7621AD6711F1";
name = "Thin Italic";
shapes = (
{
closed = 1;
nodes = (
(483,0,l),
(489,32,l),
(70,32,l),
(126,353,l),
(512,353,l),
(518,385,l),
(132,385,l),
(184,684,l),
(603,684,l),
(609,716,l),
(156,716,l),
(30,0,l)
);
}
);
width = 609;
},
{
anchors = (
{
name = bottom;
pos = (234,0);
},
{
name = ogonek;
pos = (474,0);
},
{
name = top;
pos = (354,716);
},
{
name = topleft;
pos = (136,716);
}
);
layerId = "502A2428-35F6-4863-AD44-5AC44627310C";
name = Italic;
shapes = (
{
closed = 1;
nodes = (
(474,0,l),
(487,74,l),
(105,74,l),
(151,333,l),
(501,333,l),
(513,405,l),
(163,405,l),
(205,642,l),
(587,642,l),
(600,716,l),
(136,716,l),
(10,0,l)
);
}
);
width = 600;
},
{
anchors = (
{
name = bottom;
pos = (257,0);
},
{
name = ogonek;
pos = (528,0);
},
{
name = top;
pos = (383,716);
},
{
name = topleft;
pos = (126,716);
}
);
background = {
shapes = (
{
closed = 1;
nodes = (
(608,0,l),
(608,169,l),
(267,169,l),
(267,291,l),
(575,291,l),
(575,447,l),
(267,447,l),
(267,547,l),
(608,547,l),
(608,715,l),
(63,715,l),
(63,0,l)
);
}
);
};
layerId = "42F8977D-8264-44FF-8A66-A72BD7D3E619";
name = "Black Italic";
shapes = (
{
closed = 1;
nodes = (
(528,0,l),
(558,169,l),
(234,169,l),
(255,291,l),
(546,291,l),
(574,447,l),
(282,447,l),
(299,547,l),
(624,547,l),
(654,716,l),
(126,716,l),
(0,0,l)
);
}
);
visible = 1;
width = 644;
},
{
anchors = (
{
name = bottom;
pos = (264,0);
},
{
name = ogonek;
pos = (545,0);
},
{
name = top;
pos = (390,716);
},
{
name = topleft;
pos = (126,716);
}
);
associatedMasterId = "42F8977D-8264-44FF-8A66-A72BD7D3E619";
background = {
shapes = (
{
closed = 1;
nodes = (
(618,0,l),
(618,169,l),
(277,169,l),
(277,291,l),
(585,291,l),
(585,447,l),
(277,447,l),
(277,547,l),
(618,547,l),
(618,715,l),
(73,715,l),
(73,0,l)
);
}
);
};
layerId = "C519651D-D6AC-4A6B-876B-6E422484DFF1";
name = "May 22, 24 at 22:51";
shapes = (
{
closed = 1;
nodes = (
(545,0,l),
(575,169,l),
(234,169,l),
(255,291,l),
(563,291,l),
(591,447,l),
(283,447,l),
(300,547,l),
(641,547,l),
(671,716,l),
(126,716,l),
(0,0,l)
);
}
);
width = 661;
}
);
metricLeft = B;
unicode = 69;
}
{
glyphname = F;
kernLeft = B;
kernRight = F;
layers = (
{
anchors = (
{
name = bottom;
pos = (237,0);
},
{
name = top;
pos = (373,716);
}
);
background = {
shapes = (
{
closed = 1;
nodes = (
(128,0,l),
(128,353,l),
(520,353,l),
(520,385,l),
(128,385,l),
(128,684,l),
(553,684,l),
(553,715,l),
(94,715,l),
(94,0,l)
);
}
);
};
layerId = "1750929F-40DF-47FF-8B11-7621AD6711F1";
name = "Thin Italic";
shapes = (
{
closed = 1;
nodes = (
(69,0,l),
(131,353,l),
(515,353,l),
(521,385,l),
(137,385,l),
(190,684,l),
(606,684,l),
(612,716,l),
(161,716,l),
(35,0,l)
);
}
);
width = 612;
},
{
anchors = (
{
name = bottom;
pos = (246,0);
},
{
name = top;
pos = (372,716);
}
);
associatedMasterId = "1750929F-40DF-47FF-8B11-7621AD6711F1";
background = {
shapes = (
{
closed = 1;
nodes = (
(137,0,l),
(137,353,l),
(529,353,l),
(529,385,l),
(137,385,l),
(137,684,l),
(562,684,l),
(562,715,l),
(103,715,l),
(103,0,l)
);
}
);
};
layerId = "268E9513-2D50-4BD3-B079-2B2A9B16F399";
name = "May 22, 24 at 23:25";
shapes = (
{
closed = 1;
nodes = (
(74,0,l),
(136,353,l),
(528,353,l),
(534,385,l),
(142,385,l),
(195,684,l),
(619,684,l),
(625,716,l),
(166,716,l),
(40,0,l)
);
}
);
width = 625;
},
{
anchors = (
{
name = bottom;
pos = (224,0);
},
{
name = top;
pos = (360,716);
}
);
layerId = "502A2428-35F6-4863-AD44-5AC44627310C";
name = Italic;
shapes = (
{
closed = 1;
nodes = (
(97,0,l),
(156,333,l),
(502,333,l),
(514,405,l),
(168,405,l),
(210,642,l),
(588,642,l),
(601,716,l),
(141,716,l),
(15,0,l)
);
}
);
width = 596;
},
{
anchors = (
{
name = bottom;
pos = (236,0);
},
{
name = top;
pos = (362,716);
}
);
associatedMasterId = "502A2428-35F6-4863-AD44-5AC44627310C";
layerId = "0E8BB932-DD13-4E1F-898E-FC3BE90B82B8";
name = "May 22, 24 at 23:27";
shapes = (
{
closed = 1;
nodes = (
(97,0,l),
(156,333,l),
(525,333,l),
(537,405,l),
(168,405,l),
(210,642,l),
(611,642,l),
(624,716,l),
(141,716,l),
(15,0,l)
);
}
);
width = 614;
},
{
anchors = (
{
name = bottom;
pos = (259,0);
},
{
name = top;
pos = (385,716);
}
);
background = {
shapes = (
{
closed = 1;
nodes = (
(267,0,l),
(267,291,l),
(575,291,l),
(575,447,l),
(267,447,l),
(267,547,l),
(608,547,l),
(608,715,l),
(63,715,l),
(63,0,l)
);
}
);
};
layerId = "42F8977D-8264-44FF-8A66-A72BD7D3E619";
name = "Black Italic";
shapes = (
{
closed = 1;
nodes = (
(204,0,l),
(255,291,l),
(543,291,l),
(571,447,l),
(283,447,l),
(300,547,l),
(621,547,l),
(651,716,l),
(126,716,l),
(0,0,l)
);
}
);
width = 636;
},
{
anchors = (
{
name = bottom;
pos = (259,0);
},
{
name = top;
pos = (385,716);
}
);
associatedMasterId = "42F8977D-8264-44FF-8A66-A72BD7D3E619";
background = {
shapes = (
{
closed = 1;
nodes = (
(277,0,l),
(277,291,l),
(585,291,l),
(585,447,l),
(277,447,l),
(277,547,l),
(618,547,l),
(618,715,l),
(73,715,l),
(73,0,l)
);
}
);
};
layerId = "A05945A3-FBCF-4842-B878-D9418132E1A6";
name = "May 22, 24 at 23:29";
shapes = (
{
closed = 1;
nodes = (
(204,0,l),
(255,291,l),
(563,291,l),
(591,447,l),
(283,447,l),
(300,547,l),
(641,547,l),
(671,716,l),
(126,716,l),
(0,0,l)
);
}
);
width = 651;
}
);
metricLeft = B;
unicode = 70;
}
{
glyphname = G;
kernLeft = C;
kernRight = G;
layers = (
{
anchors = (
{
name = bottom;
pos = (343,0);
},
{
name = top;
pos = (441,716);
}
);
background = {
shapes = (
{
pos = (-14,0);
ref = G.alt;
},
{
pos = (205,0);
ref = a;
}
);
};
layerId = "1750929F-40DF-47FF-8B11-7621AD6711F1";
name = "Thin Italic";
shapes = (
{
closed = 1;
nodes = (
(488,-10,o),
(616,74,o),
(636,191,cs),
(660,332,l),
(645,332,l),
(629,242,ls),
(603,88,o),
(475,22,o),
(343,22,cs),
(190,22,o),
(92,121,o),
(92,276,cs),
(92,494,o),
(242,694,o),
(465,694,cs),
(553,694,o),
(630,661,o),
(680,611,c),
(705,636,l),
(653,688,o),
(573,726,o),
(467,726,cs),
(218,726,o),
(55,513,o),
(55,274,cs),
(55,105,o),
(165,-10,o),
(340,-10,cs)
);
},
{
closed = 1;
nodes = (
(621,0,l),
(685,364,l),
(400,364,l),
(394,332,l),
(645,332,l),
(587,0,l)
);
}
);
width = 760;
},
{
anchors = (
{
name = bottom;
pos = (350,0);
},
{
name = top;
pos = (446,716);
}
);
associatedMasterId = "1750929F-40DF-47FF-8B11-7621AD6711F1";
background = {
shapes = (
{
pos = (-8,0);
ref = G.alt;
},
{
pos = (211,0);
ref = a;
}
);
};
layerId = "848807F0-3F52-42C4-B658-1B096399D1AD";
name = "May 22, 24 at 23:32";
shapes = (
{
closed = 1;
nodes = (
(501,-10,o),
(625,74,o),
(645,191,cs),
(669,332,l),
(654,332,l),
(635,221,ls),
(611,82,o),
(472,22,o),
(350,22,cs),
(183,22,o),
(92,121,o),
(92,276,cs),
(92,494,o),
(245,694,o),
(472,694,cs),
(570,694,o),
(644,661,o),
(694,611,c),
(719,636,l),
(667,688,o),
(580,726,o),
(474,726,cs),
(221,726,o),
(55,513,o),
(55,274,cs),
(55,105,o),
(159,-10,o),
(346,-10,cs)
);
},
{
closed = 1;
nodes = (
(630,0,l),
(694,364,l),
(400,364,l),
(394,332,l),
(654,332,l),
(596,0,l)
);
}
);
width = 774;
},
{
anchors = (
{
name = bottom;
pos = (325,0);
},
{
name = top;
pos = (448,716);
}
);
background = {
shapes = (
{
pos = (189,0);
ref = a;
}
);
};
layerId = "502A2428-35F6-4863-AD44-5AC44627310C";
name = Italic;
shapes = (
{
closed = 1;
nodes = (
(484,-10,o),
(602,89,o),
(631,259,cs),
(640,311,l),
(596,311,l),
(588,265,ls),
(565,135,o),
(463,63,o),
(347,63,cs),
(209,63,o),
(135,148,o),
(135,283,cs),
(135,475,o),
(257,653,o),
(455,653,cs),
(532,653,o),
(598,634,o),
(654,588,c),
(708,639,l),
(650,693,o),
(565,726,o),
(462,726,cs),
(215,726,o),
(50,522,o),
(50,283,cs),
(50,109,o),
(155,-10,o),
(330,-10,cs)
);
},
{
closed = 1;
nodes = (
(623,0,l),
(691,385,l),
(396,385,l),
(383,311,l),
(596,311,l),
(541,0,l)
);
}
);
width = 753;
},
{
anchors = (
{
name = bottom;
pos = (327,0);
},
{
name = top;
pos = (453,716);
}
);
associatedMasterId = "502A2428-35F6-4863-AD44-5AC44627310C";
background = {
shapes = (
{
pos = (204,0);
ref = a;
}
);
};
layerId = "6BEF4A31-E78E-4976-9BB5-EDD5A6D312D7";
name = "May 22, 24 at 23:37";
shapes = (
{
closed = 1;
nodes = (
(499,-10,o),
(628,89,o),
(657,259,cs),
(666,311,l),
(622,311,l),
(614,265,ls),
(591,135,o),
(478,63,o),
(362,63,cs),
(216,63,o),
(135,148,o),
(135,283,cs),
(135,475,o),
(266,653,o),
(472,653,cs),
(559,653,o),
(623,634,o),
(679,588,c),
(733,639,l),
(675,693,o),
(582,726,o),
(479,726,cs),
(224,726,o),
(50,522,o),
(50,283,cs),
(50,109,o),
(162,-10,o),
(345,-10,cs)
);
},
{
closed = 1;
nodes = (
(649,0,l),
(717,385,l),
(411,385,l),
(398,311,l),
(622,311,l),
(567,0,l)
);
}
);
width = 778;
},
{
anchors = (
{
name = bottom;
pos = (302,0);
},
{
name = top;
pos = (443,716);
}
);
background = {
shapes = (
{
pos = (-8,0);
ref = G.alt;
},
{
pos = (191,0);
ref = a;
}
);
};
layerId = "42F8977D-8264-44FF-8A66-A72BD7D3E619";
name = "Black Italic";
shapes = (
{
closed = 1;
nodes = (
(475,-10,o),
(527,92,o),
(559,264,cs),
(566,302,l),
(501,302,l),
(497,278,ls),
(484,199,o),
(437,166,o),
(359,166,cs),
(275,166,o),
(222,218,o),
(222,309,cs),
(222,436,o),
(311,551,o),
(438,551,cs),
(496,551,o),
(557,537,o),
(613,500,c),
(716,636,l),
(639,695,o),
(550,726,o),
(457,726,cs),
(200,726,o),
(15,535,o),
(15,290,cs),
(15,114,o),
(126,-10,o),
(295,-10,cs)
);
},
{
closed = 1;
nodes = (
(652,0,l),
(727,426,l),
(402,426,l),
(375,271,l),
(518,271,l),
(470,0,l)
);
}
);
width = 757;
},
{
anchors = (
{
name = bottom;
pos = (321,0);
},
{
name = top;
pos = (447,716);
}
);
associatedMasterId = "42F8977D-8264-44FF-8A66-A72BD7D3E619";
background = {
shapes = (
{
pos = (3,0);
ref = G.alt;
},
{
pos = (202,0);
ref = a;
}
);
};
layerId = "0068393B-08B8-43BB-93F0-EFE73DEF5E91";
name = "May 22, 24 at 23:39";
shapes = (
{
closed = 1;
nodes = (
(497,-10,o),
(549,92,o),
(581,264,cs),
(588,302,l),
(523,302,l),
(519,278,ls),
(506,199,o),
(448,166,o),
(370,166,cs),
(281,166,o),
(222,218,o),
(222,309,cs),
(222,436,o),
(324,551,o),
(449,551,cs),
(511,551,o),
(572,541,o),
(634,501,c),
(737,636,l),
(660,695,o),
(563,726,o),
(470,726,cs),
(207,726,o),
(15,535,o),
(15,290,cs),
(15,114,o),
(133,-10,o),
(306,-10,cs)
);
},
{
closed = 1;
nodes = (
(674,0,l),
(749,426,l),
(412,426,l),
(385,271,l),
(540,271,l),
(492,0,l)
);
}
);
width = 779;
}
);
metricLeft = C;
unicode = 71;
}
{
glyphname = H;
kernLeft = B;
kernRight = H;
layers = (
{
anchors = (
{
name = bottom;
pos = (314,0);
},
{
name = center;
pos = (377,358);
},
{
name = top;
pos = (440,716);
},
{
name = topleft;
pos = (114,716);
}
);
background = {
shapes = (
{
closed = 1;
nodes = (
(265,0,l),
(265,280,l),
(509,280,l),
(509,0,l),
(712,0,l),
(712,715,l),
(509,715,l),
(509,456,l),
(265,456,l),
(265,715,l),
(61,715,l),
(61,0,l)
);
}
);
};
layerId = "42F8977D-8264-44FF-8A66-A72BD7D3E619";
shapes = (
{
closed = 1;
nodes = (
(204,0,l),
(253,280,l),
(473,280,l),
(424,0,l),
(628,0,l),
(754,716,l),
(550,716,l),
(504,456,l),
(284,456,l),
(330,716,l),
(126,716,l),
(0,0,l)
);
}
);
width = 749;
},
{
anchors = (
{
name = bottom;
pos = (307,0);
},
{
name = center;
pos = (370,358);
},
{
name = top;
pos = (433,716);
},
{
name = topleft;
pos = (156,716);
}
);
background = {
shapes = (
{
closed = 1;
nodes = (
(121,0,l),
(121,353,l),
(619,353,l),
(619,0,l),
(652,0,l),
(652,715,l),
(619,715,l),
(619,385,l),
(121,385,l),
(121,715,l),
(87,715,l),
(87,0,l)
);
}
);
};
layerId = "1750929F-40DF-47FF-8B11-7621AD6711F1";
shapes = (
{
closed = 1;
nodes = (
(64,0,l),
(126,353,l),
(612,353,l),
(550,0,l),
(584,0,l),
(710,716,l),
(676,716,l),
(618,385,l),
(132,385,l),
(190,716,l),
(156,716,l),
(30,0,l)
);
}
);
width = 750;
},
{
anchors = (
{
name = bottom;
pos = (290,0);
},
{
name = center;
pos = (353,358);
},
{
name = top;
pos = (416,716);
},
{
name = topleft;
pos = (51,715);
}
);
layerId = "502A2428-35F6-4863-AD44-5AC44627310C";
shapes = (
{
closed = 1;
nodes = (
(92,0,l),
(150,331,l),
(546,331,l),
(488,0,l),
(570,0,l),
(696,716,l),
(614,716,l),
(559,405,l),
(163,405,l),
(218,716,l),
(136,716,l),
(10,0,l)
);
}
);
width = 711;
}
);
metricLeft = B;
unicode = 72;
}
{
glyphname = I;
kernLeft = B;
kernRight = H;
layers = (
{
anchors = (
{
name = bottom;
pos = (102,0);
},
{
name = ogonek;
pos = (204,0);
},
{
name = top;
pos = (228,716);
},
{
name = topleft;
pos = (87,716);
}
);
background = {
shapes = (
{
closed = 1;
nodes = (
(277,0,l),
(277,715,l),
(73,715,l),
(73,0,l)
);
}
);
};
layerId = "42F8977D-8264-44FF-8A66-A72BD7D3E619";
shapes = (
{
closed = 1;
nodes = (
(204,0,l),
(330,716,l),
(126,716,l),
(0,0,l)
);
}
);
width = 330;
},
{
anchors = (
{
name = bottom;
pos = (52,0);
},
{
name = ogonek;
pos = (69,0);
},
{
name = top;
pos = (178,716);
},
{
name = topleft;
pos = (79,716);
}
);
background = {
shapes = (
{
closed = 1;
nodes = (
(132,0,l),
(132,715,l),
(98,715,l),
(98,0,l)
);
}
);
};
layerId = "1750929F-40DF-47FF-8B11-7621AD6711F1";
shapes = (
{
closed = 1;
nodes = (
(69,0,l),
(195,716,l),
(161,716,l),
(35,0,l)
);
}
);
width = 230;
},
{
anchors = (
{
name = bottom;
pos = (57,0);
},
{
name = ogonek;
pos = (97,0);
},
{
name = top;
pos = (183,716);
},
{
name = topleft;
pos = (71,716);
}
);
layerId = "502A2428-35F6-4863-AD44-5AC44627310C";
shapes = (
{
closed = 1;
nodes = (
(97,0,l),
(223,716,l),
(141,716,l),
(15,0,l)
);
}
);
width = 238;
}
);
metricLeft = B;
metricRight = H;
unicode = 73;
}
{
glyphname = J;
kernLeft = J;
kernRight = J;
layers = (
{
anchors = (
{
name = bottom;
pos = (188,0);
},
{
name = top;
pos = (436,716);
}
);
background = {
shapes = (
{
closed = 1;
nodes = (
(400,-10,o),
(486,98,o),
(486,288,cs),
(486,715,l),
(282,715,l),
(282,276,ls),
(282,195,o),
(246,165,o),
(186,165,cs),
(148,165,o),
(101,183,o),
(64,206,c),
(-1,61,l),
(67,10,o),
(122,-10,o),
(211,-10,cs)
);
}
);
};
layerId = "42F8977D-8264-44FF-8A66-A72BD7D3E619";
shapes = (
{
closed = 1;
nodes = (
(350,-10,o),
(429,91,o),
(462,281,cs),
(539,716,l),
(335,716,l),
(259,283,ls),
(244,202,o),
(211,171,o),
(152,171,cs),
(123,171,o),
(79,185,o),
(46,208,c),
(-40,65,l),
(19,16,o),
(102,-10,o),
(172,-10,cs)
);
}
);
width = 529;
},
{
anchors = (
{
name = bottom;
pos = (177,0);
},
{
name = top;
pos = (475,716);
}
);
background = {
shapes = (
{
closed = 1;
nodes = (
(338,-10,o),
(430,66,o),
(430,223,cs),
(430,715,l),
(396,715,l),
(396,223,ls),
(396,89,o),
(325,21,o),
(214,21,cs),
(150,21,o),
(105,44,o),
(51,98,c),
(29,72,l),
(85,15,o),
(136,-10,o),
(214,-10,cs)
);
}
);
};
layerId = "1750929F-40DF-47FF-8B11-7621AD6711F1";
shapes = (
{
closed = 1;
nodes = (
(287,-10,o),
(378,65,o),
(406,222,cs),
(493,716,l),
(459,716,l),
(372,224,ls),
(349,90,o),
(275,21,o),
(176,21,cs),
(114,21,o),
(59,43,o),
(14,97,c),
(-10,73,l),
(35,16,o),
(105,-10,o),
(173,-10,cs)
);
}
);
width = 523;
},
{
anchors = (
{
name = bottom;
pos = (177,0);
},
{
name = top;
pos = (455,716);
}
);
layerId = "502A2428-35F6-4863-AD44-5AC44627310C";
shapes = (
{
closed = 1;
nodes = (
(294,-10,o),
(382,71,o),
(412,239,cs),
(496,716,l),
(414,716,l),
(330,241,ls),
(311,131,o),
(256,62,o),
(177,62,cs),
(118,62,o),
(71,82,o),
(29,128,c),
(-20,72,l),
(28,21,o),
(89,-10,o),
(170,-10,cs)
);
}
);
width = 501;
},
{
anchors = (
{
name = bottom;
pos = (195,0);
},
{
name = top;
pos = (483,716);
}
);
associatedMasterId = "1750929F-40DF-47FF-8B11-7621AD6711F1";
background = {
shapes = (
{
closed = 1;
nodes = (
(346,-10,o),
(438,66,o),
(438,223,cs),
(438,715,l),
(404,715,l),
(404,223,ls),
(404,89,o),
(333,21,o),
(222,21,cs),
(158,21,o),
(113,44,o),
(59,98,c),
(37,72,l),
(93,15,o),
(144,-10,o),
(222,-10,cs)
);
}
);
};
layerId = "CA3D5CFD-9265-4DCB-89BD-111A09326925";
name = "May 22, 24 at 23:51";
shapes = (
{
closed = 1;
nodes = (
(286,-10,o),
(386,65,o),
(414,222,cs),
(501,716,l),
(467,716,l),
(380,224,ls),
(357,90,o),
(276,21,o),
(165,21,cs),
(111,21,o),
(59,43,o),
(14,97,c),
(-10,73,l),
(35,16,o),
(104,-10,o),
(162,-10,cs)
);
}
);
width = 531;
},
{
anchors = (
{
name = bottom;
pos = (199,0);
},
{
name = top;
pos = (477,716);
}
);
associatedMasterId = "502A2428-35F6-4863-AD44-5AC44627310C";
layerId = "0CC73987-A6E9-474D-A431-4A73A663BF2A";
name = "May 22, 24 at 23:54";
shapes = (
{
closed = 1;
nodes = (
(304,-10,o),
(404,71,o),
(434,239,cs),
(518,716,l),
(436,716,l),
(352,241,ls),
(333,131,o),
(264,62,o),
(167,62,cs),
(115,62,o),
(71,82,o),
(29,128,c),
(-20,72,l),
(28,15,o),
(79,-10,o),
(160,-10,cs)
);
}
);
width = 523;
},
{
anchors = (
{
name = bottom;
pos = (208,0);
},
{
name = top;
pos = (454,716);
}
);
associatedMasterId = "42F8977D-8264-44FF-8A66-A72BD7D3E619";
background = {
shapes = (
{
closed = 1;
nodes = (
(418,-10,o),
(504,98,o),
(504,288,cs),
(504,715,l),
(300,715,l),
(300,276,ls),
(300,195,o),
(264,165,o),
(204,165,cs),
(166,165,o),
(119,183,o),
(82,206,c),
(17,61,l),
(85,10,o),
(140,-10,o),
(229,-10,cs)
);
}
);
};
layerId = "EC82AB09-FA6D-472F-BCC2-173F17C94465";
name = "May 22, 24 at 23:56";
shapes = (
{
closed = 1;
nodes = (
(349,-10,o),
(447,91,o),
(480,281,cs),
(557,716,l),
(353,716,l),
(277,283,ls),
(262,202,o),
(214,165,o),
(154,165,cs),
(116,165,o),
(72,179,o),
(39,202,c),
(-40,65,l),
(19,14,o),
(71,-10,o),
(160,-10,cs)
);
}
);
width = 547;
}
);
unicode = 74;
}
{
glyphname = K;
kernLeft = B;
kernRight = K;
layers = (
{
anchors = (
{
name = bottom;
pos = (247,0);
},
{
name = top;
pos = (373,716);
}
);
background = {
shapes = (
{
closed = 1;
nodes = (
(122,0,l),
(122,245,l),
(250,377,l),
(549,0,l),
(592,0,l),
(274,400,l),
(581,715,l),
(538,715,l),
(122,288,l),
(122,715,l),
(88,715,l),
(88,0,l)
);
}
);
};
layerId = "1750929F-40DF-47FF-8B11-7621AD6711F1";
name = "Thin Italic";
shapes = (
{
closed = 1;
nodes = (
(64,0,l),
(107,245,l),
(258,378,l),
(488,0,l),
(526,0,l),
(282,400,l),
(639,716,l),
(594,716,l),
(116,293,l),
(190,716,l),
(156,716,l),
(30,0,l)
);
}
);
width = 624;
},
{
anchors = (
{
name = bottom;
pos = (262,0);
},
{
name = top;
pos = (388,716);
}
);
associatedMasterId = "1750929F-40DF-47FF-8B11-7621AD6711F1";
background = {
shapes = (
{
closed = 1;
nodes = (
(137,0,l),
(137,245,l),
(265,377,l),
(564,0,l),
(607,0,l),
(289,400,l),
(596,715,l),
(553,715,l),
(137,288,l),
(137,715,l),
(103,715,l),
(103,0,l)
);
}
);
};
layerId = "245D1BE8-27ED-4CE8-8F28-0936F93BD3FC";
name = "May 23, 24 at 00:02";
shapes = (
{
closed = 1;
nodes = (
(74,0,l),
(117,245,l),
(269,378,l),
(503,0,l),
(543,0,l),
(296,399,l),
(659,716,l),
(609,716,l),
(126,294,l),
(200,716,l),
(166,716,l),
(40,0,l)
);
}
);
width = 644;
},
{
anchors = (
{
name = bottom;
pos = (244,0);
},
{
name = top;
pos = (370,716);
}
);
background = {
shapes = (
{
closed = 1;
nodes = (
(93,0,l),
(93,224,l),
(204,343,l),
(458,0,l),
(560,0,l),
(258,403,l),
(549,716,l),
(448,716,l),
(93,332,l),
(93,716,l),
(11,716,l),
(11,0,l)
);
}
);
};
layerId = "502A2428-35F6-4863-AD44-5AC44627310C";
name = Italic;
shapes = (
{
closed = 1;
nodes = (
(92,0,l),
(131,224,l),
(260,346,l),
(454,0,l),
(546,0,l),
(317,400,l),
(649,716,l),
(542,716,l),
(152,344,l),
(218,716,l),
(136,716,l),
(10,0,l)
);
}
);
width = 624;
},
{
anchors = (
{
name = bottom;
pos = (261,0);
},
{
name = top;
pos = (387,716);
}
);
associatedMasterId = "502A2428-35F6-4863-AD44-5AC44627310C";
layerId = "37235BCB-1866-4406-A805-37E85DB4CB00";
name = "May 23, 24 at 00:08";
shapes = (
{
closed = 1;
nodes = (
(97,0,l),
(136,223,l),
(273,348,l),
(469,0,l),
(564,0,l),
(333,403,l),
(679,716,l),
(567,716,l),
(157,344,l),
(223,716,l),
(141,716,l),
(15,0,l)
);
}
);
width = 649;
},
{
anchors = (
{
name = bottom;
pos = (293,0);
},
{
name = top;
pos = (419,716);
}
);
background = {
shapes = (
{
closed = 1;
nodes = (
(267,0,l),
(267,175,l),
(335,256,l),
(489,0,l),
(728,0,l),
(461,407,l),
(716,715,l),
(479,715,l),
(267,448,l),
(267,715,l),
(63,715,l),
(63,0,l)
);
}
);
};
layerId = "42F8977D-8264-44FF-8A66-A72BD7D3E619";
name = "Black Italic";
shapes = (
{
closed = 1;
nodes = (
(204,0,l),
(235,177,l),
(310,253,l),
(421,0,l),
(644,0,l),
(455,395,l),
(758,716,l),
(507,716,l),
(288,473,l),
(330,716,l),
(126,716,l),
(0,0,l)
);
}
);
width = 708;
},
{
anchors = (
{
name = bottom;
pos = (303,0);
},
{
name = top;
pos = (429,716);
}
);
associatedMasterId = "42F8977D-8264-44FF-8A66-A72BD7D3E619";
background = {
shapes = (
{
closed = 1;
nodes = (
(277,0,l),
(277,175,l),
(345,256,l),
(499,0,l),
(738,0,l),
(471,407,l),
(726,715,l),
(489,715,l),
(277,448,l),
(277,715,l),
(73,715,l),
(73,0,l)
);
}
);
};
layerId = "E73041A5-9B10-4978-A00B-C43CB066DFB6";
name = "May 23, 24 at 00:11";
shapes = (
{
closed = 1;
nodes = (
(204,0,l),
(235,175,l),
(317,257,l),
(431,0,l),
(655,0,l),
(463,400,l),
(779,716,l),
(519,716,l),
(288,477,l),
(330,716,l),
(126,716,l),
(0,0,l)
);
}
);
width = 729;
}
);
metricLeft = B;
unicode = 75;
}
{
glyphname = L;
kernLeft = B;
kernRight = L;
layers = (
{
anchors = (
{
name = bottom;
pos = (236,0);
},
{
name = center;
pos = (288,358);
},
{
name = top;
pos = (228,716);
},
{
name = topright;
pos = (330,716);
}
);
background = {
shapes = (
{
closed = 1;
nodes = (
(564,0,l),
(564,176,l),
(277,176,l),
(277,715,l),
(73,715,l),
(73,0,l)
);
}
);
};
layerId = "42F8977D-8264-44FF-8A66-A72BD7D3E619";
shapes = (
{
closed = 1;
nodes = (
(475,0,l),
(506,176,l),
(235,176,l),
(330,716,l),
(126,716,l),
(0,0,l)
);
}
);
width = 571;
},
{
anchors = (
{
name = bottom;
pos = (227,1);
},
{
name = center;
pos = (278,358);
},
{
name = top;
pos = (181,716);
},
{
name = topright;
pos = (197,716);
}
);
background = {
shapes = (
{
closed = 1;
nodes = (
(505,0,l),
(505,32,l),
(134,32,l),
(134,715,l),
(100,715,l),
(100,0,l)
);
}
);
};
layerId = "1750929F-40DF-47FF-8B11-7621AD6711F1";
shapes = (
{
closed = 1;
nodes = (
(439,0,l),
(445,32,l),
(80,32,l),
(200,716,l),
(166,716,l),
(40,0,l)
);
}
);
width = 545;
},
{
anchors = (
{
name = bottom;
pos = (211,0);
},
{
name = center;
pos = (264,358);
},
{
name = top;
pos = (181,716);
},
{
name = topright;
pos = (223,716);
}
);
layerId = "502A2428-35F6-4863-AD44-5AC44627310C";
shapes = (
{
closed = 1;
nodes = (
(427,0,l),
(440,74,l),
(110,74,l),
(223,716,l),
(141,716,l),
(15,0,l)
);
}
);
width = 540;
}
);
metricLeft = B;
unicode = 76;
}
{
glyphname = M;
kernLeft = B;
kernRight = H;
layers = (
{
anchors = (
{
name = bottom;
pos = (416,0);
},
{
name = top;
pos = (542,716);
}
);
background = {
shapes = (
{
closed = 1;
nodes = (
(262,0,l),
(262,513,l),
(402,0,l),
(575,0,l),
(717,513,l),
(717,0,l),
(920,0,l),
(920,715,l),
(598,715,l),
(489,298,l),
(380,715,l),
(58,715,l),
(58,0,l)
);
}
);
};
guides = (
{
pos = (265,505);
}
);
layerId = "42F8977D-8264-44FF-8A66-A72BD7D3E619";
shapes = (
{
closed = 1;
nodes = (
(204,0,l),
(282,511,l),
(336,0,l),
(497,0,l),
(723,509,l),
(629,0,l),
(833,0,l),
(959,716,l),
(664,716,l),
(463,299,l),
(409,716,l),
(126,716,l),
(0,0,l)
);
}
);
width = 954;
},
{
anchors = (
{
name = bottom;
pos = (400,0);
},
{
name = top;
pos = (526,716);
}
);
background = {
shapes = (
{
closed = 1;
nodes = (
(120,0,l),
(120,678,l),
(446,0,l),
(480,0,l),
(806,678,l),
(806,0,l),
(841,0,l),
(841,715,l),
(788,715,l),
(463,42,l),
(139,715,l),
(86,715,l),
(86,0,l)
);
}
);
};
layerId = "1750929F-40DF-47FF-8B11-7621AD6711F1";
shapes = (
{
closed = 1;
nodes = (
(64,0,l),
(184,679,l),
(383,0,l),
(417,0,l),
(856,681,l),
(736,0,l),
(770,0,l),
(896,716,l),
(841,716,l),
(405,40,l),
(208,716,l),
(156,716,l),
(30,0,l)
);
}
);
width = 936;
},
{
anchors = (
{
name = bottom;
pos = (384,0);
},
{
name = top;
pos = (510,716);
}
);
background = {
shapes = (
{
closed = 1;
nodes = (
(77,0,l),
(77,632,l),
(349,0,l),
(424,0,l),
(697,632,l),
(697,0,l),
(779,0,l),
(779,716,l),
(650,716,l),
(387,101,l),
(124,716,l),
(-5,716,l),
(-5,0,l)
);
}
);
};
guides = (
{
pos = (163,631);
}
);
layerId = "502A2428-35F6-4863-AD44-5AC44627310C";
shapes = (
{
closed = 1;
nodes = (
(92,0,l),
(203,635,l),
(346,0,l),
(424,0,l),
(786,628,l),
(676,0,l),
(758,0,l),
(884,716,l),
(748,716,l),
(398,98,l),
(264,716,l),
(136,716,l),
(10,0,l)
);
}
);
width = 899;
},
{
anchors = (
{
name = bottom;
pos = (417,0);
},
{
name = top;
pos = (543,716);
}
);
associatedMasterId = "1750929F-40DF-47FF-8B11-7621AD6711F1";
background = {
shapes = (
{
closed = 1;
nodes = (
(137,0,l),
(137,678,l),
(463,0,l),
(497,0,l),
(823,678,l),
(823,0,l),
(858,0,l),
(858,715,l),
(805,715,l),
(480,42,l),
(156,715,l),
(103,715,l),
(103,0,l)
);
}
);
};
layerId = "20EC58AA-9805-4683-9B57-0E217CC30A44";
name = "May 23, 24 at 00:19";
shapes = (
{
closed = 1;
nodes = (
(74,0,l),
(194,679,l),
(400,0,l),
(434,0,l),
(880,681,l),
(760,0,l),
(794,0,l),
(920,716,l),
(866,716,l),
(423,40,l),
(218,716,l),
(166,716,l),
(40,0,l)
);
}
);
width = 960;
},
{
anchors = (
{
name = bottom;
pos = (407,0);
},
{
name = top;
pos = (533,716);
}
);
associatedMasterId = "502A2428-35F6-4863-AD44-5AC44627310C";
guides = (
{
pos = (186,631);
}
);
layerId = "28A6233D-7B74-4BEE-B9EB-E7B2EB9D05E9";
name = "May 23, 24 at 00:22";
shapes = (
{
closed = 1;
nodes = (
(97,0,l),
(208,632,l),
(369,0,l),
(447,0,l),
(827,625,l),
(717,0,l),
(799,0,l),
(925,716,l),
(792,716,l),
(424,104,l),
(269,716,l),
(141,716,l),
(15,0,l)
);
}
);
width = 940;
},
{
anchors = (
{
name = bottom;
pos = (431,0);
},
{
name = top;
pos = (557,716);
}
);
associatedMasterId = "42F8977D-8264-44FF-8A66-A72BD7D3E619";
background = {
shapes = (
{
closed = 1;
nodes = (
(277,0,l),
(277,513,l),
(417,0,l),
(590,0,l),
(732,513,l),
(732,0,l),
(935,0,l),
(935,715,l),
(613,715,l),
(504,298,l),
(395,715,l),
(73,715,l),
(73,0,l)
);
}
);
};
guides = (
{
pos = (280,505);
}
);
layerId = "B63638A0-F5AA-4B93-8DB1-61D64071BE2D";
name = "May 23, 24 at 00:24";
shapes = (
{
closed = 1;
nodes = (
(204,0,l),
(292,505,l),
(342,0,l),
(521,0,l),
(746,499,l),
(659,0,l),
(863,0,l),
(989,716,l),
(659,716,l),
(482,333,l),
(449,716,l),
(126,716,l),
(0,0,l)
);
}
);
width = 989;
}
);
metricLeft = B;
unicode = 77;
}
{
glyphname = N;
kernLeft = B;
kernRight = H;
layers = (
{
anchors = (
{
name = bottom;
pos = (312,0);
},
{
name = top;
pos = (438,716);
}
);
background = {
shapes = (
{
closed = 1;
nodes = (
(126,0,l),
(126,678,l),
(612,0,l),
(657,0,l),
(657,715,l),
(624,715,l),
(624,39,l),
(137,715,l),
(92,715,l),
(92,0,l)
);
}
);
};
layerId = "1750929F-40DF-47FF-8B11-7621AD6711F1";
name = "Thin Italic";
shapes = (
{
closed = 1;
nodes = (
(69,0,l),
(189,680,l),
(547,0,l),
(591,0,l),
(717,716,l),
(683,716,l),
(563,38,l),
(205,716,l),
(161,716,l),
(35,0,l)
);
}
);
width = 752;
},
{
anchors = (
{
name = bottom;
pos = (323,0);
},
{
name = top;
pos = (449,716);
}
);
associatedMasterId = "1750929F-40DF-47FF-8B11-7621AD6711F1";
background = {
shapes = (
{
closed = 1;
nodes = (
(137,0,l),
(137,678,l),
(623,0,l),
(668,0,l),
(668,715,l),
(635,715,l),
(635,39,l),
(148,715,l),
(103,715,l),
(103,0,l)
);
}
);
};
layerId = "36BD0ACF-7084-4F57-BBA6-BC7D85861CD9";
name = "May 23, 24 at 21:14";
shapes = (
{
closed = 1;
nodes = (
(74,0,l),
(194,680,l),
(561,0,l),
(606,0,l),
(732,716,l),
(698,716,l),
(579,38,l),
(211,716,l),
(166,716,l),
(40,0,l)
);
}
);
width = 772;
},
{
anchors = (
{
name = bottom;
pos = (295,0);
},
{
name = top;
pos = (421,716);
}
);
background = {
shapes = (
{
closed = 1;
nodes = (
(84,0,l),
(84,602,l),
(500,0,l),
(592,0,l),
(592,716,l),
(510,716,l),
(510,116,l),
(94,716,l),
(2,716,l),
(2,0,l)
);
}
);
};
layerId = "502A2428-35F6-4863-AD44-5AC44627310C";
name = Italic;
shapes = (
{
closed = 1;
nodes = (
(97,0,l),
(203,604,l),
(486,0,l),
(577,0,l),
(703,716,l),
(621,716,l),
(515,115,l),
(232,716,l),
(141,716,l),
(15,0,l)
);
}
);
width = 718;
},
{
anchors = (
{
name = bottom;
pos = (310,0);
},
{
name = top;
pos = (436,716);
}
);
associatedMasterId = "502A2428-35F6-4863-AD44-5AC44627310C";
background = {
shapes = (
{
closed = 1;
nodes = (
(99,0,l),
(99,602,l),
(515,0,l),
(607,0,l),
(607,716,l),
(525,716,l),
(525,116,l),
(109,716,l),
(17,716,l),
(17,0,l)
);
}
);
};
layerId = "D6370556-AB70-4245-BDCD-0916470162D0";
name = "May 23, 24 at 21:16";
shapes = (
{
closed = 1;
nodes = (
(97,0,l),
(203,604,l),
(513,0,l),
(605,0,l),
(731,716,l),
(649,716,l),
(543,114,l),
(233,716,l),
(141,716,l),
(15,0,l)
);
}
);
width = 746;
},
{
anchors = (
{
name = bottom;
pos = (315,0);
},
{
name = top;
pos = (441,716);
}
);
background = {
shapes = (
{
closed = 1;
nodes = (
(266,0,l),
(266,405,l),
(499,0,l),
(713,0,l),
(713,715,l),
(510,715,l),
(510,311,l),
(276,715,l),
(62,715,l),
(62,0,l)
);
}
);
};
layerId = "42F8977D-8264-44FF-8A66-A72BD7D3E619";
name = "Black Italic";
shapes = (
{
closed = 1;
nodes = (
(204,0,l),
(271,406,l),
(431,0,l),
(630,0,l),
(756,716,l),
(552,716,l),
(495,310,l),
(332,716,l),
(126,716,l),
(0,0,l)
);
}
);
width = 756;
},
{
anchors = (
{
name = bottom;
pos = (326,0);
},
{
name = top;
pos = (452,716);
}
);
associatedMasterId = "42F8977D-8264-44FF-8A66-A72BD7D3E619";
background = {
shapes = (
{
closed = 1;
nodes = (
(277,0,l),
(277,405,l),
(510,0,l),
(724,0,l),
(724,715,l),
(521,715,l),
(521,311,l),
(287,715,l),
(73,715,l),
(73,0,l)
);
}
);
};
layerId = "50B9151D-D490-4C81-900E-946E780D6403";
name = "May 23, 24 at 21:18";
shapes = (
{
closed = 1;
nodes = (
(204,0,l),
(271,406,l),
(438,0,l),
(652,0,l),
(778,716,l),
(574,716,l),
(506,310,l),
(336,716,l),
(126,716,l),
(0,0,l)
);
}
);
width = 778;
}
);
metricLeft = B;
metricRight = H;
unicode = 78;
}
{
glyphname = O;
kernLeft = C;
kernRight = D;
layers = (
{
anchors = (
{
name = bottom;
pos = (341,0);
},
{
name = center;
pos = (404,358);
},
{
name = ogonek;
pos = (677,10);
},
{
name = top;
pos = (467,716);
},
{
name = topleft;
pos = (70,715);
},
{
name = topright;
pos = (864,715);
}
);
background = {
shapes = (
{
closed = 1;
nodes = (
(623,-10,o),
(752,143,o),
(752,358,cs),
(752,572,o),
(623,727,o),
(404,727,cs),
(186,727,o),
(57,572,o),
(57,358,cs),
(57,143,o),
(186,-10,o),
(404,-10,cs)
);
},
{
closed = 1;
nodes = (
(209,21,o),
(93,158,o),
(93,358,cs),
(93,559,o),
(209,695,o),
(404,695,cs),
(599,695,o),
(715,559,o),
(715,358,cs),
(715,158,o),
(599,21,o),
(404,21,cs)
);
}
);
};
layerId = "1750929F-40DF-47FF-8B11-7621AD6711F1";
name = "Thin Italic";
shapes = (
{
closed = 1;
nodes = (
(557,-10,o),
(709,142,o),
(747,357,cs),
(752,386,o),
(755,414,o),
(755,441,cs),
(755,610,o),
(655,726,o),
(468,726,cs),
(254,726,o),
(101,573,o),
(63,359,cs),
(58,330,o),
(55,301,o),
(55,275,cs),
(55,105,o),
(156,-10,o),
(340,-10,cs)
);
},
{
closed = 1;
nodes = (
(182,22,o),
(93,121,o),
(93,276,cs),
(93,302,o),
(95,329,o),
(100,357,cs),
(135,557,o),
(273,694,o),
(464,694,cs),
(630,694,o),
(717,594,o),
(717,439,cs),
(717,414,o),
(715,387,o),
(710,359,cs),
(675,159,o),
(537,22,o),
(344,22,cs)
);
}
);
width = 815;
},
{
anchors = (
{
name = bottom;
pos = (347,0);
},
{
name = center;
pos = (410,358);
},
{
name = ogonek;
pos = (683,10);
},
{
name = top;
pos = (473,716);
},
{
name = topleft;
pos = (76,715);
},
{
name = topright;
pos = (870,715);
}
);
associatedMasterId = "1750929F-40DF-47FF-8B11-7621AD6711F1";
background = {
shapes = (
{
closed = 1;
nodes = (
(629,-10,o),
(758,143,o),
(758,358,cs),
(758,572,o),
(629,727,o),
(410,727,cs),
(192,727,o),
(63,572,o),
(63,358,cs),
(63,143,o),
(192,-10,o),
(410,-10,cs)
);
},
{
closed = 1;
nodes = (
(215,21,o),
(99,158,o),
(99,358,cs),
(99,559,o),
(215,695,o),
(410,695,cs),
(605,695,o),
(721,559,o),
(721,358,cs),
(721,158,o),
(605,21,o),
(410,21,cs)
);
}
);
};
layerId = "6F83662E-CE07-4B04-8C2D-18936451013C";
name = "May 23, 24 at 21:25";
shapes = (
{
closed = 1;
nodes = (
(565,-10,o),
(720,142,o),
(758,357,cs),
(763,386,o),
(766,414,o),
(766,441,cs),
(766,610,o),
(663,726,o),
(474,726,cs),
(256,726,o),
(101,573,o),
(63,359,cs),
(58,330,o),
(55,301,o),
(55,275,cs),
(55,105,o),
(158,-10,o),
(346,-10,cs)
);
},
{
closed = 1;
nodes = (
(183,22,o),
(93,121,o),
(93,276,cs),
(93,302,o),
(95,329,o),
(100,357,cs),
(135,557,o),
(275,694,o),
(470,694,cs),
(638,694,o),
(728,594,o),
(728,439,cs),
(728,414,o),
(726,387,o),
(721,359,cs),
(686,159,o),
(545,22,o),
(350,22,cs)
);
}
);
width = 826;
},
{
anchors = (
{
name = bottom;
pos = (338,0);
},
{
name = center;
pos = (401,358);
},
{
name = ogonek;
pos = (377,0);
},
{
name = top;
pos = (464,716);
},
{
name = topleft;
pos = (67,715);
},
{
name = topright;
pos = (861,715);
}
);
layerId = "502A2428-35F6-4863-AD44-5AC44627310C";
name = Italic;
shapes = (
{
closed = 1;
nodes = (
(556,-10,o),
(710,140,o),
(748,355,cs),
(753,382,o),
(755,408,o),
(755,433,cs),
(755,606,o),
(652,726,o),
(463,726,cs),
(250,726,o),
(95,575,o),
(57,361,cs),
(52,334,o),
(50,308,o),
(50,283,cs),
(50,109,o),
(154,-10,o),
(339,-10,cs)
);
},
{
closed = 1;
nodes = (
(210,63,o),
(135,148,o),
(135,283,cs),
(135,306,o),
(137,330,o),
(142,355,cs),
(173,531,o),
(296,653,o),
(456,653,cs),
(596,653,o),
(670,568,o),
(670,433,cs),
(670,410,o),
(668,386,o),
(663,361,cs),
(632,184,o),
(511,63,o),
(346,63,cs)
);
}
);
width = 810;
},
{
anchors = (
{
name = bottom;
pos = (354,0);
},
{
name = center;
pos = (417,358);
},
{
name = ogonek;
pos = (393,0);
},
{
name = top;
pos = (480,716);
},
{
name = topleft;
pos = (83,715);
},
{
name = topright;
pos = (877,715);
}
);
associatedMasterId = "502A2428-35F6-4863-AD44-5AC44627310C";
layerId = "D54B4ECC-F3EB-43E9-A634-7F3DA1805A12";
name = "May 23, 24 at 21:27";
shapes = (
{
closed = 1;
nodes = (
(578,-10,o),
(739,140,o),
(777,355,cs),
(782,382,o),
(784,408,o),
(784,433,cs),
(784,606,o),
(674,726,o),
(479,726,cs),
(256,726,o),
(95,575,o),
(57,361,cs),
(52,334,o),
(50,308,o),
(50,283,cs),
(50,109,o),
(160,-10,o),
(355,-10,cs)
);
},
{
closed = 1;
nodes = (
(216,63,o),
(135,148,o),
(135,283,cs),
(135,306,o),
(137,330,o),
(142,355,cs),
(173,531,o),
(302,653,o),
(472,653,cs),
(618,653,o),
(699,568,o),
(699,433,cs),
(699,410,o),
(697,386,o),
(692,361,cs),
(661,184,o),
(533,63,o),
(362,63,cs)
);
}
);
width = 839;
},
{
anchors = (
{
name = bottom;
pos = (340,0);
},
{
name = center;
pos = (403,358);
},
{
name = ogonek;
pos = (676,10);
},
{
name = top;
pos = (466,716);
},
{
name = topleft;
pos = (70,715);
},
{
name = topright;
pos = (863,715);
}
);
background = {
shapes = (
{
closed = 1;
nodes = (
(649,-10,o),
(804,143,o),
(804,358,cs),
(804,572,o),
(649,727,o),
(413,727,cs),
(178,727,o),
(23,572,o),
(23,358,cs),
(23,143,o),
(177,-10,o),
(413,-10,cs)
);
},
{
closed = 1;
nodes = (
(305,165,o),
(228,243,o),
(228,358,cs),
(228,474,o),
(305,551,o),
(413,551,cs),
(520,551,o),
(597,474,o),
(597,358,cs),
(597,243,o),
(520,165,o),
(413,165,cs)
);
}
);
};
layerId = "42F8977D-8264-44FF-8A66-A72BD7D3E619";
name = "Black Italic";
shapes = (
{
closed = 1;
nodes = (
(577,-10,o),
(743,136,o),
(781,351,cs),
(785,375,o),
(787,399,o),
(787,422,cs),
(787,600,o),
(668,726,o),
(462,726,cs),
(233,726,o),
(64,579,o),
(26,365,cs),
(22,340,o),
(20,317,o),
(20,294,cs),
(20,116,o),
(141,-10,o),
(344,-10,cs)
);
},
{
closed = 1;
nodes = (
(276,165,o),
(226,218,o),
(226,308,cs),
(226,321,o),
(227,336,o),
(230,351,cs),
(250,467,o),
(340,551,o),
(442,551,cs),
(532,551,o),
(581,498,o),
(581,409,cs),
(581,395,o),
(580,380,o),
(577,365,cs),
(557,250,o),
(468,165,o),
(364,165,cs)
);
}
);
width = 807;
},
{
anchors = (
{
name = bottom;
pos = (347,0);
},
{
name = center;
pos = (410,358);
},
{
name = ogonek;
pos = (683,10);
},
{
name = top;
pos = (473,716);
},
{
name = topleft;
pos = (77,715);
},
{
name = topright;
pos = (870,715);
}
);
associatedMasterId = "42F8977D-8264-44FF-8A66-A72BD7D3E619";
background = {
shapes = (
{
closed = 1;
nodes = (
(656,-10,o),
(811,143,o),
(811,358,cs),
(811,572,o),
(656,727,o),
(420,727,cs),
(185,727,o),
(30,572,o),
(30,358,cs),
(30,143,o),
(184,-10,o),
(420,-10,cs)
);
},
{
closed = 1;
nodes = (
(312,165,o),
(235,243,o),
(235,358,cs),
(235,474,o),
(312,551,o),
(420,551,cs),
(527,551,o),
(604,474,o),
(604,358,cs),
(604,243,o),
(527,165,o),
(420,165,cs)
);
}
);
};
layerId = "352FE39B-6444-48CC-9C6A-4E50A56CB4D8";
name = "May 23, 24 at 21:28";
shapes = (
{
closed = 1;
nodes = (
(587,-10,o),
(762,136,o),
(800,351,cs),
(804,375,o),
(806,399,o),
(806,422,cs),
(806,600,o),
(678,726,o),
(469,726,cs),
(234,726,o),
(59,579,o),
(21,365,cs),
(17,340,o),
(15,317,o),
(15,294,cs),
(15,116,o),
(142,-10,o),
(351,-10,cs)
);
},
{
closed = 1;
nodes = (
(276,165,o),
(221,218,o),
(221,308,cs),
(221,321,o),
(222,336,o),
(225,351,cs),
(245,467,o),
(342,551,o),
(450,551,cs),
(543,551,o),
(600,498,o),
(600,409,cs),
(600,395,o),
(599,380,o),
(596,365,cs),
(576,250,o),
(477,165,o),
(370,165,cs)
);
}
);
width = 826;
}
);
metricLeft = C;
metricRight = D;
unicode = 79;
}
{
glyphname = P;
kernLeft = B;
kernRight = P;
layers = (
{
anchors = (
{
name = bottom;
pos = (269,0);
},
{
name = top;
pos = (395,716);
}
);
background = {
shapes = (
{
closed = 1;
nodes = (
(257,0,l),
(257,229,l),
(381,229,ls),
(574,229,o),
(663,322,o),
(663,473,cs),
(663,622,o),
(574,715,o),
(381,715,cs),
(53,715,l),
(53,0,l)
);
},
{
closed = 1;
nodes = (
(257,558,l),
(349,558,ls),
(419,558,o),
(458,532,o),
(458,473,cs),
(458,412,o),
(419,388,o),
(349,388,cs),
(257,388,l)
);
}
);
};
layerId = "42F8977D-8264-44FF-8A66-A72BD7D3E619";
shapes = (
{
closed = 1;
nodes = (
(204,0,l),
(244,229,l),
(354,229,ls),
(550,229,o),
(677,330,o),
(677,521,cs),
(677,640,o),
(593,716,o),
(425,716,cs),
(126,716,l),
(0,0,l)
);
},
{
closed = 1;
nodes = (
(303,558,l),
(378,558,ls),
(439,558,o),
(471,541,o),
(471,489,cs),
(471,427,o),
(416,388,o),
(338,388,cs),
(272,388,l)
);
}
);
width = 682;
},
{
anchors = (
{
name = bottom;
pos = (277,0);
},
{
name = top;
pos = (393,716);
}
);
background = {
shapes = (
{
closed = 1;
nodes = (
(128,0,l),
(128,294,l),
(347,294,ls),
(507,294,o),
(598,355,o),
(598,505,cs),
(598,655,o),
(507,715,o),
(347,715,cs),
(94,715,l),
(94,0,l)
);
},
{
closed = 1;
nodes = (
(128,684,l),
(336,684,ls),
(492,684,o),
(561,639,o),
(561,505,cs),
(561,371,o),
(481,325,o),
(336,325,cs),
(128,325,l)
);
}
);
};
layerId = "1750929F-40DF-47FF-8B11-7621AD6711F1";
shapes = (
{
closed = 1;
nodes = (
(74,0,l),
(126,294,l),
(337,294,ls),
(519,294,o),
(629,386,o),
(629,540,cs),
(629,664,o),
(549,716,o),
(409,716,cs),
(166,716,l),
(40,0,l)
);
},
{
closed = 1;
nodes = (
(194,684,l),
(395,684,ls),
(529,684,o),
(592,647,o),
(592,541,cs),
(592,397,o),
(494,325,o),
(330,325,cs),
(131,325,l)
);
}
);
width = 654;
},
{
anchors = (
{
name = bottom;
pos = (251,0);
},
{
name = top;
pos = (367,716);
}
);
layerId = "502A2428-35F6-4863-AD44-5AC44627310C";
shapes = (
{
closed = 1;
nodes = (
(97,0,l),
(146,276,l),
(314,276,ls),
(503,276,o),
(616,373,o),
(616,541,cs),
(616,660,o),
(536,716,o),
(387,716,cs),
(141,716,l),
(15,0,l)
);
},
{
closed = 1;
nodes = (
(210,642,l),
(363,642,ls),
(476,642,o),
(532,613,o),
(532,531,cs),
(532,410,o),
(446,348,o),
(306,348,cs),
(158,348,l)
);
}
);
width = 631;
},
{
anchors = (
{
name = bottom;
pos = (276,0);
},
{
name = top;
pos = (402,716);
}
);
associatedMasterId = "1750929F-40DF-47FF-8B11-7621AD6711F1";
background = {
shapes = (
{
closed = 1;
nodes = (
(137,0,l),
(137,294,l),
(356,294,ls),
(516,294,o),
(607,355,o),
(607,505,cs),
(607,655,o),
(516,715,o),
(356,715,cs),
(103,715,l),
(103,0,l)
);
},
{
closed = 1;
nodes = (
(137,684,l),
(345,684,ls),
(501,684,o),
(570,639,o),
(570,505,cs),
(570,371,o),
(490,325,o),
(345,325,cs),
(137,325,l)
);
}
);
};
layerId = "629B9854-76E1-4328-BDE2-DA0A2E147923";
name = "May 23, 24 at 21:35";
shapes = (
{
closed = 1;
nodes = (
(74,0,l),
(126,294,l),
(346,294,ls),
(528,294,o),
(638,386,o),
(638,540,cs),
(638,664,o),
(558,716,o),
(418,716,cs),
(166,716,l),
(40,0,l)
);
},
{
closed = 1;
nodes = (
(194,684,l),
(404,684,ls),
(538,684,o),
(601,647,o),
(601,541,cs),
(601,397,o),
(503,325,o),
(339,325,cs),
(131,325,l)
);
}
);
width = 663;
},
{
anchors = (
{
name = bottom;
pos = (266,0);
},
{
name = top;
pos = (392,716);
}
);
associatedMasterId = "502A2428-35F6-4863-AD44-5AC44627310C";
layerId = "4FB0C7A0-C96D-449C-841B-CE4C13059357";
name = "May 23, 24 at 21:36";
shapes = (
{
closed = 1;
nodes = (
(97,0,l),
(146,276,l),
(339,276,ls),
(528,276,o),
(641,373,o),
(641,541,cs),
(641,660,o),
(561,716,o),
(412,716,cs),
(141,716,l),
(15,0,l)
);
},
{
closed = 1;
nodes = (
(210,642,l),
(388,642,ls),
(501,642,o),
(557,613,o),
(557,531,cs),
(557,410,o),
(471,348,o),
(331,348,cs),
(158,348,l)
);
}
);
width = 656;
},
{
anchors = (
{
name = bottom;
pos = (289,0);
},
{
name = top;
pos = (415,716);
}
);
associatedMasterId = "42F8977D-8264-44FF-8A66-A72BD7D3E619";
background = {
shapes = (
{
closed = 1;
nodes = (
(277,0,l),
(277,229,l),
(401,229,ls),
(594,229,o),
(683,322,o),
(683,473,cs),
(683,622,o),
(594,715,o),
(401,715,cs),
(73,715,l),
(73,0,l)
);
},
{
closed = 1;
nodes = (
(277,558,l),
(369,558,ls),
(439,558,o),
(478,532,o),
(478,473,cs),
(478,412,o),
(439,388,o),
(369,388,cs),
(277,388,l)
);
}
);
};
layerId = "6C53A6C6-6CD4-4074-A1EE-576D7D569201";
name = "May 23, 24 at 21:37";
shapes = (
{
closed = 1;
nodes = (
(204,0,l),
(244,229,l),
(374,229,ls),
(570,229,o),
(697,330,o),
(697,521,cs),
(697,640,o),
(613,716,o),
(445,716,cs),
(126,716,l),
(0,0,l)
);
},
{
closed = 1;
nodes = (
(303,558,l),
(398,558,ls),
(459,558,o),
(491,541,o),
(491,489,cs),
(491,427,o),
(436,388,o),
(358,388,cs),
(272,388,l)
);
}
);
width = 702;
}
);
metricLeft = B;
unicode = 80;
}
{
glyphname = Q;
kernLeft = C;
kernRight = Q;
layers = (
{
anchors = (
{
name = bottom;
pos = (408,0);
},
{
name = top;
pos = (534,715);
}
);
background = {
shapes = (
{
closed = 1;
nodes = (
(774,-206,o),
(838,-188,o),
(914,-150,c),
(855,-17,l),
(805,-40,o),
(758,-51,o),
(726,-51,cs),
(670,-51,o),
(646,-19,o),
(641,16,c),
(785,71,o),
(872,197,o),
(872,358,cs),
(872,572,o),
(717,727,o),
(481,727,cs),
(246,727,o),
(91,572,o),
(91,358,cs),
(91,143,o),
(245,-10,o),
(481,-10,c),
(481,-112,o),
(554,-206,o),
(710,-206,cs)
);
},
{
closed = 1;
nodes = (
(373,165,o),
(296,243,o),
(296,358,cs),
(296,474,o),
(373,551,o),
(481,551,cs),
(588,551,o),
(665,474,o),
(665,358,cs),
(665,243,o),
(588,165,o),
(481,165,cs)
);
}
);
};
guides = (
{
angle = 90;
pos = (461,0);
}
);
layerId = "42F8977D-8264-44FF-8A66-A72BD7D3E619";
shapes = (
{
closed = 1;
nodes = (
(737,113,l),
(479,383,l),
(344,262,l),
(602,-10,l)
);
},
{
ref = O;
}
);
width = 812;
},
{
anchors = (
{
name = bottom;
pos = (418,0);
},
{
name = top;
pos = (544,715);
}
);
background = {
shapes = (
{
closed = 1;
nodes = (
(761,-206,o),
(815,-186,o),
(872,-139,c),
(853,-116,l),
(798,-159,o),
(755,-176,o),
(697,-176,cs),
(588,-176,o),
(516,-129,o),
(513,-9,c),
(712,4,o),
(829,155,o),
(829,358,cs),
(829,572,o),
(700,727,o),
(481,727,cs),
(263,727,o),
(134,572,o),
(134,358,cs),
(134,143,o),
(263,-10,o),
(481,-10,c),
(481,-126,o),
(555,-206,o),
(697,-206,cs)
);
},
{
closed = 1;
nodes = (
(286,21,o),
(170,158,o),
(170,358,cs),
(170,559,o),
(286,695,o),
(481,695,cs),
(676,695,o),
(792,559,o),
(792,358,cs),
(792,158,o),
(676,21,o),
(481,21,cs)
);
}
);
};
guides = (
{
angle = 90;
pos = (471,0);
}
);
layerId = "1750929F-40DF-47FF-8B11-7621AD6711F1";
shapes = (
{
closed = 1;
nodes = (
(735,12,l),
(461,297,l),
(436,275,l),
(710,-10,l)
);
},
{
ref = O;
}
);
width = 845;
},
{
anchors = (
{
name = bottom;
pos = (418,0);
},
{
name = top;
pos = (544,715);
}
);
guides = (
{
angle = 90;
pos = (471,0);
}
);
layerId = "502A2428-35F6-4863-AD44-5AC44627310C";
shapes = (
{
closed = 1;
nodes = (
(741,45,l),
(481,316,l),
(426,261,l),
(687,-10,l)
);
},
{
alignment = -1;
ref = O;
}
);
width = 850;
}
);
metricLeft = C;
unicode = 81;
}
{
glyphname = R;
kernLeft = B;
kernRight = R;
layers = (
{
anchors = (
{
name = bottom;
pos = (289,0);
},
{
name = top;
pos = (394,716);
}
);
background = {
shapes = (
{
closed = 1;
nodes = (
(256,0,l),
(256,253,l),
(295,253,l),
(462,0,l),
(699,0,l),
(506,269,l),
(607,302,o),
(662,368,o),
(662,484,cs),
(662,636,o),
(563,715,o),
(380,715,cs),
(52,715,l),
(52,0,l)
);
},
{
closed = 1;
nodes = (
(256,558,l),
(348,558,ls),
(429,558,o),
(457,531,o),
(457,483,cs),
(457,435,o),
(429,409,o),
(348,409,cs),
(256,409,l)
);
}
);
};
layerId = "42F8977D-8264-44FF-8A66-A72BD7D3E619";
shapes = (
{
closed = 1;
nodes = (
(204,0,l),
(248,253,l),
(305,253,l),
(412,0,l),
(626,0,l),
(498,271,l),
(649,323,o),
(678,441,o),
(678,527,cs),
(678,647,o),
(589,716,o),
(438,716,cs),
(126,716,l),
(0,0,l)
);
},
{
closed = 1;
nodes = (
(302,558,l),
(394,558,ls),
(449,558,o),
(472,537,o),
(472,499,cs),
(472,444,o),
(432,409,o),
(351,409,cs),
(276,409,l)
);
}
);
width = 693;
},
{
anchors = (
{
name = bottom;
pos = (267,0);
},
{
name = top;
pos = (385,716);
}
);
background = {
shapes = (
{
closed = 1;
nodes = (
(118,0,l),
(118,317,l),
(342,317,l),
(581,0,l),
(624,0,l),
(382,319,l),
(514,332,o),
(588,391,o),
(588,517,cs),
(588,657,o),
(499,715,o),
(337,715,cs),
(84,715,l),
(84,0,l)
);
},
{
closed = 1;
nodes = (
(118,684,l),
(326,684,ls),
(482,684,o),
(551,640,o),
(551,517,cs),
(551,393,o),
(471,349,o),
(326,349,cs),
(118,349,l)
);
}
);
};
layerId = "1750929F-40DF-47FF-8B11-7621AD6711F1";
shapes = (
{
closed = 1;
nodes = (
(64,0,l),
(120,317,l),
(339,317,l),
(522,0,l),
(561,0,l),
(376,319,l),
(533,334,o),
(620,419,o),
(620,547,cs),
(620,676,o),
(529,716,o),
(404,716,cs),
(156,716,l),
(30,0,l)
);
},
{
closed = 1;
nodes = (
(184,684,l),
(390,684,ls),
(499,684,o),
(583,660,o),
(583,547,cs),
(583,408,o),
(472,349,o),
(323,349,cs),
(125,349,l)
);
}
);
width = 650;
},
{
anchors = (
{
name = bottom;
pos = (256,0);
},
{
name = top;
pos = (370,716);
}
);
layerId = "502A2428-35F6-4863-AD44-5AC44627310C";
shapes = (
{
closed = 1;
nodes = (
(92,0,l),
(145,300,l),
(290,300,l),
(454,0,l),
(548,0,l),
(378,305,l),
(537,325,o),
(612,415,o),
(612,544,cs),
(612,659,o),
(526,716,o),
(398,716,cs),
(136,716,l),
(10,0,l)
);
},
{
closed = 1;
nodes = (
(205,642,l),
(384,642,ls),
(480,642,o),
(528,608,o),
(528,536,cs),
(528,417,o),
(439,372,o),
(325,372,cs),
(157,372,l)
);
}
);
width = 632;
},
{
anchors = (
{
name = bottom;
pos = (289,0);
},
{
name = top;
pos = (415,716);
}
);
associatedMasterId = "42F8977D-8264-44FF-8A66-A72BD7D3E619";
background = {
shapes = (
{
closed = 1;
nodes = (
(277,0,l),
(277,253,l),
(316,253,l),
(483,0,l),
(720,0,l),
(527,269,l),
(628,302,o),
(683,368,o),
(683,484,cs),
(683,636,o),
(584,715,o),
(401,715,cs),
(73,715,l),
(73,0,l)
);
},
{
closed = 1;
nodes = (
(277,558,l),
(369,558,ls),
(450,558,o),
(478,531,o),
(478,483,cs),
(478,435,o),
(450,409,o),
(369,409,cs),
(277,409,l)
);
}
);
};
layerId = "12F4D9B6-C49F-452A-B28E-E47E295BF8ED";
name = "May 23, 24 at 21:53";
shapes = (
{
closed = 1;
nodes = (
(204,0,l),
(248,253,l),
(301,253,l),
(423,0,l),
(637,0,l),
(498,264,l),
(667,313,o),
(699,438,o),
(699,527,cs),
(699,647,o),
(610,716,o),
(458,716,cs),
(126,716,l),
(0,0,l)
);
},
{
closed = 1;
nodes = (
(302,558,l),
(413,558,ls),
(470,558,o),
(493,537,o),
(493,501,cs),
(493,444,o),
(453,409,o),
(372,409,cs),
(276,409,l)
);
}
);
width = 714;
}
);
metricLeft = B;
unicode = 82;
}
{
glyphname = S;
kernLeft = S;
kernRight = S;
layers = (
{
anchors = (
{
name = bottom;
pos = (265,0);
},
{
name = top;
pos = (375,716);
}
);
background = {
shapes = (
{
closed = 1;
nodes = (
(509,-10,o),
(613,84,o),
(613,240,cs),
(613,338,o),
(553,420,o),
(408,446,cs),
(327,461,ls),
(284,469,o),
(261,481,o),
(261,510,cs),
(261,544,o),
(283,562,o),
(343,562,cs),
(386,562,o),
(451,537,o),
(524,499,c),
(591,652,l),
(501,711,o),
(415,727,o),
(338,727,cs),
(138,727,o),
(55,613,o),
(55,477,cs),
(55,375,o),
(114,314,o),
(260,288,cs),
(341,272,ls),
(384,265,o),
(407,244,o),
(407,214,cs),
(407,177,o),
(372,155,o),
(308,155,cs),
(258,155,o),
(183,181,o),
(101,231,c),
(34,79,l),
(121,15,o),
(206,-10,o),
(308,-10,cs)
);
}
);
};
layerId = "42F8977D-8264-44FF-8A66-A72BD7D3E619";
shapes = (
{
closed = 1;
nodes = (
(451,-10,o),
(579,81,o),
(579,254,cs),
(579,347,o),
(521,424,o),
(397,447,cs),
(328,460,ls),
(292,467,o),
(275,479,o),
(275,506,cs),
(275,536,o),
(308,561,o),
(374,561,cs),
(417,561,o),
(466,549,o),
(532,511,c),
(627,648,l),
(547,707,o),
(464,726,o),
(387,726,cs),
(196,726,o),
(64,619,o),
(64,470,cs),
(64,379,o),
(121,311,o),
(244,287,cs),
(315,273,ls),
(352,266,o),
(367,249,o),
(367,221,cs),
(367,186,o),
(326,157,o),
(258,157,cs),
(206,157,o),
(144,174,o),
(71,226,c),
(-20,88,l),
(56,24,o),
(147,-10,o),
(249,-10,cs)
);
}
);
width = 632;
},
{
anchors = (
{
name = bottom;
pos = (284,0);
},
{
name = top;
pos = (377,716);
}
);
background = {
shapes = (
{
closed = 1;
nodes = (
(451,-10,o),
(545,77,o),
(545,207,cs),
(545,293,o),
(491,370,o),
(371,394,cs),
(244,419,ls),
(172,433,o),
(134,467,o),
(134,525,cs),
(134,603,o),
(188,653,o),
(291,653,cs),
(368,653,o),
(427,625,o),
(488,578,c),
(525,644,l),
(454,704,o),
(376,726,o),
(289,726,cs),
(129,726,o),
(49,632,o),
(49,516,cs),
(49,430,o),
(101,364,o),
(223,340,cs),
(351,315,ls),
(422,301,o),
(460,259,o),
(460,200,cs),
(460,113,o),
(397,63,o),
(282,63,cs),
(205,63,o),
(141,88,o),
(64,153,c),
(27,88,l),
(107,17,o),
(183,-10,o),
(282,-10,cs)
);
}
);
};
layerId = "502A2428-35F6-4863-AD44-5AC44627310C";
shapes = (
{
closed = 1;
nodes = (
(439,-10,o),
(552,80,o),
(552,226,cs),
(552,308,o),
(499,373,o),
(374,399,cs),
(289,417,ls),
(217,432,o),
(192,468,o),
(192,515,cs),
(192,593,o),
(269,653,o),
(377,653,cs),
(454,653,o),
(512,626,o),
(553,588,c),
(603,644,l),
(543,704,o),
(469,726,o),
(382,726,cs),
(208,726,o),
(105,622,o),
(105,507,cs),
(105,428,o),
(151,361,o),
(258,340,cs),
(345,323,ls),
(429,307,o),
(466,271,o),
(466,218,cs),
(466,130,o),
(392,63,o),
(278,63,cs),
(201,63,o),
(134,92,o),
(69,151,c),
(20,96,l),
(87,31,o),
(178,-10,o),
(277,-10,cs)
);
}
);
width = 638;
},
{
anchors = (
{
name = bottom;
pos = (265,0);
},
{
name = top;
pos = (372,716);
}
);
background = {
shapes = (
{
closed = 1;
nodes = (
(468,-10,o),
(558,74,o),
(558,194,cs),
(558,274,o),
(508,346,o),
(396,368,cs),
(251,396,ls),
(167,412,o),
(123,459,o),
(123,530,cs),
(123,628,o),
(188,695,o),
(311,695,cs),
(401,695,o),
(459,665,o),
(515,614,c),
(536,641,l),
(476,701,o),
(401,727,o),
(311,727,cs),
(166,727,o),
(86,639,o),
(86,530,cs),
(86,450,o),
(135,386,o),
(248,364,cs),
(393,337,ls),
(477,320,o),
(521,266,o),
(521,194,cs),
(521,87,o),
(445,21,o),
(311,21,cs),
(224,21,o),
(160,48,o),
(86,117,c),
(65,90,l),
(140,17,o),
(214,-10,o),
(311,-10,cs)
);
}
);
};
layerId = "1750929F-40DF-47FF-8B11-7621AD6711F1";
name = "Thin Italic";
shapes = (
{
closed = 1;
nodes = (
(414,-10,o),
(532,85,o),
(532,214,cs),
(532,296,o),
(482,350,o),
(366,374,cs),
(257,396,ls),
(174,413,o),
(139,480,o),
(153,543,cs),
(173,632,o),
(250,694,o),
(373,694,cs),
(453,694,o),
(525,655,o),
(561,613,c),
(584,636,l),
(533,696,o),
(457,726,o),
(377,726,cs),
(232,726,o),
(136,646,o),
(117,543,cs),
(100,453,o),
(160,381,o),
(258,362,cs),
(360,342,ls),
(470,320,o),
(496,273,o),
(496,203,cs),
(496,105,o),
(387,22,o),
(267,22,cs),
(169,22,o),
(103,53,o),
(44,119,c),
(20,95,l),
(82,22,o),
(163,-10,o),
(260,-10,cs)
);
}
);
width = 629;
}
);
unicode = 83;
}
{
glyphname = T;
kernLeft = T;
kernRight = T;
layers = (
{
anchors = (
{
name = bottom;
pos = (255,0);
},
{
name = center;
pos = (318,358);
},
{
name = top;
pos = (381,716);
}
);
background = {
shapes = (
{
closed = 1;
nodes = (
(429,0,l),
(429,540,l),
(627,540,l),
(627,715,l),
(29,715,l),
(29,540,l),
(225,540,l),
(225,0,l)
);
}
);
};
layerId = "42F8977D-8264-44FF-8A66-A72BD7D3E619";
shapes = (
{
closed = 1;
nodes = (
(356,0,l),
(451,540,l),
(640,540,l),
(671,716,l),
(91,716,l),
(60,540,l),
(247,540,l),
(152,0,l)
);
}
);
width = 646;
},
{
anchors = (
{
name = bottom;
pos = (228,0);
},
{
name = center;
pos = (291,358);
},
{
name = top;
pos = (354,716);
}
);
background = {
shapes = (
{
closed = 1;
nodes = (
(308,0,l),
(308,684,l),
(547,684,l),
(547,715,l),
(34,715,l),
(34,684,l),
(274,684,l),
(274,0,l)
);
}
);
};
layerId = "1750929F-40DF-47FF-8B11-7621AD6711F1";
shapes = (
{
closed = 1;
nodes = (
(245,0,l),
(365,684,l),
(600,684,l),
(606,716,l),
(101,716,l),
(95,684,l),
(331,684,l),
(211,0,l)
);
}
);
width = 586;
},
{
anchors = (
{
name = bottom;
pos = (230,0);
},
{
name = center;
pos = (293,358);
},
{
name = top;
pos = (356,716);
}
);
layerId = "502A2428-35F6-4863-AD44-5AC44627310C";
shapes = (
{
closed = 1;
nodes = (
(271,0,l),
(384,642,l),
(600,642,l),
(613,716,l),
(98,716,l),
(85,642,l),
(302,642,l),
(189,0,l)
);
}
);
width = 593;
},
{
anchors = (
{
name = bottom;
pos = (237,0);
},
{
name = center;
pos = (300,358);
},
{
name = top;
pos = (363,716);
}
);
associatedMasterId = "1750929F-40DF-47FF-8B11-7621AD6711F1";
background = {
shapes = (
{
closed = 1;
nodes = (
(317,0,l),
(317,684,l),
(556,684,l),
(556,715,l),
(43,715,l),
(43,684,l),
(283,684,l),
(283,0,l)
);
}
);
};
layerId = "E19D2D1B-68DB-41A1-A7E7-3E2F4B4E3F87";
name = "May 23, 24 at 22:55";
shapes = (
{
closed = 1;
nodes = (
(254,0,l),
(374,684,l),
(613,684,l),
(619,716,l),
(106,716,l),
(100,684,l),
(340,684,l),
(220,0,l)
);
}
);
width = 609;
},
{
anchors = (
{
name = bottom;
pos = (241,0);
},
{
name = center;
pos = (304,358);
},
{
name = top;
pos = (367,716);
}
);
associatedMasterId = "502A2428-35F6-4863-AD44-5AC44627310C";
layerId = "E05D3A89-8329-4521-AE19-F93AEB82A926";
name = "May 23, 24 at 22:57";
shapes = (
{
closed = 1;
nodes = (
(282,0,l),
(395,642,l),
(622,642,l),
(635,716,l),
(98,716,l),
(85,642,l),
(313,642,l),
(200,0,l)
);
}
);
width = 615;
},
{
anchors = (
{
name = bottom;
pos = (264,0);
},
{
name = center;
pos = (327,358);
},
{
name = top;
pos = (390,716);
}
);
associatedMasterId = "42F8977D-8264-44FF-8A66-A72BD7D3E619";
background = {
shapes = (
{
closed = 1;
nodes = (
(438,0,l),
(438,540,l),
(636,540,l),
(636,715,l),
(38,715,l),
(38,540,l),
(234,540,l),
(234,0,l)
);
}
);
};
layerId = "FB36F36B-A334-4821-B40F-E3BDD0D7DB51";
name = "May 23, 24 at 22:58";
shapes = (
{
closed = 1;
nodes = (
(365,0,l),
(460,540,l),
(658,540,l),
(689,716,l),
(91,716,l),
(60,540,l),
(256,540,l),
(161,0,l)
);
}
);
width = 664;
}
);
unicode = 84;
}
{
glyphname = U;
kernLeft = U;
kernRight = U;
layers = (
{
anchors = (
{
name = bottom;
pos = (294,0);
},
{
name = ogonek;
pos = (388,0);
},
{
name = top;
pos = (421,716);
},
{
name = topright;
pos = (700,716);
}
);
background = {
shapes = (
{
closed = 1;
nodes = (
(534,-10,o),
(640,82,o),
(640,288,cs),
(640,715,l),
(607,715,l),
(607,288,ls),
(607,95,o),
(509,21,o),
(358,21,cs),
(206,21,o),
(109,95,o),
(109,288,cs),
(109,715,l),
(75,715,l),
(75,288,ls),
(75,82,o),
(182,-10,o),
(358,-10,cs)
);
}
);
};
layerId = "1750929F-40DF-47FF-8B11-7621AD6711F1";
name = "Thin Italic";
shapes = (
{
closed = 1;
nodes = (
(469,-10,o),
(588,81,o),
(624,287,cs),
(700,716,l),
(666,716,l),
(591,289,ls),
(557,96,o),
(448,22,o),
(298,22,cs),
(172,22,o),
(93,74,o),
(93,209,cs),
(93,232,o),
(96,258,o),
(101,287,cs),
(177,716,l),
(143,716,l),
(68,289,ls),
(63,259,o),
(60,232,o),
(60,206,cs),
(60,58,o),
(147,-10,o),
(294,-10,cs)
);
}
);
width = 730;
},
{
anchors = (
{
name = bottom;
pos = (304,0);
},
{
name = ogonek;
pos = (378,0);
},
{
name = top;
pos = (431,716);
},
{
name = topright;
pos = (713,716);
}
);
associatedMasterId = "1750929F-40DF-47FF-8B11-7621AD6711F1";
background = {
shapes = (
{
closed = 1;
nodes = (
(544,-10,o),
(650,82,o),
(650,288,cs),
(650,715,l),
(617,715,l),
(617,288,ls),
(617,95,o),
(519,21,o),
(368,21,cs),
(216,21,o),
(119,95,o),
(119,288,cs),
(119,715,l),
(85,715,l),
(85,288,ls),
(85,82,o),
(192,-10,o),
(368,-10,cs)
);
}
);
};
layerId = "7291200F-EB7D-42D5-9701-79AAB538867A";
name = "May 23, 24 at 23:00";
shapes = (
{
closed = 1;
nodes = (
(480,-10,o),
(602,81,o),
(638,287,cs),
(714,716,l),
(680,716,l),
(605,289,ls),
(571,96,o),
(459,22,o),
(308,22,cs),
(179,22,o),
(98,74,o),
(98,209,cs),
(98,232,o),
(101,258,o),
(106,287,cs),
(182,716,l),
(148,716,l),
(73,289,ls),
(68,259,o),
(65,232,o),
(65,206,cs),
(65,58,o),
(154,-10,o),
(304,-10,cs)
);
}
);
width = 739;
},
{
anchors = (
{
name = bottom;
pos = (282,0);
},
{
name = ogonek;
pos = (376,0);
},
{
name = top;
pos = (408,716);
},
{
name = topright;
pos = (691,716);
}
);
layerId = "502A2428-35F6-4863-AD44-5AC44627310C";
name = Italic;
shapes = (
{
closed = 1;
nodes = (
(463,-10,o),
(579,82,o),
(616,288,cs),
(691,716,l),
(609,716,l),
(535,294,ls),
(506,132,o),
(421,63,o),
(290,63,cs),
(187,63,o),
(127,108,o),
(127,219,cs),
(127,240,o),
(129,263,o),
(134,288,cs),
(209,716,l),
(127,716,l),
(53,294,ls),
(48,265,o),
(45,238,o),
(45,214,cs),
(45,63,o),
(135,-10,o),
(283,-10,cs)
);
}
);
width = 701;
},
{
anchors = (
{
name = bottom;
pos = (301,0);
},
{
name = ogonek;
pos = (395,0);
},
{
name = top;
pos = (427,716);
},
{
name = topright;
pos = (723,716);
}
);
associatedMasterId = "502A2428-35F6-4863-AD44-5AC44627310C";
layerId = "92AB4D4E-76EC-4E6D-BB8D-5BF101E6267B";
name = "May 23, 24 at 23:02";
shapes = (
{
closed = 1;
nodes = (
(484,-10,o),
(610,82,o),
(647,288,cs),
(722,716,l),
(640,716,l),
(566,294,ls),
(537,132,o),
(442,63,o),
(309,63,cs),
(197,63,o),
(132,108,o),
(132,219,cs),
(132,240,o),
(134,263,o),
(139,288,cs),
(214,716,l),
(132,716,l),
(58,294,ls),
(53,265,o),
(50,238,o),
(50,214,cs),
(50,63,o),
(145,-10,o),
(302,-10,cs)
);
}
);
width = 732;
},
{
anchors = (
{
name = bottom;
pos = (308,0);
},
{
name = ogonek;
pos = (421,0);
},
{
name = top;
pos = (434,716);
},
{
name = topright;
pos = (749,716);
}
);
background = {
shapes = (
{
closed = 1;
nodes = (
(591,-10,o),
(706,88,o),
(706,298,cs),
(706,715,l),
(503,715,l),
(503,298,ls),
(503,213,o),
(466,165,o),
(381,165,cs),
(296,165,o),
(259,213,o),
(259,298,cs),
(259,715,l),
(55,715,l),
(55,298,ls),
(55,88,o),
(171,-10,o),
(381,-10,cs)
);
}
);
};
layerId = "42F8977D-8264-44FF-8A66-A72BD7D3E619";
name = "Black Italic";
shapes = (
{
closed = 1;
nodes = (
(523,-10,o),
(637,81,o),
(674,291,cs),
(749,716,l),
(545,716,l),
(473,305,ls),
(458,220,o),
(418,165,o),
(334,165,cs),
(283,165,o),
(244,192,o),
(244,249,cs),
(244,261,o),
(245,275,o),
(248,291,cs),
(323,716,l),
(119,716,l),
(47,305,ls),
(42,277,o),
(40,251,o),
(40,226,cs),
(40,69,o),
(139,-10,o),
(314,-10,cs)
);
}
);
width = 744;
},
{
anchors = (
{
name = bottom;
pos = (319,0);
},
{
name = ogonek;
pos = (426,0);
},
{
name = top;
pos = (445,716);
},
{
name = topright;
pos = (770,716);
}
);
associatedMasterId = "42F8977D-8264-44FF-8A66-A72BD7D3E619";
background = {
shapes = (
{
closed = 1;
nodes = (
(602,-10,o),
(717,88,o),
(717,298,cs),
(717,715,l),
(514,715,l),
(514,298,ls),
(514,213,o),
(477,165,o),
(392,165,cs),
(307,165,o),
(270,213,o),
(270,298,cs),
(270,715,l),
(66,715,l),
(66,298,ls),
(66,88,o),
(182,-10,o),
(392,-10,cs)
);
}
);
};
layerId = "BE97B888-62ED-47E9-8EA2-7DE1976B1E95";
name = "May 23, 24 at 23:04";
shapes = (
{
closed = 1;
nodes = (
(535,-10,o),
(659,81,o),
(696,291,cs),
(771,716,l),
(567,716,l),
(495,305,ls),
(480,220,o),
(430,165,o),
(345,165,cs),
(276,165,o),
(244,192,o),
(244,249,cs),
(244,261,o),
(245,275,o),
(248,291,cs),
(323,716,l),
(119,716,l),
(47,305,ls),
(42,277,o),
(40,251,o),
(40,226,cs),
(40,69,o),
(143,-10,o),
(325,-10,cs)
);
}
);
width = 766;
}
);
unicode = 85;
}
{
glyphname = V;
kernLeft = V;
kernRight = V;
layers = (
{
anchors = (
{
name = bottom;
pos = (306,0);
},
{
name = top;
pos = (417,716);
}
);
background = {
shapes = (
{
closed = 1;
nodes = (
(494,0,l),
(760,715,l),
(533,715,l),
(382,232,l),
(229,715,l),
(2,715,l),
(269,0,l)
);
}
);
};
layerId = "42F8977D-8264-44FF-8A66-A72BD7D3E619";
shapes = (
{
closed = 1;
nodes = (
(421,0,l),
(791,716,l),
(565,716,l),
(337,233,l),
(265,716,l),
(55,716,l),
(196,0,l)
);
}
);
width = 726;
},
{
anchors = (
{
name = bottom;
pos = (290,0);
},
{
name = top;
pos = (396,716);
}
);
background = {
shapes = (
{
closed = 1;
nodes = (
(370,0,l),
(679,715,l),
(642,715,l),
(353,40,l),
(64,715,l),
(27,715,l),
(336,0,l)
);
}
);
};
layerId = "1750929F-40DF-47FF-8B11-7621AD6711F1";
shapes = (
{
closed = 1;
nodes = (
(307,0,l),
(734,716,l),
(697,716,l),
(296,44,l),
(125,716,l),
(90,716,l),
(273,0,l)
);
}
);
width = 704;
},
{
anchors = (
{
name = bottom;
pos = (295,0);
},
{
name = top;
pos = (381,716);
}
);
background = {
shapes = (
{
closed = 1;
nodes = (
(340,0,l),
(635,716,l),
(544,716,l),
(295,94,l),
(45,716,l),
(-46,716,l),
(250,0,l)
);
}
);
};
layerId = "502A2428-35F6-4863-AD44-5AC44627310C";
shapes = (
{
closed = 1;
nodes = (
(340,0,l),
(736,716,l),
(638,716,l),
(305,98,l),
(171,716,l),
(80,716,l),
(250,0,l)
);
}
);
width = 701;
},
{
anchors = (
{
name = bottom;
pos = (290,0);
},
{
name = top;
pos = (416,716);
}
);
associatedMasterId = "1750929F-40DF-47FF-8B11-7621AD6711F1";
background = {
shapes = (
{
closed = 1;
nodes = (
(370,0,l),
(679,715,l),
(642,715,l),
(353,40,l),
(64,715,l),
(27,715,l),
(336,0,l)
);
}
);
};
layerId = "DAF3DDC7-4D4B-4D91-B0E8-FDD36F5EC7A2";
name = "May 23, 24 at 23:08";
shapes = (
{
closed = 1;
nodes = (
(307,0,l),
(742,716,l),
(704,716,l),
(296,46,l),
(125,716,l),
(90,716,l),
(273,0,l)
);
}
);
width = 712;
},
{
anchors = (
{
name = bottom;
pos = (295,0);
},
{
name = top;
pos = (421,716);
}
);
associatedMasterId = "502A2428-35F6-4863-AD44-5AC44627310C";
background = {
shapes = (
{
closed = 1;
nodes = (
(340,0,l),
(635,716,l),
(544,716,l),
(295,94,l),
(45,716,l),
(-46,716,l),
(250,0,l)
);
}
);
};
layerId = "696C844F-3704-4A65-AA60-20DCA1642D52";
name = "May 23, 24 at 23:09";
shapes = (
{
closed = 1;
nodes = (
(340,0,l),
(761,716,l),
(662,716,l),
(306,98,l),
(171,716,l),
(80,716,l),
(250,0,l)
);
}
);
width = 726;
}
);
unicode = 86;
}
{
glyphname = W;
kernLeft = W;
kernRight = W;
layers = (
{
anchors = (
{
name = bottom;
pos = (454,0);
},
{
name = top;
pos = (580,716);
}
);
background = {
shapes = (
{
closed = 1;
nodes = (
(300,0,l),
(517,677,l),
(735,0,l),
(770,0,l),
(1007,715,l),
(970,715,l),
(753,40,l),
(535,715,l),
(501,715,l),
(283,40,l),
(66,715,l),
(29,715,l),
(265,0,l)
);
}
);
};
layerId = "1750929F-40DF-47FF-8B11-7621AD6711F1";
name = "Thin Italic";
shapes = (
{
closed = 1;
nodes = (
(245,0,l),
(573,679,l),
(667,0,l),
(701,0,l),
(1064,716,l),
(1027,716,l),
(690,41,l),
(600,716,l),
(556,716,l),
(234,42,l),
(134,716,l),
(100,716,l),
(210,0,l)
);
}
);
width = 1049;
},
{
anchors = (
{
name = bottom;
pos = (462,0);
},
{
name = top;
pos = (588,716);
}
);
associatedMasterId = "1750929F-40DF-47FF-8B11-7621AD6711F1";
background = {
shapes = (
{
closed = 1;
nodes = (
(308,0,l),
(525,677,l),
(743,0,l),
(778,0,l),
(1015,715,l),
(978,715,l),
(761,40,l),
(543,715,l),
(509,715,l),
(291,40,l),
(74,715,l),
(37,715,l),
(273,0,l)
);
}
);
};
layerId = "7E42F04B-02C7-4820-86B8-2B0FB151BFA8";
name = "May 23, 24 at 23:14";
shapes = (
{
closed = 1;
nodes = (
(245,0,l),
(581,678,l),
(680,0,l),
(715,0,l),
(1078,716,l),
(1041,716,l),
(705,51,l),
(609,716,l),
(564,716,l),
(234,50,l),
(134,716,l),
(100,716,l),
(210,0,l)
);
}
);
width = 1063;
},
{
anchors = (
{
name = bottom;
pos = (447,0);
},
{
name = top;
pos = (566,716);
}
);
background = {
shapes = (
{
closed = 1;
nodes = (
(260,0,l),
(445,609,l),
(631,0,l),
(720,0,l),
(950,716,l),
(859,716,l),
(675,104,l),
(489,716,l),
(401,716,l),
(217,104,l),
(33,716,l),
(-58,716,l),
(171,0,l)
);
}
);
};
layerId = "502A2428-35F6-4863-AD44-5AC44627310C";
name = Italic;
shapes = (
{
closed = 1;
nodes = (
(282,0,l),
(552,610,l),
(623,0,l),
(712,0,l),
(1055,716,l),
(963,716,l),
(683,106,l),
(615,716,l),
(518,716,l),
(252,106,l),
(179,716,l),
(90,716,l),
(193,0,l)
);
}
);
width = 1040;
},
{
anchors = (
{
name = bottom;
pos = (468,0);
},
{
name = top;
pos = (589,716);
}
);
associatedMasterId = "502A2428-35F6-4863-AD44-5AC44627310C";
background = {
shapes = (
{
closed = 1;
nodes = (
(281,0,l),
(466,609,l),
(652,0,l),
(741,0,l),
(971,716,l),
(880,716,l),
(696,104,l),
(510,716,l),
(422,716,l),
(238,104,l),
(54,716,l),
(-37,716,l),
(192,0,l)
);
}
);
};
layerId = "DEF71D73-CA27-455D-B995-24A78A69A6C9";
name = "May 23, 24 at 23:18";
shapes = (
{
closed = 1;
nodes = (
(284,0,l),
(572,606,l),
(650,0,l),
(742,0,l),
(1098,716,l),
(1000,716,l),
(711,110,l),
(636,716,l),
(539,716,l),
(256,108,l),
(180,716,l),
(90,716,l),
(193,0,l)
);
}
);
width = 1083;
},
{
anchors = (
{
name = bottom;
pos = (466,0);
},
{
name = top;
pos = (582,716);
}
);
background = {
shapes = (
{
closed = 1;
nodes = (
(431,0,l),
(536,437,l),
(640,0,l),
(864,0,l),
(1078,715,l),
(851,715,l),
(741,254,l),
(643,715,l),
(428,715,l),
(330,254,l),
(220,715,l),
(-7,715,l),
(206,0,l)
);
}
);
};
layerId = "42F8977D-8264-44FF-8A66-A72BD7D3E619";
name = "Black Italic";
shapes = (
{
closed = 1;
nodes = (
(383,0,l),
(540,436,l),
(555,0,l),
(785,0,l),
(1115,716,l),
(887,716,l),
(709,255,l),
(688,716,l),
(479,716,l),
(309,253,l),
(273,716,l),
(60,716,l),
(147,0,l)
);
}
);
width = 1055;
},
{
anchors = (
{
name = bottom;
pos = (477,0);
},
{
name = top;
pos = (603,716);
}
);
associatedMasterId = "42F8977D-8264-44FF-8A66-A72BD7D3E619";
background = {
shapes = (
{
closed = 1;
nodes = (
(445,0,l),
(550,437,l),
(654,0,l),
(878,0,l),
(1092,715,l),
(865,715,l),
(755,254,l),
(657,715,l),
(442,715,l),
(344,254,l),
(234,715,l),
(7,715,l),
(220,0,l)
);
}
);
};
layerId = "AB1B43C9-1D63-4A11-A1F2-C45C903E82DD";
name = "May 23, 24 at 23:21";
shapes = (
{
closed = 1;
nodes = (
(392,0,l),
(548,422,l),
(565,0,l),
(805,0,l),
(1145,716,l),
(917,716,l),
(729,255,l),
(708,716,l),
(491,716,l),
(317,253,l),
(281,716,l),
(60,716,l),
(147,0,l)
);
}
);
width = 1085;
}
);
unicode = 87;
}
{
glyphname = X;
kernLeft = X;
kernRight = K;
layers = (
{
anchors = (
{
name = bottom;
pos = (285,0);
},
{
name = top;
pos = (391,716);
}
);
background = {
shapes = (
{
closed = 1;
nodes = (
(218,0,l),
(348,217,l),
(479,0,l),
(717,0,l),
(474,368,l),
(706,715,l),
(468,715,l),
(348,522,l),
(228,715,l),
(-10,715,l),
(222,368,l),
(-21,0,l)
);
}
);
};
layerId = "42F8977D-8264-44FF-8A66-A72BD7D3E619";
shapes = (
{
closed = 1;
nodes = (
(181,0,l),
(323,215,l),
(398,0,l),
(627,0,l),
(458,365,l),
(737,716,l),
(488,716,l),
(357,527,l),
(288,716,l),
(55,716,l),
(220,368,l),
(-60,0,l)
);
}
);
width = 687;
},
{
anchors = (
{
name = bottom;
pos = (315,0);
},
{
name = top;
pos = (399,716);
}
);
background = {
shapes = (
{
closed = 1;
nodes = (
(86,0,l),
(358,343,l),
(631,0,l),
(674,0,l),
(380,368,l),
(662,715,l),
(619,715,l),
(358,393,l),
(96,715,l),
(53,715,l),
(336,368,l),
(43,0,l)
);
}
);
};
layerId = "1750929F-40DF-47FF-8B11-7621AD6711F1";
shapes = (
{
closed = 1;
nodes = (
(27,0,l),
(351,340,l),
(561,0,l),
(601,0,l),
(375,363,l),
(714,716,l),
(668,716,l),
(357,390,l),
(156,716,l),
(116,716,l),
(333,367,l),
(-20,0,l)
);
}
);
width = 699;
},
{
anchors = (
{
name = bottom;
pos = (290,0);
},
{
name = top;
pos = (384,716);
}
);
background = {
shapes = (
{
closed = 1;
nodes = (
(63,0,l),
(295,310,l),
(527,0,l),
(626,0,l),
(348,369,l),
(615,716,l),
(515,716,l),
(295,428,l),
(74,716,l),
(-25,716,l),
(242,369,l),
(-35,0,l)
);
}
);
};
layerId = "502A2428-35F6-4863-AD44-5AC44627310C";
shapes = (
{
closed = 1;
nodes = (
(65,0,l),
(330,305,l),
(499,0,l),
(594,0,l),
(389,365,l),
(705,716,l),
(597,716,l),
(344,429,l),
(185,716,l),
(90,716,l),
(288,369,l),
(-40,0,l)
);
}
);
width = 680;
},
{
anchors = (
{
name = bottom;
pos = (295,0);
},
{
name = top;
pos = (421,716);
}
);
associatedMasterId = "1750929F-40DF-47FF-8B11-7621AD6711F1";
background = {
shapes = (
{
closed = 1;
nodes = (
(86,0,l),
(358,343,l),
(631,0,l),
(674,0,l),
(380,368,l),
(662,715,l),
(619,715,l),
(358,393,l),
(96,715,l),
(53,715,l),
(336,368,l),
(43,0,l)
);
}
);
};
layerId = "5A4722B1-875A-4459-93C0-64A28754763B";
name = "May 23, 24 at 23:31";
shapes = (
{
closed = 1;
nodes = (
(27,0,l),
(356,340,l),
(570,0,l),
(610,0,l),
(381,363,l),
(725,716,l),
(678,716,l),
(362,390,l),
(158,716,l),
(118,716,l),
(338,367,l),
(-20,0,l)
);
}
);
width = 710;
},
{
anchors = (
{
name = bottom;
pos = (290,0);
},
{
name = top;
pos = (416,716);
}
);
associatedMasterId = "502A2428-35F6-4863-AD44-5AC44627310C";
background = {
shapes = (
{
closed = 1;
nodes = (
(63,0,l),
(295,310,l),
(527,0,l),
(626,0,l),
(348,369,l),
(615,716,l),
(515,716,l),
(295,428,l),
(74,716,l),
(-25,716,l),
(242,369,l),
(-35,0,l)
);
}
);
};
layerId = "2E0D13FC-C3CE-4BC5-BD82-AE80E653D437";
name = "May 23, 24 at 23:32";
shapes = (
{
closed = 1;
nodes = (
(70,0,l),
(346,305,l),
(522,0,l),
(621,0,l),
(405,365,l),
(736,716,l),
(624,716,l),
(360,430,l),
(195,716,l),
(96,716,l),
(303,369,l),
(-40,0,l)
);
}
);
width = 706;
},
{
anchors = (
{
name = bottom;
pos = (299,0);
},
{
name = top;
pos = (425,716);
}
);
associatedMasterId = "42F8977D-8264-44FF-8A66-A72BD7D3E619";
background = {
shapes = (
{
closed = 1;
nodes = (
(242,0,l),
(372,217,l),
(503,0,l),
(741,0,l),
(498,368,l),
(730,715,l),
(492,715,l),
(372,522,l),
(252,715,l),
(14,715,l),
(246,368,l),
(3,0,l)
);
}
);
};
layerId = "4CB05303-0393-4DD3-83EC-3587B35E1319";
name = "May 23, 24 at 23:34";
shapes = (
{
closed = 1;
nodes = (
(194,0,l),
(346,215,l),
(430,0,l),
(668,0,l),
(482,365,l),
(783,716,l),
(522,716,l),
(383,527,l),
(303,716,l),
(67,716,l),
(244,368,l),
(-60,0,l)
);
}
);
width = 733;
}
);
metricRight = K;
unicode = 88;
}
{
glyphname = Y;
kernLeft = Y;
kernRight = Y;
layers = (
{
anchors = (
{
name = bottom;
pos = (287,0);
},
{
name = top;
pos = (395,716);
},
{
name = topleft;
pos = (44,716);
}
);
background = {
shapes = (
{
closed = 1;
nodes = (
(462,0,l),
(462,265,l),
(729,715,l),
(491,715,l),
(360,458,l),
(230,715,l),
(-9,715,l),
(258,265,l),
(258,0,l)
);
}
);
};
layerId = "42F8977D-8264-44FF-8A66-A72BD7D3E619";
shapes = (
{
closed = 1;
nodes = (
(389,0,l),
(436,265,l),
(771,716,l),
(537,716,l),
(353,457,l),
(264,716,l),
(55,716,l),
(232,265,l),
(185,0,l)
);
}
);
width = 711;
},
{
anchors = (
{
name = bottom;
pos = (259,0);
},
{
name = top;
pos = (365,716);
},
{
name = topleft;
pos = (70,716);
}
);
background = {
shapes = (
{
closed = 1;
nodes = (
(340,0,l),
(340,287,l),
(638,715,l),
(597,715,l),
(322,315,l),
(48,715,l),
(7,715,l),
(305,287,l),
(305,0,l)
);
}
);
};
layerId = "1750929F-40DF-47FF-8B11-7621AD6711F1";
shapes = (
{
closed = 1;
nodes = (
(277,0,l),
(327,287,l),
(696,716,l),
(653,716,l),
(312,316,l),
(113,716,l),
(75,716,l),
(293,287,l),
(243,0,l)
);
}
);
width = 671;
},
{
anchors = (
{
name = bottom;
pos = (271,0);
},
{
name = top;
pos = (387,716);
},
{
name = topleft;
pos = (67,716);
}
);
background = {
shapes = (
{
closed = 1;
nodes = (
(312,0,l),
(312,279,l),
(602,716,l),
(505,716,l),
(271,355,l),
(38,716,l),
(-59,716,l),
(230,279,l),
(230,0,l)
);
}
);
};
layerId = "502A2428-35F6-4863-AD44-5AC44627310C";
shapes = (
{
closed = 1;
nodes = (
(312,0,l),
(361,279,l),
(715,716,l),
(615,716,l),
(325,349,l),
(169,716,l),
(80,716,l),
(279,279,l),
(230,0,l)
);
}
);
width = 685;
},
{
anchors = (
{
name = bottom;
pos = (259,0);
},
{
name = top;
pos = (385,716);
},
{
name = topleft;
pos = (70,716);
}
);
associatedMasterId = "1750929F-40DF-47FF-8B11-7621AD6711F1";
background = {
shapes = (
{
closed = 1;
nodes = (
(340,0,l),
(340,287,l),
(638,715,l),
(597,715,l),
(322,315,l),
(48,715,l),
(7,715,l),
(305,287,l),
(305,0,l)
);
}
);
};
layerId = "A86942E5-FC3F-48C7-ABF4-1491D81336C4";
name = "May 23, 24 at 23:40";
shapes = (
{
closed = 1;
nodes = (
(277,0,l),
(327,287,l),
(701,716,l),
(658,716,l),
(313,317,l),
(108,716,l),
(70,716,l),
(293,287,l),
(243,0,l)
);
}
);
width = 661;
},
{
anchors = (
{
name = bottom;
pos = (294,0);
},
{
name = top;
pos = (420,716);
},
{
name = topleft;
pos = (90,716);
}
);
associatedMasterId = "502A2428-35F6-4863-AD44-5AC44627310C";
background = {
shapes = (
{
closed = 1;
nodes = (
(335,0,l),
(335,279,l),
(625,716,l),
(528,716,l),
(294,355,l),
(61,716,l),
(-36,716,l),
(253,279,l),
(253,0,l)
);
}
);
};
layerId = "405C2210-02E6-4898-9FC0-CAA3539BCC3F";
name = "May 23, 24 at 23:42";
shapes = (
{
closed = 1;
nodes = (
(335,0,l),
(384,279,l),
(751,716,l),
(651,716,l),
(350,349,l),
(179,716,l),
(90,716,l),
(302,279,l),
(253,0,l)
);
}
);
width = 721;
},
{
anchors = (
{
name = bottom;
pos = (293,0);
},
{
name = top;
pos = (419,716);
},
{
name = topleft;
pos = (50,716);
}
);
associatedMasterId = "42F8977D-8264-44FF-8A66-A72BD7D3E619";
background = {
shapes = (
{
closed = 1;
nodes = (
(468,0,l),
(468,265,l),
(735,715,l),
(497,715,l),
(366,458,l),
(236,715,l),
(-3,715,l),
(264,265,l),
(264,0,l)
);
}
);
};
layerId = "F47CD344-B666-4DC3-B08D-7DEF03466C21";
name = "May 23, 24 at 23:43";
shapes = (
{
closed = 1;
nodes = (
(395,0,l),
(442,265,l),
(788,716,l),
(554,716,l),
(360,458,l),
(259,716,l),
(50,716,l),
(238,265,l),
(191,0,l)
);
}
);
width = 718;
}
);
unicode = 89;
}
{
glyphname = Z;
kernLeft = Z;
kernRight = Z;
layers = (
{
anchors = (
{
name = bottom;
pos = (273,0);
},
{
name = center;
pos = (333,358);
},
{
name = top;
pos = (399,716);
}
);
background = {
shapes = (
{
closed = 1;
nodes = (
(640,0,l),
(640,176,l),
(317,176,l),
(630,564,l),
(630,715,l),
(64,715,l),
(64,540,l),
(366,540,l),
(53,153,l),
(53,0,l)
);
}
);
};
layerId = "42F8977D-8264-44FF-8A66-A72BD7D3E619";
shapes = (
{
closed = 1;
nodes = (
(567,0,l),
(598,176,l),
(276,176,l),
(656,564,l),
(683,716,l),
(117,716,l),
(86,540,l),
(387,540,l),
(7,153,l),
(-20,0,l)
);
}
);
width = 678;
},
{
anchors = (
{
name = bottom;
pos = (235,0);
},
{
name = center;
pos = (293,358);
},
{
name = top;
pos = (361,716);
}
);
background = {
shapes = (
{
closed = 1;
nodes = (
(537,0,l),
(537,32,l),
(96,32,l),
(527,684,l),
(527,715,l),
(68,715,l),
(68,684,l),
(488,684,l),
(57,32,l),
(57,0,l)
);
}
);
};
layerId = "1750929F-40DF-47FF-8B11-7621AD6711F1";
shapes = (
{
closed = 1;
nodes = (
(475,0,l),
(481,32,l),
(41,32,l),
(585,684,l),
(591,716,l),
(132,716,l),
(126,684,l),
(545,684,l),
(1,32,l),
(-5,0,l)
);
}
);
width = 596;
},
{
anchors = (
{
name = bottom;
pos = (250,0);
},
{
name = center;
pos = (308,358);
},
{
name = top;
pos = (376,716);
}
);
background = {
shapes = (
{
closed = 1;
nodes = (
(508,0,l),
(508,74,l),
(96,74,l),
(497,651,l),
(497,716,l),
(7,716,l),
(7,642,l),
(396,642,l),
(-3,66,l),
(-3,0,l)
);
}
);
};
layerId = "502A2428-35F6-4863-AD44-5AC44627310C";
shapes = (
{
closed = 1;
nodes = (
(506,0,l),
(519,74,l),
(106,74,l),
(610,651,l),
(621,716,l),
(131,716,l),
(118,642,l),
(508,642,l),
(7,66,l),
(-5,0,l)
);
}
);
width = 621;
}
);
unicode = 90;
}
{
glyphname = bracketleft;
kernLeft = bracketleft;
kernRight = bracketleft;
layers = (
{
background = {
shapes = (
{
closed = 1;
nodes = (
(401,-270,l),
(401,-120,l),
(254,-120,l),
(254,641,l),
(401,641,l),
(401,791,l),
(83,791,l),
(83,-270,l)
);
},
{
closed = 1;
nodes = (
(378,-195,l),
(378,-45,l),
(231,-45,l),
(231,642,l),
(378,642,l),
(378,792,l),
(60,792,l),
(60,-195,l)
);
}
);
};
layerId = "42F8977D-8264-44FF-8A66-A72BD7D3E619";
shapes = (
{
closed = 1;
nodes = (
(303,-195,l),
(330,-45,l),
(183,-45,l),
(304,641,l),
(451,641,l),
(478,792,l),
(160,792,l),
(-15,-195,l)
);
}
);
width = 438;
},
{
background = {
shapes = (
{
closed = 1;
nodes = (
(313,-195,l),
(313,-163,l),
(127,-163,l),
(127,716,l),
(313,716,l),
(313,748,l),
(93,748,l),
(93,-195,l)
);
}
);
};
layerId = "1750929F-40DF-47FF-8B11-7621AD6711F1";
shapes = (
{
closed = 1;
nodes = (
(220,-195,l),
(226,-163,l),
(40,-163,l),
(195,716,l),
(381,716,l),
(387,748,l),
(167,748,l),
(0,-195,l)
);
}
);
width = 377;
},
{
background = {
shapes = (
{
closed = 1;
nodes = (
(328,-195,l),
(328,-129,l),
(153,-129,l),
(153,716,l),
(328,716,l),
(328,782,l),
(80,782,l),
(80,-195,l)
);
}
);
};
layerId = "502A2428-35F6-4863-AD44-5AC44627310C";
shapes = (
{
closed = 1;
nodes = (
(243,-195,l),
(255,-129,l),
(80,-129,l),
(229,716,l),
(404,716,l),
(416,782,l),
(168,782,l),
(-5,-195,l)
);
}
);
width = 396;
}
);
unicode = 91;
}
{
glyphname = backslash;
kernLeft = backslash;
kernRight = backslash;
layers = (
{
background = {
shapes = (
{
closed = 1;
nodes = (
(417,0,l),
(184,715,l),
(12,715,l),
(247,0,l)
);
}
);
};
layerId = "42F8977D-8264-44FF-8A66-A72BD7D3E619";
shapes = (
{
closed = 1;
nodes = (
(354,0,l),
(247,716,l),
(75,716,l),
(184,0,l)
);
}
);
width = 429;
},
{
background = {
shapes = (
{
closed = 1;
nodes = (
(290,0,l),
(56,715,l),
(22,715,l),
(255,0,l)
);
}
);
};
layerId = "1750929F-40DF-47FF-8B11-7621AD6711F1";
shapes = (
{
closed = 1;
nodes = (
(217,0,l),
(109,716,l),
(75,716,l),
(183,0,l)
);
}
);
width = 302;
},
{
layerId = "502A2428-35F6-4863-AD44-5AC44627310C";
shapes = (
{
closed = 1;
nodes = (
(271,0,l),
(163,716,l),
(90,716,l),
(198,0,l)
);
}
);
width = 361;
}
);
unicode = 92;
}
{
glyphname = bracketright;
kernLeft = bracketright;
kernRight = bracketright;
layers = (
{
layerId = "42F8977D-8264-44FF-8A66-A72BD7D3E619";
shapes = (
{
closed = 1;
nodes = (
(256,-195,l),
(431,792,l),
(115,792,l),
(88,642,l),
(233,642,l),
(112,-45,l),
(-33,-45,l),
(-60,-195,l)
);
}
);
width = 431;
},
{
background = {
shapes = (
{
closed = 1;
nodes = (
(284,-270,l),
(284,791,l),
(63,791,l),
(63,758,l),
(250,758,l),
(250,-237,l),
(63,-237,l),
(63,-270,l)
);
}
);
};
layerId = "1750929F-40DF-47FF-8B11-7621AD6711F1";
shapes = (
{
closed = 1;
nodes = (
(176,-195,l),
(343,748,l),
(122,748,l),
(116,716,l),
(303,716,l),
(148,-163,l),
(-39,-163,l),
(-45,-195,l)
);
}
);
width = 373;
},
{
layerId = "502A2428-35F6-4863-AD44-5AC44627310C";
shapes = (
{
closed = 1;
nodes = (
(204,-195,l),
(377,782,l),
(128,782,l),
(116,716,l),
(291,716,l),
(142,-129,l),
(-33,-129,l),
(-45,-195,l)
);
}
);
width = 392;
}
);
unicode = 93;
}
{
glyphname = asciicircum;
layers = (
{
background = {
shapes = (
{
closed = 1;
nodes = (
(224,266,l),
(302,542,l),
(379,266,l),
(549,266,l),
(397,715,l),
(207,715,l),
(56,266,l)
);
}
);
};
layerId = "42F8977D-8264-44FF-8A66-A72BD7D3E619";
shapes = (
{
closed = 1;
nodes = (
(208,266,l),
(335,544,l),
(363,266,l),
(533,266,l),
(460,716,l),
(270,716,l),
(40,266,l)
);
}
);
width = 613;
},
{
background = {
shapes = (
{
closed = 1;
nodes = (
(112,373,l),
(251,680,l),
(390,373,l),
(424,373,l),
(266,715,l),
(236,715,l),
(77,373,l)
);
}
);
};
layerId = "1750929F-40DF-47FF-8B11-7621AD6711F1";
shapes = (
{
closed = 1;
nodes = (
(105,373,l),
(299,681,l),
(384,373,l),
(417,373,l),
(318,716,l),
(289,716,l),
(70,373,l)
);
}
);
width = 502;
},
{
layerId = "502A2428-35F6-4863-AD44-5AC44627310C";
shapes = (
{
closed = 1;
nodes = (
(139,343,l),
(313,642,l),
(382,343,l),
(453,343,l),
(364,716,l),
(288,716,l),
(65,343,l)
);
}
);
width = 528;
}
);
unicode = 94;
}
{
glyphname = underscore;
kernLeft = underscore;
kernRight = underscore;
layers = (
{
background = {
shapes = (
{
closed = 1;
nodes = (
(576,-172,l),
(576,-43,l),
(18,-43,l),
(18,-172,l)
);
}
);
};
layerId = "42F8977D-8264-44FF-8A66-A72BD7D3E619";
shapes = (
{
closed = 1;
nodes = (
(483,-172,l),
(505,-43,l),
(-53,-43,l),
(-75,-172,l)
);
}
);
width = 580;
},
{
background = {
shapes = (
{
closed = 1;
nodes = (
(489,-79,l),
(489,-49,l),
(17,-49,l),
(17,-79,l)
);
}
);
};
layerId = "1750929F-40DF-47FF-8B11-7621AD6711F1";
shapes = (
{
closed = 1;
nodes = (
(402,-79,l),
(407,-49,l),
(-65,-49,l),
(-70,-79,l)
);
}
);
width = 482;
},
{
layerId = "502A2428-35F6-4863-AD44-5AC44627310C";
shapes = (
{
closed = 1;
nodes = (
(430,-105,l),
(441,-47,l),
(-54,-47,l),
(-65,-105,l)
);
}
);
width = 521;
}
);
unicode = 95;
}
{
glyphname = a;
kernLeft = c;
kernRight = u;
layers = (
{
anchors = (
{
name = bottom;
pos = (224,0);
},
{
name = ogonek;
pos = (496,0);
},
{
name = top;
pos = (313,504);
}
);
background = {
shapes = (
{
closed = 1;
nodes = (
(499,0,l),
(588,504,l),
(404,504,l),
(390,449,l),
(367,487,o),
(323,514,o),
(258,514,cs),
(124,514,o),
(7,425,o),
(-22,259,cs),
(-52,93,o),
(43,-10,o),
(177,-10,cs),
(233,-10,o),
(280,2,o),
(315,33,c),
(305,0,l)
);
},
{
closed = 1;
nodes = (
(186,155,o),
(160,184,o),
(171,245,cs),
(182,305,o),
(233,349,o),
(288,349,cs),
(343,349,o),
(369,319,o),
(359,259,cs),
(348,198,o),
(296,155,o),
(241,155,cs)
);
}
);
};
layerId = "42F8977D-8264-44FF-8A66-A72BD7D3E619";
shapes = (
{
closed = 1;
nodes = (
(239,-10,o),
(280,10,o),
(319,54,c),
(304,0,l),
(498,0,l),
(587,504,l),
(393,504,l),
(384,451,l),
(358,486,o),
(315,514,o),
(249,514,cs),
(108,514,o),
(-5,354,o),
(-5,187,cs),
(-5,59,o),
(73,-10,o),
(175,-10,cs)
);
},
{
closed = 1;
nodes = (
(210,163,o),
(184,193,o),
(191,239,cs),
(199,295,o),
(234,338,o),
(285,338,cs),
(317,338,o),
(339,323,o),
(358,304,c),
(353,273,ls),
(342,207,o),
(304,163,o),
(251,163,cs)
);
}
);
width = 612;
},
{
anchors = (
{
name = bottom;
pos = (218,0);
},
{
name = ogonek;
pos = (457,0);
},
{
name = top;
pos = (307,504);
}
);
background = {
shapes = (
{
closed = 1;
nodes = (
(457,0,l),
(546,504,l),
(470,504,l),
(452,410,l),
(432,472,o),
(369,514,o),
(281,514,cs),
(141,514,o),
(24,417,o),
(-4,255,cs),
(-33,93,o),
(54,-10,o),
(194,-10,cs),
(280,-10,o),
(352,26,o),
(395,84,c),
(379,0,l)
);
},
{
closed = 1;
nodes = (
(112,58,o),
(54,128,o),
(75,249,cs),
(96,370,o),
(185,446,o),
(288,446,cs),
(389,446,o),
(447,376,o),
(426,255,cs),
(405,134,o),
(316,58,o),
(215,58,cs)
);
}
);
};
layerId = "502A2428-35F6-4863-AD44-5AC44627310C";
shapes = (
{
closed = 1;
nodes = (
(283,-10,o),
(350,28,o),
(395,84,c),
(379,0,l),
(457,0,l),
(546,504,l),
(468,504,l),
(459,456,l),
(423,485,o),
(380,514,o),
(293,514,cs),
(144,514,o),
(20,358,o),
(20,187,cs),
(20,70,o),
(88,-10,o),
(206,-10,cs)
);
},
{
closed = 1;
nodes = (
(149,58,o),
(100,108,o),
(100,188,cs),
(100,321,o),
(182,445,o),
(299,445,cs),
(379,445,o),
(425,406,o),
(448,380,c),
(429,270,ls),
(408,150,o),
(311,58,o),
(225,58,cs)
);
}
);
width = 591;
},
{
anchors = (
{
name = bottom;
pos = (227,0);
},
{
name = ogonek;
pos = (451,0);
},
{
name = top;
pos = (316,504);
}
);
background = {
shapes = (
{
closed = 1;
nodes = (
(452,0,l),
(541,504,l),
(509,504,l),
(487,382,l),
(470,463,o),
(400,514,o),
(302,514,cs),
(128,514,o),
(10,361,o),
(10,192,cs),
(10,67,o),
(89,-10,o),
(212,-10,cs),
(310,-10,o),
(396,39,o),
(441,120,c),
(420,0,l)
);
},
{
closed = 1;
nodes = (
(111,21,o),
(45,84,o),
(45,195,cs),
(45,341,o),
(142,483,o),
(299,483,cs),
(403,483,o),
(470,419,o),
(470,308,cs),
(470,164,o),
(372,21,o),
(215,21,cs)
);
}
);
};
layerId = "1750929F-40DF-47FF-8B11-7621AD6711F1";
name = "Thin Italic";
shapes = (
{
closed = 1;
nodes = (
(326,-10,o),
(398,39,o),
(441,120,c),
(420,0,l),
(452,0,l),
(541,504,l),
(509,504,l),
(500,451,l),
(456,482,o),
(410,514,o),
(326,514,cs),
(170,514,o),
(40,359,o),
(40,180,cs),
(40,65,o),
(106,-10,o),
(228,-10,cs)
);
},
{
closed = 1;
nodes = (
(128,21,o),
(75,82,o),
(75,183,cs),
(75,339,o),
(184,483,o),
(323,483,cs),
(410,483,o),
(461,443,o),
(493,416,c),
(472,291,ls),
(448,150,o),
(371,21,o),
(231,21,cs)
);
}
);
width = 601;
}
);
metricLeft = c;
unicode = 97;
}
{
glyphname = b;
kernLeft = h;
kernRight = b;
layers = (
{
anchors = (
{
name = bottom;
pos = (264,0);
},
{
name = center;
pos = (308,252);
},
{
name = top;
pos = (353,504);
}
);
background = {
shapes = (
{
closed = 1;
nodes = (
(524,-10,o),
(631,86,o),
(631,252,cs),
(631,418,o),
(524,515,o),
(390,515,cs),
(333,515,o),
(288,496,o),
(259,466,c),
(259,715,l),
(65,715,l),
(65,0,l),
(247,0,l),
(247,49,l),
(279,12,o),
(326,-10,o),
(390,-10,cs)
);
},
{
closed = 1;
nodes = (
(288,155,o),
(249,191,o),
(249,252,cs),
(249,312,o),
(288,349,o),
(343,349,cs),
(398,349,o),
(436,312,o),
(436,252,cs),
(436,191,o),
(398,155,o),
(343,155,cs)
);
}
);
};
layerId = "42F8977D-8264-44FF-8A66-A72BD7D3E619";
shapes = (
{
closed = 1;
nodes = (
(473,-10,o),
(583,145,o),
(583,303,cs),
(583,435,o),
(512,514,o),
(404,514,cs),
(347,514,o),
(300,493,o),
(265,471,c),
(312,716,l),
(118,716,l),
(0,45,l),
(74,14,o),
(147,-10,o),
(289,-10,cs)
);
},
{
closed = 1;
nodes = (
(247,158,o),
(225,161,o),
(208,165,c),
(217,226,ls),
(227,297,o),
(276,348,o),
(330,348,cs),
(374,348,o),
(389,312,o),
(386,276,cs),
(381,212,o),
(338,158,o),
(268,158,cs)
);
}
);
width = 628;
},
{
anchors = (
{
name = bottom;
pos = (254,0);
},
{
name = center;
pos = (298,252);
},
{
name = top;
pos = (343,504);
}
);
background = {
shapes = (
{
closed = 1;
nodes = (
(484,-10,o),
(584,91,o),
(584,252,cs),
(584,412,o),
(484,515,o),
(343,515,cs),
(245,515,o),
(166,464,o),
(136,383,c),
(136,715,l),
(104,715,l),
(104,0,l),
(136,0,l),
(136,121,l),
(166,40,o),
(245,-10,o),
(343,-10,cs)
);
},
{
closed = 1;
nodes = (
(223,19,o),
(136,107,o),
(136,252,cs),
(136,396,o),
(223,484,o),
(343,484,cs),
(463,484,o),
(550,396,o),
(550,252,cs),
(550,107,o),
(463,19,o),
(343,19,cs)
);
}
);
};
layerId = "1750929F-40DF-47FF-8B11-7621AD6711F1";
shapes = (
{
closed = 1;
nodes = (
(430,-10,o),
(528,144,o),
(528,310,cs),
(528,436,o),
(469,514,o),
(346,514,cs),
(254,514,o),
(186,458,o),
(129,380,c),
(189,716,l),
(157,716,l),
(40,48,l),
(124,6,o),
(180,-10,o),
(253,-10,cs)
);
},
{
closed = 1;
nodes = (
(186,21,o),
(117,43,o),
(74,67,c),
(103,240,ls),
(127,378,o),
(239,483,o),
(343,483,cs),
(443,483,o),
(494,419,o),
(494,308,cs),
(494,164,o),
(409,21,o),
(255,21,cs)
);
}
);
width = 608;
},
{
anchors = (
{
name = bottom;
pos = (243,0);
},
{
name = center;
pos = (287,252);
},
{
name = top;
pos = (332,504);
}
);
layerId = "502A2428-35F6-4863-AD44-5AC44627310C";
shapes = (
{
closed = 1;
nodes = (
(437,-10,o),
(541,143,o),
(541,309,cs),
(541,436,o),
(468,514,o),
(349,514,cs),
(275,514,o),
(211,482,o),
(158,422,c),
(210,716,l),
(132,716,l),
(15,51,l),
(88,15,o),
(162,-10,o),
(260,-10,cs)
);
},
{
closed = 1;
nodes = (
(189,59,o),
(132,78,o),
(101,94,c),
(119,201,ls),
(139,320,o),
(210,446,o),
(342,446,cs),
(414,446,o),
(461,394,o),
(461,302,cs),
(461,179,o),
(383,59,o),
(259,59,cs)
);
}
);
width = 606;
},
{
anchors = (
{
name = bottom;
pos = (263,0);
},
{
name = center;
pos = (307,252);
},
{
name = top;
pos = (352,504);
}
);
associatedMasterId = "1750929F-40DF-47FF-8B11-7621AD6711F1";
background = {
shapes = (
{
closed = 1;
nodes = (
(493,-10,o),
(593,91,o),
(593,252,cs),
(593,412,o),
(493,515,o),
(352,515,cs),
(254,515,o),
(175,464,o),
(145,383,c),
(145,715,l),
(113,715,l),
(113,0,l),
(145,0,l),
(145,121,l),
(175,40,o),
(254,-10,o),
(352,-10,cs)
);
},
{
closed = 1;
nodes = (
(232,19,o),
(145,107,o),
(145,252,cs),
(145,396,o),
(232,484,o),
(352,484,cs),
(472,484,o),
(559,396,o),
(559,252,cs),
(559,107,o),
(472,19,o),
(352,19,cs)
);
}
);
};
layerId = "E136DB8F-FB6B-45CA-837A-F1152A604C2B";
name = "May 15, 24 at 23:37";
shapes = (
{
closed = 1;
nodes = (
(72,0,l),
(82,54,l),
(130,14,o),
(198,-10,o),
(282,-10,cs),
(459,-10,o),
(550,144,o),
(550,310,cs),
(550,436,o),
(482,514,o),
(359,514,cs),
(267,514,o),
(192,465,o),
(139,384,c),
(198,716,l),
(166,716,l),
(40,0,l)
);
},
{
closed = 1;
nodes = (
(202,21,o),
(132,45,o),
(87,91,c),
(114,250,l),
(138,378,o),
(234,483,o),
(356,483,cs),
(459,483,o),
(516,419,o),
(516,308,cs),
(516,164,o),
(437,21,o),
(281,21,cs)
);
}
);
width = 600;
},
{
anchors = (
{
name = bottom;
pos = (264,0);
},
{
name = center;
pos = (308,252);
},
{
name = top;
pos = (353,504);
}
);
associatedMasterId = "42F8977D-8264-44FF-8A66-A72BD7D3E619";
background = {
shapes = (
{
closed = 1;
nodes = (
(524,-10,o),
(631,86,o),
(631,252,cs),
(631,418,o),
(524,515,o),
(390,515,cs),
(333,515,o),
(288,496,o),
(259,466,c),
(259,715,l),
(65,715,l),
(65,0,l),
(247,0,l),
(247,49,l),
(279,12,o),
(326,-10,o),
(390,-10,cs)
);
},
{
closed = 1;
nodes = (
(288,155,o),
(249,191,o),
(249,252,cs),
(249,312,o),
(288,349,o),
(343,349,cs),
(398,349,o),
(436,312,o),
(436,252,cs),
(436,191,o),
(398,155,o),
(343,155,cs)
);
}
);
};
layerId = "09A7B955-B9D9-45AA-875D-CF61AC2A46FF";
name = "May 24, 24 at 00:22";
shapes = (
{
closed = 1;
nodes = (
(480,-10,o),
(593,145,o),
(593,303,cs),
(593,435,o),
(519,514,o),
(401,514,cs),
(344,514,o),
(299,501,o),
(265,471,c),
(312,716,l),
(118,716,l),
(0,45,l),
(74,15,o),
(149,-10,o),
(291,-10,cs)
);
},
{
closed = 1;
nodes = (
(258,158,o),
(225,161,o),
(208,165,c),
(217,226,ls),
(227,297,o),
(270,348,o),
(330,348,cs),
(379,348,o),
(396,312,o),
(396,276,cs),
(396,204,o),
(348,158,o),
(287,158,cs)
);
}
);
width = 623;
}
);
metricLeft = h;
unicode = 98;
}
{
glyphname = c;
kernLeft = c;
kernRight = c;
layers = (
{
anchors = (
{
name = bottom;
pos = (222,0);
},
{
name = top;
pos = (309,504);
}
);
background = {
shapes = (
{
closed = 1;
nodes = (
(382,-10,o),
(440,6,o),
(499,45,c),
(435,188,l),
(387,164,o),
(353,155,o),
(309,155,cs),
(254,155,o),
(216,190,o),
(216,252,cs),
(216,313,o),
(254,349,o),
(309,349,cs),
(353,349,o),
(387,340,o),
(435,315,c),
(499,459,l),
(440,497,o),
(382,515,o),
(309,515,cs),
(142,515,o),
(21,408,o),
(21,252,cs),
(21,94,o),
(142,-10,o),
(309,-10,cs)
);
}
);
};
layerId = "42F8977D-8264-44FF-8A66-A72BD7D3E619";
shapes = (
{
closed = 1;
nodes = (
(315,-10,o),
(381,9,o),
(445,49,c),
(374,188,l),
(340,165,o),
(308,156,o),
(274,156,cs),
(222,156,o),
(195,189,o),
(195,228,cs),
(195,295,o),
(249,350,o),
(312,350,cs),
(354,350,o),
(382,331,o),
(403,308,c),
(495,436,l),
(462,474,o),
(400,515,o),
(312,515,cs),
(141,515,o),
(0,380,o),
(0,204,cs),
(0,73,o),
(93,-10,o),
(242,-10,cs)
);
}
);
width = 500;
},
{
anchors = (
{
name = bottom;
pos = (240,0);
},
{
name = top;
pos = (332,504);
}
);
background = {
shapes = (
{
closed = 1;
nodes = (
(398,-10,o),
(456,14,o),
(497,55,c),
(480,79,l),
(437,40,o),
(386,19,o),
(325,19,cs),
(200,19,o),
(114,107,o),
(114,252,cs),
(114,396,o),
(200,484,o),
(325,484,cs),
(386,484,o),
(437,464,o),
(480,425,c),
(497,448,l),
(456,490,o),
(398,515,o),
(325,515,cs),
(179,515,o),
(80,412,o),
(80,252,cs),
(80,91,o),
(179,-10,o),
(325,-10,cs)
);
}
);
};
layerId = "1750929F-40DF-47FF-8B11-7621AD6711F1";
shapes = (
{
closed = 1;
nodes = (
(320,-10,o),
(381,13,o),
(429,54,c),
(412,79,l),
(363,40,o),
(311,21,o),
(252,21,cs),
(153,21,o),
(80,84,o),
(80,195,cs),
(80,341,o),
(172,483,o),
(331,483,cs),
(390,483,o),
(444,459,o),
(476,420,c),
(495,441,l),
(461,483,o),
(406,514,o),
(334,514,cs),
(162,514,o),
(45,365,o),
(45,192,cs),
(45,67,o),
(133,-10,o),
(248,-10,cs)
);
}
);
width = 545;
},
{
anchors = (
{
name = bottom;
pos = (215,0);
},
{
name = top;
pos = (305,504);
}
);
layerId = "502A2428-35F6-4863-AD44-5AC44627310C";
shapes = (
{
closed = 1;
nodes = (
(303,-10,o),
(356,12,o),
(408,52,c),
(371,109,l),
(326,75,o),
(286,58,o),
(237,58,cs),
(148,58,o),
(99,110,o),
(99,201,cs),
(99,320,o),
(177,446,o),
(302,446,cs),
(350,446,o),
(389,427,o),
(420,395,c),
(466,444,l),
(428,485,o),
(382,514,o),
(298,514,cs),
(148,514,o),
(20,373,o),
(20,199,cs),
(20,72,o),
(97,-10,o),
(230,-10,cs)
);
}
);
width = 501;
},
{
anchors = (
{
name = bottom;
pos = (233,0);
},
{
name = top;
pos = (327,504);
}
);
associatedMasterId = "1750929F-40DF-47FF-8B11-7621AD6711F1";
background = {
shapes = (
{
closed = 1;
nodes = (
(393,-10,o),
(451,14,o),
(492,55,c),
(475,79,l),
(432,40,o),
(381,19,o),
(320,19,cs),
(195,19,o),
(109,107,o),
(109,252,cs),
(109,396,o),
(195,484,o),
(320,484,cs),
(381,484,o),
(432,464,o),
(475,425,c),
(492,448,l),
(451,490,o),
(393,515,o),
(320,515,cs),
(174,515,o),
(75,412,o),
(75,252,cs),
(75,91,o),
(174,-10,o),
(320,-10,cs)
);
}
);
};
layerId = "05164058-1A88-4758-B6C6-F732FE649416";
name = "May 24, 24 at 00:28";
shapes = (
{
closed = 1;
nodes = (
(319,-10,o),
(381,13,o),
(429,54,c),
(412,79,l),
(362,40,o),
(309,21,o),
(249,21,cs),
(144,21,o),
(75,84,o),
(75,195,cs),
(75,341,o),
(172,483,o),
(333,483,cs),
(393,483,o),
(441,459,o),
(474,420,c),
(493,441,l),
(459,483,o),
(409,514,o),
(336,514,cs),
(161,514,o),
(40,365,o),
(40,192,cs),
(40,67,o),
(119,-10,o),
(246,-10,cs)
);
}
);
width = 543;
},
{
anchors = (
{
name = bottom;
pos = (220,0);
},
{
name = top;
pos = (315,504);
}
);
associatedMasterId = "502A2428-35F6-4863-AD44-5AC44627310C";
layerId = "9AACBE87-739F-434A-AAB8-846B766453F1";
name = "May 24, 24 at 00:31";
shapes = (
{
closed = 1;
nodes = (
(312,-10,o),
(374,10,o),
(426,50,c),
(389,109,l),
(344,74,o),
(295,58,o),
(246,58,cs),
(155,58,o),
(99,110,o),
(99,201,cs),
(99,320,o),
(178,446,o),
(316,446,cs),
(365,446,o),
(403,432,o),
(438,395,c),
(484,444,l),
(446,485,o),
(396,514,o),
(323,514,cs),
(145,514,o),
(20,373,o),
(20,199,cs),
(20,72,o),
(106,-10,o),
(239,-10,cs)
);
}
);
width = 519;
},
{
anchors = (
{
name = bottom;
pos = (222,0);
},
{
name = top;
pos = (321,504);
}
);
associatedMasterId = "42F8977D-8264-44FF-8A66-A72BD7D3E619";
background = {
shapes = (
{
closed = 1;
nodes = (
(392,-10,o),
(450,6,o),
(509,45,c),
(445,188,l),
(397,164,o),
(363,155,o),
(319,155,cs),
(264,155,o),
(226,190,o),
(226,252,cs),
(226,313,o),
(264,349,o),
(319,349,cs),
(363,349,o),
(397,340,o),
(445,315,c),
(509,459,l),
(450,497,o),
(392,515,o),
(319,515,cs),
(152,515,o),
(31,408,o),
(31,252,cs),
(31,94,o),
(152,-10,o),
(319,-10,cs)
);
}
);
};
layerId = "B004A987-7580-48A4-8039-5AB5F7B3D599";
name = "May 24, 24 at 00:34";
shapes = (
{
closed = 1;
nodes = (
(325,-10,o),
(394,8,o),
(460,47,c),
(389,188,l),
(355,165,o),
(314,151,o),
(270,156,cs),
(223,161,o),
(195,189,o),
(195,233,cs),
(195,297,o),
(245,350,o),
(305,350,cs),
(352,350,o),
(383,334,o),
(407,312,c),
(510,436,l),
(472,474,o),
(400,515,o),
(322,515,cs),
(141,515,o),
(0,386,o),
(0,210,cs),
(0,79,o),
(103,-10,o),
(252,-10,cs)
);
}
);
width = 515;
}
);
unicode = 99;
}
{
glyphname = d;
kernLeft = c;
kernRight = H;
layers = (
{
anchors = (
{
name = bottom;
pos = (229,0);
},
{
name = center;
pos = (273,252);
},
{
name = ogonek;
pos = (501,0);
},
{
name = top;
pos = (317,502);
},
{
name = topright;
pos = (628,716);
}
);
background = {
shapes = (
{
closed = 1;
nodes = (
(315,-10,o),
(362,12,o),
(392,49,c),
(392,0,l),
(575,0,l),
(575,715,l),
(382,715,l),
(382,466,l),
(352,496,o),
(306,515,o),
(250,515,cs),
(116,515,o),
(9,418,o),
(9,252,cs),
(9,86,o),
(116,-10,o),
(250,-10,cs)
);
},
{
closed = 1;
nodes = (
(242,155,o),
(204,191,o),
(204,252,cs),
(204,312,o),
(242,349,o),
(297,349,cs),
(352,349,o),
(390,312,o),
(390,252,cs),
(390,191,o),
(352,155,o),
(297,155,cs)
);
}
);
};
layerId = "42F8977D-8264-44FF-8A66-A72BD7D3E619";
shapes = (
{
closed = 1;
nodes = (
(244,-10,o),
(285,10,o),
(324,54,c),
(309,0,l),
(503,0,l),
(629,716,l),
(435,716,l),
(389,451,l),
(363,486,o),
(320,514,o),
(254,514,cs),
(113,514,o),
(0,354,o),
(0,187,cs),
(0,59,o),
(78,-10,o),
(180,-10,cs)
);
},
{
closed = 1;
nodes = (
(215,163,o),
(189,193,o),
(196,239,cs),
(204,295,o),
(239,338,o),
(290,338,cs),
(322,338,o),
(344,323,o),
(363,304,c),
(358,273,ls),
(347,207,o),
(309,163,o),
(256,163,cs)
);
}
);
width = 624;
},
{
anchors = (
{
name = bottom;
pos = (227,0);
},
{
name = center;
pos = (271,252);
},
{
name = ogonek;
pos = (451,0);
},
{
name = top;
pos = (316,504);
},
{
name = topright;
pos = (577,716);
}
);
background = {
shapes = (
{
closed = 1;
nodes = (
(384,-10,o),
(462,40,o),
(493,121,c),
(493,0,l),
(525,0,l),
(525,715,l),
(493,715,l),
(493,383,l),
(462,464,o),
(384,515,o),
(286,515,cs),
(144,515,o),
(45,412,o),
(45,252,cs),
(45,91,o),
(144,-10,o),
(286,-10,cs)
);
},
{
closed = 1;
nodes = (
(165,19,o),
(79,107,o),
(79,252,cs),
(79,396,o),
(165,484,o),
(286,484,cs),
(406,484,o),
(493,396,o),
(493,252,cs),
(493,107,o),
(406,19,o),
(286,19,cs)
);
}
);
};
layerId = "1750929F-40DF-47FF-8B11-7621AD6711F1";
shapes = (
{
closed = 1;
nodes = (
(326,-10,o),
(398,39,o),
(441,120,c),
(420,0,l),
(452,0,l),
(577,716,l),
(545,716,l),
(500,451,l),
(456,482,o),
(410,514,o),
(326,514,cs),
(170,514,o),
(40,359,o),
(40,180,cs),
(40,65,o),
(106,-10,o),
(228,-10,cs)
);
},
{
closed = 1;
nodes = (
(128,21,o),
(75,82,o),
(75,183,cs),
(75,339,o),
(184,483,o),
(323,483,cs),
(410,483,o),
(461,443,o),
(493,416,c),
(472,291,ls),
(448,150,o),
(371,21,o),
(231,21,cs)
);
}
);
width = 617;
},
{
anchors = (
{
name = bottom;
pos = (228,0);
},
{
name = center;
pos = (272,252);
},
{
name = ogonek;
pos = (467,0);
},
{
name = top;
pos = (317,504);
},
{
name = topright;
pos = (593,716);
}
);
layerId = "502A2428-35F6-4863-AD44-5AC44627310C";
shapes = (
{
closed = 1;
nodes = (
(293,-10,o),
(362,26,o),
(405,84,c),
(389,0,l),
(467,0,l),
(593,716,l),
(515,716,l),
(469,456,l),
(433,485,o),
(390,514,o),
(303,514,cs),
(143,514,o),
(20,358,o),
(20,187,cs),
(20,70,o),
(88,-10,o),
(220,-10,cs)
);
},
{
closed = 1;
nodes = (
(142,58,o),
(100,115,o),
(100,195,cs),
(100,325,o),
(185,445,o),
(309,445,cs),
(389,445,o),
(435,406,o),
(458,380,c),
(439,270,ls),
(418,150,o),
(325,58,o),
(235,58,cs)
);
}
);
width = 608;
}
);
metricLeft = c;
metricRight = H;
unicode = 100;
}
{
glyphname = e;
kernLeft = c;
kernRight = e;
layers = (
{
anchors = (
{
name = bottom;
pos = (228,0);
},
{
name = ogonek;
pos = (348,0);
},
{
name = top;
pos = (317,504);
}
);
background = {
shapes = (
{
closed = 1;
nodes = (
(349,-10,o),
(430,6,o),
(503,48,c),
(463,184,l),
(415,162,o),
(358,140,o),
(303,140,cs),
(231,140,o),
(196,154,o),
(195,198,c),
(528,199,l),
(544,223,o),
(555,258,o),
(561,287,cs),
(563,300,o),
(564,312,o),
(564,324,cs),
(564,436,o),
(468,514,o),
(327,514,cs),
(146,514,o),
(7,383,o),
(7,206,cs),
(7,61,o),
(125,-10,o),
(267,-10,cs)
);
},
{
closed = 1;
nodes = (
(229,341,o),
(269,374,o),
(320,374,cs),
(366,374,o),
(379,361,o),
(375,336,cs),
(374,332,o),
(370,328,o),
(367,324,c),
(217,311,l)
);
}
);
};
layerId = "42F8977D-8264-44FF-8A66-A72BD7D3E619";
shapes = (
{
closed = 1;
nodes = (
(359,-10,o),
(443,25,o),
(501,64,c),
(432,187,l),
(393,161,o),
(339,142,o),
(289,138,cs),
(226,133,o),
(183,154,o),
(183,198,cs),
(183,245,o),
(182,360,o),
(287,375,cs),
(316,379,o),
(327,367,o),
(327,351,cs),
(327,338,o),
(315,322,o),
(299,315,cs),
(270,302,o),
(225,290,o),
(162,293,c),
(158,178,l),
(281,182,o),
(374,212,o),
(432,245,cs),
(487,276,o),
(510,312,o),
(510,363,cs),
(510,426,o),
(466,514,o),
(317,514,cs),
(136,514,o),
(0,383,o),
(0,206,cs),
(0,61,o),
(115,-10,o),
(247,-10,cs)
);
}
);
width = 555;
},
{
anchors = (
{
name = bottom;
pos = (236,0);
},
{
name = ogonek;
pos = (321,0);
},
{
name = top;
pos = (332,504);
}
);
background = {
shapes = (
{
closed = 1;
nodes = (
(334,-10,o),
(396,12,o),
(455,62,c),
(439,89,l),
(383,43,o),
(327,21,o),
(254,21,cs),
(117,21,o),
(64,115,o),
(84,245,c),
(498,245,l),
(504,256,o),
(513,276,o),
(517,297,cs),
(520,311,o),
(521,325,o),
(521,339,cs),
(521,437,o),
(455,514,o),
(330,514,cs),
(162,514,o),
(45,355,o),
(45,192,cs),
(45,67,o),
(124,-10,o),
(251,-10,cs)
);
},
{
closed = 1;
nodes = (
(121,407,o),
(224,483,o),
(327,483,cs),
(433,483,o),
(486,423,o),
(486,338,cs),
(486,323,o),
(484,288,o),
(475,277,c),
(89,275,l)
);
}
);
};
layerId = "1750929F-40DF-47FF-8B11-7621AD6711F1";
shapes = (
{
closed = 1;
nodes = (
(334,-10,o),
(402,21,o),
(451,62,c),
(434,89,l),
(392,53,o),
(329,21,o),
(258,21,cs),
(139,21,o),
(79,94,o),
(80,199,cs),
(80,348,o),
(186,483,o),
(329,483,cs),
(425,483,o),
(449,437,o),
(448,397,cs),
(447,368,o),
(439,340,o),
(391,313,cs),
(335,281,o),
(198,244,o),
(72,236,c),
(73,205,l),
(191,211,o),
(341,250,o),
(400,281,cs),
(466,315,o),
(483,358,o),
(483,404,cs),
(483,452,o),
(447,514,o),
(332,514,cs),
(157,514,o),
(45,355,o),
(45,192,cs),
(45,67,o),
(128,-10,o),
(251,-10,cs)
);
}
);
width = 553;
},
{
anchors = (
{
name = bottom;
pos = (222,0);
},
{
name = ogonek;
pos = (322,0);
},
{
name = top;
pos = (311,504);
}
);
layerId = "502A2428-35F6-4863-AD44-5AC44627310C";
shapes = (
{
closed = 1;
nodes = (
(333,-10,o),
(395,11,o),
(457,59,c),
(421,118,l),
(368,76,o),
(312,58,o),
(253,58,cs),
(147,58,o),
(99,121,o),
(98,197,cs),
(96,323,o),
(172,432,o),
(305,446,cs),
(382,454,o),
(402,420,o),
(402,390,cs),
(402,365,o),
(390,338,o),
(345,314,cs),
(288,283,o),
(203,264,o),
(88,253,c),
(83,179,l),
(203,191,o),
(298,211,o),
(375,248,cs),
(436,277,o),
(483,321,o),
(483,390,cs),
(483,461,o),
(435,522,o),
(302,514,cs),
(137,504,o),
(20,366,o),
(20,198,cs),
(20,67,o),
(109,-10,o),
(242,-10,cs)
);
}
);
width = 543;
}
);
metricLeft = c;
unicode = 101;
}
{
glyphname = f;
kernLeft = f;
kernRight = f;
layers = (
{
anchors = (
{
name = bottom;
pos = (139,0);
},
{
name = top;
pos = (277,716);
}
);
associatedMasterId = "42F8977D-8264-44FF-8A66-A72BD7D3E619";
background = {
shapes = (
{
closed = 1;
nodes = (
(309,0,l),
(309,349,l),
(425,349,l),
(425,504,l),
(309,504,l),
(309,524,ls),
(309,550,o),
(322,568,o),
(360,568,cs),
(378,568,o),
(408,567,o),
(425,564,c),
(425,709,l),
(396,718,o),
(354,723,o),
(313,723,cs),
(172,723,o),
(117,663,o),
(117,544,cs),
(117,504,l),
(22,504,l),
(22,349,l),
(117,349,l),
(117,0,l)
);
}
);
};
layerId = "A8EB7FE8-81BF-473E-9FD1-283009C9891C";
name = "May 27, 24 at 09:32";
shapes = (
{
closed = 1;
nodes = (
(237,0,l),
(298,349,l),
(413,349,l),
(441,504,l),
(326,504,l),
(329,518,ls),
(335,544,o),
(355,562,o),
(391,562,cs),
(411,562,o),
(429,559,o),
(446,556,c),
(477,707,l),
(450,716,o),
(403,726,o),
(362,726,cs),
(221,726,o),
(162,674,o),
(141,555,cs),
(132,504,l),
(38,504,l),
(10,349,l),
(104,349,l),
(43,0,l)
);
}
);
width = 427;
},
{
anchors = (
{
name = bottom;
pos = (151,0);
},
{
name = top;
pos = (289,716);
}
);
background = {
shapes = (
{
closed = 1;
nodes = (
(315,0,l),
(315,349,l),
(431,349,l),
(431,504,l),
(315,504,l),
(315,524,ls),
(315,550,o),
(328,568,o),
(366,568,cs),
(384,568,o),
(414,567,o),
(431,564,c),
(431,709,l),
(402,718,o),
(360,723,o),
(319,723,cs),
(178,723,o),
(123,663,o),
(123,544,cs),
(123,504,l),
(28,504,l),
(28,349,l),
(123,349,l),
(123,0,l)
);
}
);
};
layerId = "42F8977D-8264-44FF-8A66-A72BD7D3E619";
name = "Black Italic";
shapes = (
{
closed = 1;
nodes = (
(248,0,l),
(309,349,l),
(424,349,l),
(452,504,l),
(337,504,l),
(340,518,ls),
(346,544,o),
(366,564,o),
(402,564,cs),
(422,564,o),
(434,561,o),
(444,558,c),
(488,707,l),
(461,716,o),
(414,726,o),
(373,726,cs),
(232,726,o),
(173,674,o),
(152,555,cs),
(143,504,l),
(49,504,l),
(21,349,l),
(115,349,l),
(54,0,l)
);
},
{
closed = 1;
nodes = (
(160,-205,o),
(219,-146,o),
(242,-30,cs),
(248,0,l),
(309,349,l),
(115,349,l),
(57,17,l),
(54,0,ls),
(48,-33,o),
(23,-47,o),
(-1,-47,cs),
(-17,-47,o),
(-35,-43,o),
(-42,-40,c),
(-90,-183,l),
(-64,-194,o),
(-22,-205,o),
(30,-205,cs)
);
}
);
width = 448;
},
{
anchors = (
{
name = bottom;
pos = (107,0);
},
{
name = top;
pos = (242,716);
}
);
associatedMasterId = "502A2428-35F6-4863-AD44-5AC44627310C";
layerId = "B4E9061E-AF6B-4C07-AAD3-80D1BC966415";
name = "May 27, 24 at 09:33";
shapes = (
{
closed = 1;
nodes = (
(145,0,l),
(222,436,l),
(357,436,l),
(369,504,l),
(234,504,l),
(246,571,ls),
(255,626,o),
(288,658,o),
(337,658,cs),
(359,658,o),
(372,653,o),
(385,649,c),
(404,715,l),
(390,722,o),
(362,726,o),
(337,726,cs),
(241,726,o),
(187,683,o),
(169,582,cs),
(156,504,l),
(42,504,l),
(30,436,l),
(144,436,l),
(67,0,l)
);
}
);
width = 374;
},
{
anchors = (
{
name = bottom;
pos = (126,0);
},
{
name = top;
pos = (261,716);
}
);
background = {
shapes = (
{
closed = 1;
nodes = (
(228,0,l),
(228,436,l),
(363,436,l),
(363,504,l),
(228,504,l),
(228,574,ls),
(228,629,o),
(255,658,o),
(309,658,cs),
(326,658,o),
(350,657,o),
(363,653,c),
(363,716,l),
(348,723,o),
(320,726,o),
(295,726,cs),
(199,726,o),
(150,680,o),
(150,579,cs),
(150,504,l),
(36,504,l),
(36,436,l),
(150,436,l),
(150,0,l)
);
}
);
};
layerId = "502A2428-35F6-4863-AD44-5AC44627310C";
name = Italic;
shapes = (
{
closed = 1;
nodes = (
(165,0,l),
(242,436,l),
(377,436,l),
(389,504,l),
(254,504,l),
(266,571,ls),
(275,626,o),
(308,658,o),
(357,658,cs),
(379,658,o),
(394,655,o),
(404,652,c),
(424,715,l),
(410,722,o),
(382,726,o),
(357,726,cs),
(261,726,o),
(207,683,o),
(189,582,cs),
(176,504,l),
(62,504,l),
(50,436,l),
(164,436,l),
(87,0,l)
);
},
{
closed = 1;
nodes = (
(81,-205,o),
(138,-162,o),
(155,-59,cs),
(165,0,l),
(242,436,l),
(164,436,l),
(87,0,l),
(78,-48,ls),
(68,-102,o),
(33,-134,o),
(-15,-134,cs),
(-30,-134,o),
(-47,-132,o),
(-58,-129,c),
(-80,-194,l),
(-67,-201,o),
(-38,-205,o),
(-15,-205,cs)
);
}
);
width = 399;
},
{
anchors = (
{
name = bottom;
pos = (97,0);
},
{
name = top;
pos = (232,716);
}
);
associatedMasterId = "1750929F-40DF-47FF-8B11-7621AD6711F1";
layerId = "BE07DED0-EAAD-4F96-9FD6-FF5C3C1A55C0";
name = "May 27, 24 at 09:34";
shapes = (
{
closed = 1;
nodes = (
(111,0,l),
(194,474,l),
(336,474,l),
(342,504,l),
(200,504,l),
(215,591,ls),
(227,660,o),
(268,695,o),
(327,695,cs),
(345,695,o),
(361,690,o),
(372,687,c),
(380,715,l),
(370,721,o),
(348,726,o),
(330,726,cs),
(250,726,o),
(199,683,o),
(183,593,cs),
(168,504,l),
(46,504,l),
(40,474,l),
(162,474,l),
(79,0,l)
);
}
);
width = 350;
},
{
anchors = (
{
name = bottom;
pos = (111,0);
},
{
name = top;
pos = (246,716);
}
);
background = {
shapes = (
{
closed = 1;
nodes = (
(190,0,l),
(190,474,l),
(332,474,l),
(332,504,l),
(190,504,l),
(190,592,ls),
(190,661,o),
(224,693,o),
(283,693,cs),
(301,693,o),
(321,692,o),
(332,689,c),
(332,716,l),
(321,722,o),
(301,724,o),
(283,724,cs),
(203,724,o),
(158,682,o),
(158,592,cs),
(158,504,l),
(36,504,l),
(36,474,l),
(158,474,l),
(158,0,l)
);
}
);
};
layerId = "1750929F-40DF-47FF-8B11-7621AD6711F1";
name = "Thin Italic";
shapes = (
{
closed = 1;
nodes = (
(127,0,l),
(210,474,l),
(352,474,l),
(358,504,l),
(216,504,l),
(231,591,ls),
(243,660,o),
(284,695,o),
(343,695,cs),
(361,695,o),
(376,692,o),
(387,688,c),
(396,715,l),
(386,721,o),
(364,726,o),
(346,726,cs),
(266,726,o),
(215,683,o),
(199,593,cs),
(184,504,l),
(62,504,l),
(56,474,l),
(178,474,l),
(95,0,l)
);
},
{
closed = 1;
nodes = (
(48,-202,o),
(100,-162,o),
(115,-71,cs),
(127,0,l),
(210,474,l),
(178,474,l),
(95,0,l),
(83,-69,ls),
(71,-138,o),
(30,-172,o),
(-30,-172,cs),
(-48,-172,o),
(-60,-169,o),
(-71,-166,c),
(-80,-193,l),
(-70,-198,o),
(-51,-202,o),
(-33,-202,cs)
);
}
);
width = 376;
}
);
unicode = 102;
}
{
glyphname = g;
kernLeft = c;
kernRight = g;
layers = (
{
anchors = (
{
name = bottom;
pos = (199,-205);
},
{
name = ogonek;
pos = (504,0);
},
{
name = top;
pos = (335,504);
}
);
background = {
shapes = (
{
closed = 1;
nodes = (
(462,-206,o),
(582,-107,o),
(582,77,cs),
(582,504,l),
(399,504,l),
(399,454,l),
(369,492,o),
(322,515,o),
(257,515,cs),
(132,515,o),
(16,428,o),
(16,268,cs),
(16,108,o),
(132,21,o),
(257,21,cs),
(313,21,o),
(359,40,o),
(389,70,c),
(389,45,ls),
(389,-18,o),
(343,-47,o),
(270,-47,cs),
(220,-47,o),
(160,-31,o),
(91,6,c),
(35,-131,l),
(111,-182,o),
(189,-206,o),
(282,-206,cs)
);
},
{
closed = 1;
nodes = (
(247,176,o),
(211,211,o),
(211,268,cs),
(211,324,o),
(247,360,o),
(304,360,cs),
(361,360,o),
(397,324,o),
(397,268,cs),
(397,211,o),
(361,176,o),
(304,176,cs)
);
}
);
};
layerId = "42F8977D-8264-44FF-8A66-A72BD7D3E619";
shapes = (
{
closed = 1;
nodes = (
(369,-205,o),
(490,-114,o),
(522,70,cs),
(599,504,l),
(405,504,l),
(396,451,l),
(370,486,o),
(327,514,o),
(261,514,cs),
(120,514,o),
(15,375,o),
(15,201,cs),
(15,80,o),
(83,21,o),
(185,21,cs),
(249,21,o),
(300,41,o),
(339,85,c),
(325,36,ls),
(312,-12,o),
(266,-45,o),
(193,-45,cs),
(143,-45,o),
(90,-33,o),
(27,4,c),
(-45,-127,l),
(22,-178,o),
(96,-205,o),
(199,-205,cs)
);
},
{
closed = 1;
nodes = (
(230,183,o),
(202,214,o),
(211,267,cs),
(221,323,o),
(254,361,o),
(305,361,cs),
(334,361,o),
(359,348,o),
(377,328,c),
(373,304,ls),
(362,238,o),
(324,183,o),
(271,183,cs)
);
}
);
width = 619;
},
{
anchors = (
{
name = bottom;
pos = (221,-208);
},
{
name = ogonek;
pos = (450,0);
},
{
name = top;
pos = (318,504);
}
);
background = {
shapes = (
{
closed = 1;
nodes = (
(437,-206,o),
(524,-106,o),
(524,67,cs),
(524,504,l),
(492,504,l),
(492,395,l),
(457,470,o),
(384,515,o),
(285,515,cs),
(143,515,o),
(44,423,o),
(44,268,cs),
(44,114,o),
(143,21,o),
(285,21,cs),
(384,21,o),
(457,67,o),
(492,140,c),
(492,60,ls),
(492,-93,o),
(413,-176,o),
(277,-176,cs),
(214,-176,o),
(157,-157,o),
(93,-96,c),
(73,-120,l),
(134,-181,o),
(201,-206,o),
(277,-206,cs)
);
},
{
closed = 1;
nodes = (
(171,51,o),
(78,122,o),
(78,268,cs),
(78,414,o),
(171,484,o),
(285,484,cs),
(400,484,o),
(492,414,o),
(492,268,cs),
(492,122,o),
(400,51,o),
(285,51,cs)
);
}
);
};
layerId = "1750929F-40DF-47FF-8B11-7621AD6711F1";
shapes = (
{
closed = 1;
nodes = (
(324,-208,o),
(422,-159,o),
(451,0,cs),
(540,504,l),
(508,504,l),
(499,451,l),
(455,482,o),
(409,514,o),
(325,514,cs),
(169,514,o),
(44,373,o),
(44,204,cs),
(44,79,o),
(116,20,o),
(235,20,cs),
(333,20,o),
(402,69,o),
(445,150,c),
(419,0,ls),
(394,-137,o),
(312,-178,o),
(221,-178,cs),
(127,-178,o),
(60,-128,o),
(29,-99,c),
(8,-123,l),
(42,-154,o),
(117,-208,o),
(221,-208,cs)
);
},
{
closed = 1;
nodes = (
(140,51,o),
(79,96,o),
(79,207,cs),
(79,353,o),
(183,483,o),
(322,483,cs),
(409,483,o),
(460,443,o),
(492,416,c),
(472,298,ls),
(444,166,o),
(370,51,o),
(238,51,cs)
);
}
);
width = 595;
},
{
anchors = (
{
name = bottom;
pos = (191,-205);
},
{
name = ogonek;
pos = (472,0);
},
{
name = top;
pos = (326,504);
}
);
layerId = "502A2428-35F6-4863-AD44-5AC44627310C";
shapes = (
{
closed = 1;
nodes = (
(356,-205,o),
(455,-123,o),
(486,54,cs),
(566,504,l),
(488,504,l),
(479,456,l),
(443,485,o),
(400,514,o),
(313,514,cs),
(153,514,o),
(35,373,o),
(35,212,cs),
(35,85,o),
(110,20,o),
(235,20,cs),
(308,20,o),
(377,56,o),
(420,114,c),
(411,60,ls),
(389,-64,o),
(314,-137,o),
(206,-137,cs),
(135,-137,o),
(79,-117,o),
(21,-65,c),
(-20,-120,l),
(31,-173,o),
(110,-205,o),
(191,-205,cs)
);
},
{
closed = 1;
nodes = (
(160,88,o),
(115,130,o),
(115,220,cs),
(115,340,o),
(195,445,o),
(319,445,cs),
(399,445,o),
(445,406,o),
(468,380,c),
(454,300,ls),
(433,181,o),
(344,88,o),
(255,88,cs)
);
}
);
width = 611;
}
);
metricRight = a;
unicode = 103;
}
